<svg xmlns="http://www.w3.org/2000/svg" xmlns:xlink="http://www.w3.org/1999/xlink" width="108" height="108" viewBox="0 0 108 108">
  <defs>
    <filter id="Path_904820" x="0" y="0" width="108" height="108" filterUnits="userSpaceOnUse">
      <feOffset dy="3" input="SourceAlpha"/>
      <feGaussianBlur stdDeviation="3" result="blur"/>
      <feFlood flood-opacity="0.161"/>
      <feComposite operator="in" in2="blur"/>
      <feComposite in="SourceGraphic"/>
    </filter>
  </defs>
  <g id="Group_1217702" data-name="Group 1217702" transform="translate(-191.999 -5461)">
    <g id="Group_1217634" data-name="Group 1217634">
      <g id="Group_1216209" data-name="Group 1216209" transform="translate(0 4138)">
        <g id="Group_1214441" data-name="Group 1214441" transform="translate(200.999 1329)">
          <g id="Group_1207774" data-name="Group 1207774" transform="translate(0 0)">
            <g id="Group_1206630" data-name="Group 1206630" transform="translate(0 0)">
              <g id="Group_1185091" data-name="Group 1185091">
                <g id="Group_1179560" data-name="Group 1179560">
                  <g id="Group_1173787" data-name="Group 1173787">
                    <g id="Group_1171910" data-name="Group 1171910">
                      <g id="Group_1167341" data-name="Group 1167341">
                        <g id="Group_1166792" data-name="Group 1166792">
                          <g transform="matrix(1, 0, 0, 1, -9, -6)" filter="url(#Path_904820)">
                            <g id="Path_904820-2" data-name="Path 904820" transform="translate(9 6)" fill="#f2f7e5">
                              <path d="M 44.99999618530273 88.50005340576172 C 39.12687301635742 88.50005340576172 33.43022155761719 87.35012817382812 28.06829643249512 85.08221435546875 C 22.88852119445801 82.89136505126953 18.23629570007324 79.754638671875 14.24084663391113 75.75918579101562 C 10.24540901184082 71.76374053955078 7.108683586120605 67.11151123046875 4.917821407318115 61.93173980712891 C 2.649921178817749 56.56980133056641 1.499996185302734 50.87314987182617 1.499996185302734 45.00002670288086 C 1.499996185302734 39.12690353393555 2.649921178817749 33.43025207519531 4.917821407318115 28.06831359863281 C 7.108683586120605 22.8885383605957 10.24540901184082 18.23631477355957 14.24084663391113 14.24086380004883 C 18.23629570007324 10.2454137802124 22.88852119445801 7.108689308166504 28.06829643249512 4.917839050292969 C 33.43022155761719 2.649926662445068 39.12687301635742 1.500001668930054 44.99999618530273 1.500001668930054 C 50.87311935424805 1.500001668930054 56.56977081298828 2.649926662445068 61.93169784545898 4.917839050292969 C 67.11147308349609 7.108689308166504 71.76369476318359 10.2454137802124 75.75914764404297 14.24086380004883 C 79.75458526611328 18.23631477355957 82.89131164550781 22.8885383605957 85.08216857910156 28.06831359863281 C 87.35007476806641 33.43025207519531 88.5 39.12690353393555 88.5 45.00002670288086 C 88.5 50.87314987182617 87.35007476806641 56.56980133056641 85.08216857910156 61.93173980712891 C 82.89131164550781 67.11151123046875 79.75458526611328 71.76374053955078 75.75914764404297 75.75918579101562 C 71.76369476318359 79.754638671875 67.11147308349609 82.89136505126953 61.93169784545898 85.08221435546875 C 56.56977081298828 87.35012817382812 50.87311935424805 88.50005340576172 44.99999618530273 88.50005340576172 Z" stroke="none"/>
                              <path d="M 44.99999618530273 3 C 39.32870864868164 3 33.82865142822266 4.110054016113281 28.65262603759766 6.299339294433594 C 23.65165710449219 8.414566040039062 19.15968322753906 11.44334411621094 15.301513671875 15.30152893066406 C 11.44333648681641 19.15969848632812 8.414566040039062 23.65167236328125 6.299339294433594 28.65264129638672 C 4.110054016113281 33.82868194580078 2.999992370605469 39.32873916625977 2.999992370605469 45.00002670288086 C 2.999992370605469 50.67131423950195 4.110054016113281 56.17137145996094 6.299339294433594 61.347412109375 C 8.414566040039062 66.34838104248047 11.44333648681641 70.84035491943359 15.301513671875 74.69852447509766 C 19.15968322753906 78.55670928955078 23.65165710449219 81.58547973632812 28.65262603759766 83.70071411132812 C 33.82865142822266 85.88999938964844 39.32870864868164 87.00005340576172 44.99999618530273 87.00005340576172 C 50.67128372192383 87.00005340576172 56.17134094238281 85.88999938964844 61.34736633300781 83.70071411132812 C 66.34834289550781 81.58547973632812 70.84030914306641 78.55670928955078 74.69847869873047 74.69852447509766 C 78.55665588378906 70.84035491943359 81.58542633056641 66.34838104248047 83.70065307617188 61.347412109375 C 85.88993835449219 56.17137145996094 87 50.67131423950195 87 45.00002670288086 C 87 39.32873916625977 85.88993835449219 33.82868194580078 83.70065307617188 28.65264129638672 C 81.58542633056641 23.65167236328125 78.55665588378906 19.15969848632812 74.69847869873047 15.30152893066406 C 70.84030914306641 11.44334411621094 66.34834289550781 8.414566040039062 61.34736633300781 6.299339294433594 C 56.17134094238281 4.110054016113281 50.67128372192383 3 44.99999618530273 3 M 44.99999618530273 0 C 69.85281372070312 0 90 20.14720153808594 90 45.00002670288086 C 90 69.85285949707031 69.85281372070312 90.00005340576172 44.99999618530273 90.00005340576172 C 20.14717864990234 90.00005340576172 -7.62939453125e-06 69.85285949707031 -7.62939453125e-06 45.00002670288086 C -7.62939453125e-06 20.14720153808594 20.14717864990234 0 44.99999618530273 0 Z" stroke="none" fill="#496406"/>
                            </g>
                          </g>
                        </g>
                      </g>
                    </g>
                  </g>
                </g>
              </g>
            </g>
          </g>
        </g>
      </g>
      <g id="liderazgo_2_" data-name="liderazgo (2)" transform="translate(211.314 5479.89)">
        <path id="Path_1088093" data-name="Path 1088093" d="M43.832,374.245s-3.548,1.057-4.765-.16,0-4.34,0-4.34l6.027-2.467Z" transform="translate(-21.452 -311.963)" fill="#f1d0a5"/>
        <path id="Path_1088094" data-name="Path 1088094" d="M67.3,259.91a112.492,112.492,0,0,0,12.569,3.385l.25,3.244c-3.843,2.312-14.123,1.224-14.123,1.224a21.255,21.255,0,0,1,2.711,8.319l.2,2.466s.749,8.535-1.647,14.673H59.766s1.877-8.7-1.843-12.422c-3.72,3.72-1.843,12.422-1.843,12.422H48.595c-2.4-6.138-1.647-14.673-1.647-14.673h-4.83c0-13.5,5.483-17.965,6.433-18.637" transform="translate(-24.503 -220.765)" fill="#b9e4ef"/>
        <path id="Path_1088095" data-name="Path 1088095" d="M93.868,384.419H86.383s1.876-8.7-1.844-12.423c-3.72,3.722-1.843,12.423-1.843,12.423H75.21c-2.4-6.138-1.646-14.674-1.646-14.674a16.766,16.766,0,0,1,.2-2.466H95.318l.2,2.466S96.263,378.282,93.868,384.419Z" transform="translate(-51.119 -311.964)" fill="#665e66"/>
        <path id="Path_1088096" data-name="Path 1088096" d="M51.109,259.91a31.28,31.28,0,0,0-6.19,18.637h-2.8c0-13.5,5.483-17.965,6.433-18.637Z" transform="translate(-24.5 -220.765)" fill="#7ad0df"/>
        <path id="Path_1088097" data-name="Path 1088097" d="M77.416,384.419H75.2c-2.4-6.138-1.646-14.674-1.646-14.674a16.766,16.766,0,0,1,.2-2.466H77.3C76.548,370.1,75.616,375.949,77.416,384.419Z" transform="translate(-51.109 -311.964)" fill="#454045"/>
        <path id="Path_1088098" data-name="Path 1088098" d="M150.85,411.02H148.9s1.877-8.7-1.843-12.423c3.8,0,5.749,6.537,3.8,12.423Z" transform="translate(-113.634 -338.564)" fill="#454045"/>
        <path id="Path_1088099" data-name="Path 1088099" d="M131.053,257.457H126.23l-.854-5.792h6.531Z" transform="translate(-95.222 -213.762)" fill="#df6b57"/>
        <path id="Path_1088100" data-name="Path 1088100" d="M55.393,150.982h.022a3.4,3.4,0,0,0,0-6.794H24.166a3.4,3.4,0,0,0,0,6.794h.022" transform="translate(-6.37 -122.472)" fill="#f1b986"/>
        <path id="Path_1088101" data-name="Path 1088101" d="M60.545,28.425l-23.069.1-11.456.048c-.873-7.973-3.408-18.328,5.9-20.174a48.007,48.007,0,0,1,6.059-.83C50.1,6.745,53.12,12.219,53.12,12.219A7.163,7.163,0,0,1,57.7,10.488a4.021,4.021,0,0,1,2.568,1.238C64.581,16.039,60.545,28.425,60.545,28.425Z" transform="translate(-9.996 -6.357)" fill="#aa593d"/>
        <path id="Path_1088102" data-name="Path 1088102" d="M208.841,27.352c-2.834,1.947-4.688,7.772-5.546,11.093-.84-3.382.186-7.105.967-9.362A7.162,7.162,0,0,1,208.841,27.352Z" transform="translate(-161.138 -23.22)" fill="#934d36"/>
        <path id="Path_1088103" data-name="Path 1088103" d="M36.2,20.405,37.476,29l-11.456.048c-.873-7.974-3.408-18.329,5.9-20.174a48.007,48.007,0,0,1,6.059-.83,0,0,0,0,1,0,0c-4.663,2.868-3.223,7.977-1.784,12.361Z" transform="translate(-9.996 -6.832)" fill="#934d36"/>
        <path id="Path_1088104" data-name="Path 1088104" d="M74.513,102.23q0,2.683-.137,5.367A8.694,8.694,0,0,1,66.1,115.84q-4.691.222-9.384.154h0q-2.526-.035-5.05-.154a8.7,8.7,0,0,1-8.281-8.243q-.245-4.78-.053-9.56h0c1.744-.646,2.782-2.655,3.4-4.888a4.484,4.484,0,0,1,4.935-3.256,4.426,4.426,0,0,1,2.327,1.07,7.426,7.426,0,0,0,9.782,0,4.412,4.412,0,0,1,2.929-1.11,4.477,4.477,0,0,1,4.333,3.3c.615,2.233,1.653,4.242,3.4,4.888q.085,2.1.084,4.192Z" transform="translate(-25.458 -76.321)" fill="#f1d0a5"/>
        <path id="Path_1088105" data-name="Path 1088105" d="M56.709,115.995q-2.526-.035-5.05-.154a8.7,8.7,0,0,1-8.281-8.243q-.245-4.78-.053-9.56h0c1.744-.646,2.782-2.655,3.4-4.888a4.484,4.484,0,0,1,4.935-3.256C50.06,104.177,51.659,115.838,56.709,115.995Z" transform="translate(-25.457 -76.321)" fill="#f1b986"/>
        <path id="Path_1088106" data-name="Path 1088106" d="M292.739,274.164s2.5-2.2,4.791-1.2.569,5.274-.2,5.489a4.812,4.812,0,0,1-4.342-1.048" transform="translate(-237.378 -231.633)" fill="#f1d0a5"/>
        <path id="Path_1088107" data-name="Path 1088107" d="M126.23,290.12h4.823l.854,5.792-3.266,2.341-3.266-2.341Z" transform="translate(-95.222 -246.425)" fill="#df6b57"/>
        <path id="Path_1088108" data-name="Path 1088108" d="M70.209,484.606H79.94v-3.524H73.733A3.524,3.524,0,0,0,70.209,484.606Z" transform="translate(-48.363 -408.626)" fill="#aa593d"/>
        <path id="Path_1088109" data-name="Path 1088109" d="M75.981,481.078a3.526,3.526,0,0,0-3.525,3.525H70.209a3.524,3.524,0,0,1,3.524-3.525Z" transform="translate(-48.363 -408.622)" fill="#934d36"/>
        <path id="Path_1088110" data-name="Path 1088110" d="M169.028,484.606H159.3v-3.524H165.5A3.524,3.524,0,0,1,169.028,484.606Z" transform="translate(-124.034 -408.626)" fill="#aa593d"/>
        <path id="Path_1088111" data-name="Path 1088111" d="M340.644,119.086c-8.9,5.869-17.8-5.869-26.7,0V100.522c8.9-5.869,17.8,5.869,26.7,0Z" transform="translate(-255.39 -83.943)" fill="#90dfc3"/>
        <path id="Path_1088112" data-name="Path 1088112" d="M122.764,195.765a4.668,4.668,0,0,0,4.2-2.655,1.13,1.13,0,0,0-2.041-.969,2.388,2.388,0,0,1-4.315,0,1.13,1.13,0,1,0-2.041.969A4.669,4.669,0,0,0,122.764,195.765Z" transform="translate(-89.343 -162.655)"/>
        <path id="Path_1088113" data-name="Path 1088113" d="M92.455,146.926c0-1.163-.637-2.11-1.419-2.11s-1.419.947-1.419,2.11.637,2.11,1.419,2.11S92.455,148.09,92.455,146.926Z" transform="translate(-64.848 -123.005)"/>
        <path id="Path_1088114" data-name="Path 1088114" d="M187.074,149.036c.783,0,1.419-.947,1.419-2.11s-.637-2.11-1.419-2.11-1.419.947-1.419,2.11S186.291,149.036,187.074,149.036Z" transform="translate(-146.422 -123.005)"/>
        <path id="Path_1088115" data-name="Path 1088115" d="M85.789,15.584a1.129,1.129,0,0,0-1.157.052c-3.994,2.634-8.065,1.292-12.375-.129-4.078-1.345-8.278-2.727-12.573-.829v-.591a1.13,1.13,0,1,0-2.259,0V40.159a7.911,7.911,0,0,0-2.342,1.16c-1.338-.285-5.178-1.139-9.272-2.384a9.792,9.792,0,0,0,4.235-7.6c.031-.607.055-1.216.076-1.826a4.524,4.524,0,0,0,1.752-7.925,43.088,43.088,0,0,0,1.274-6.1c.671-5.19-.028-8.861-2.078-10.91-2.551-2.552-5.778-1.539-7.737-.273C41.446,2.263,35.728-1.843,21.709.934A8.8,8.8,0,0,0,14.24,8.358c-.682,3.4-.169,7.392.327,11.25.093.722.182,1.414.262,2.092a4.523,4.523,0,0,0,1.889,7.809c.021.61.045,1.219.076,1.826A9.792,9.792,0,0,0,21.973,39.5c-2.086,2.244-5.443,7.5-5.486,18.074-.34.949-1.191,3.823.33,5.344a3.945,3.945,0,0,0,2.83.917,9.961,9.961,0,0,0,1.629-.147,32.247,32.247,0,0,0,1.493,8.432,4.653,4.653,0,0,0-2.053,3.857,1.13,1.13,0,0,0,1.13,1.13h9.731a1.13,1.13,0,0,0,1.13-1.13V72.456c0-.019,0-.038,0-.058s0-.045,0-.068a1.067,1.067,0,0,0-.017-.106s0,0,0-.006a24.3,24.3,0,0,1-.422-3.524A1.13,1.13,0,0,0,30,68.8c.047.983.144,1.855.238,2.524H24.883C22.989,65.748,23.6,56.91,23.644,56.446H43.156s.759,9.119-1.2,14.881H36.6c.386-2.744.818-8.892-2.381-12.091a1.129,1.129,0,0,0-1.6,0,8.668,8.668,0,0,0-2.161,4.056,1.13,1.13,0,0,0,2.188.562,7.822,7.822,0,0,1,.77-1.96c1.74,3.049,1.168,8.329.74,10.326v.007c0,.023-.008.047-.011.071a1.143,1.143,0,0,0-.011.136c0,.008,0,.016,0,.025v0c0,.006,0,.011,0,.017v3.5a1.13,1.13,0,0,0,1.13,1.13h9.731a1.13,1.13,0,0,0,1.13-1.13,4.653,4.653,0,0,0-2.052-3.857c2.138-6.217,1.479-14.095,1.45-14.432l-.2-2.466c0-.008,0-.016,0-.023a22.564,22.564,0,0,0-1.9-6.923c1,.059,2.3.11,3.692.1,3.744-.021,6.557-.451,8.385-1.279a6.337,6.337,0,0,0,1.926.849V75.981a1.13,1.13,0,1,0,2.259,0V48.036a5.653,5.653,0,0,0,.573-.126c1.232-.345,2.059-2.655,2.16-4.119A3.282,3.282,0,0,0,60.6,40.3a4.227,4.227,0,0,0-.918-.279V35.775c3.831-2.207,7.739-.921,11.867.441a34.368,34.368,0,0,0,6.193,1.624,1.146,1.146,0,0,0,.148.01,1.13,1.13,0,0,0,.145-2.25,32.233,32.233,0,0,1-5.778-1.529c-4.079-1.345-8.279-2.73-12.574-.831V17.208c3.831-2.206,7.739-.917,11.866.444,4.078,1.345,8.279,2.73,12.574.831V34.513a9.023,9.023,0,0,1-1.453.678,1.13,1.13,0,1,0,.764,2.126,11.541,11.541,0,0,0,2.44-1.231,1.13,1.13,0,0,0,.508-.943V16.578a1.129,1.129,0,0,0-.594-.995ZM23.259,74.851a2.4,2.4,0,0,1,2.105-1.265h5.083v1.265Zm13.134,0V73.586h5.083a2.4,2.4,0,0,1,2.105,1.265ZM50.177,27.075q.022-1.974-.029-3.94a2.264,2.264,0,0,1,.029,3.94ZM15.529,25.114a2.269,2.269,0,0,1,1.163-1.979q-.051,1.966-.029,3.94A2.266,2.266,0,0,1,15.529,25.114Zm2.1-4.523a4.523,4.523,0,0,0-.65.071c-.055-.439-.112-.884-.171-1.342-.473-3.677-.962-7.478-.352-10.518A6.555,6.555,0,0,1,22.148,3.15c4.657-.923,11.243-1.591,16.164.466a8.165,8.165,0,0,1,3.823,2.791,1.13,1.13,0,0,0,1.735.3,7.37,7.37,0,0,1,2.058-1.188,3.1,3.1,0,0,1,3.545.646C52.309,9,50.879,16.785,49.8,20.65a4.525,4.525,0,0,0-.585-.059c-1.344-.613-2.127-2.529-2.55-4.062a5.6,5.6,0,0,0-9.095-2.736,6.316,6.316,0,0,1-8.294,0,5.6,5.6,0,0,0-9.095,2.736c-.423,1.533-1.206,3.449-2.55,4.062Zm1.421,10.628c-.149-2.907-.175-5.856-.077-8.777,1.516-.877,2.652-2.659,3.384-5.313a3.346,3.346,0,0,1,5.429-1.637,8.582,8.582,0,0,0,11.27,0,3.346,3.346,0,0,1,5.429,1.637c.732,2.653,1.868,4.436,3.384,5.313.1,2.909.072,5.858-.078,8.777a7.544,7.544,0,0,1-7.206,7.172c-4.753.225-9.574.225-14.328,0a7.546,7.546,0,0,1-7.206-7.172ZM33.42,50.439,31.373,48.97l.611-4.146h2.873l.611,4.145Zm1.437-7.873H31.984l-.259-1.756q.847.009,1.695.01t1.7-.01ZM24.3,40.387a9.979,9.979,0,0,0,1.848.261q1.639.077,3.286.118l.431,2.928-.83,5.628A1.13,1.13,0,0,0,29.5,50.4l2.795,2v1.778H24a20.4,20.4,0,0,1,.7-2.5,1.13,1.13,0,0,0-2.116-.793,23.1,23.1,0,0,0-1.06,4.252c-.077.516-.131,1.017-.166,1.5h-2.6c.26-10.743,4.189-15.084,5.544-16.266ZM18.414,61.324c-.317-.316-.247-1.4.022-2.412h2.808c-.028.639-.051,1.5-.042,2.5a4.208,4.208,0,0,1-2.789-.087Zm23.193-15.45A1.13,1.13,0,0,0,40.531,47.6,20.172,20.172,0,0,1,42.9,54.187H34.55V52.408l2.794-2a1.13,1.13,0,0,0,.459-1.083l-.83-5.626.432-2.93q1.646-.042,3.285-.118a9.959,9.959,0,0,0,2.071-.32A114.45,114.45,0,0,0,54.3,43.461l.126,1.649c-3.243,1.383-10.238,1.037-12.82.764Zm18.531-2.864a4.489,4.489,0,0,1-.474,2.424.741.741,0,0,1-.6.409,3.663,3.663,0,0,1-2.369-.65l-.163-2.133c.673-.457,2.02-1.189,3.166-.691a.739.739,0,0,1,.436.641Z"/>
      </g>
    </g>
  </g>
</svg>
