<svg xmlns="http://www.w3.org/2000/svg" xmlns:xlink="http://www.w3.org/1999/xlink" width="93.934" height="93.934" viewBox="0 0 93.934 93.934">
  <defs>
    <filter id="Path_982547" x="0" y="0" width="93.934" height="93.934" filterUnits="userSpaceOnUse">
      <feOffset dy="3" input="SourceAlpha"/>
      <feGaussianBlur stdDeviation="3" result="blur"/>
      <feFlood flood-opacity="0.161"/>
      <feComposite operator="in" in2="blur"/>
      <feComposite in="SourceGraphic"/>
    </filter>
  </defs>
  <g id="Group_1217640" data-name="Group 1217640" transform="translate(-191.467 -1033.081)">
    <g id="Group_1216248" data-name="Group 1216248">
      <g id="Group_1215746" data-name="Group 1215746" transform="translate(3 -3111.469)">
        <g id="Group_1214375" data-name="Group 1214375" transform="translate(197.467 4150.55)">
          <g id="Group_1207741" data-name="Group 1207741">
            <g id="Group_1206678" data-name="Group 1206678">
              <g id="Group_1183665" data-name="Group 1183665">
                <g id="Group_1181743" data-name="Group 1181743">
                  <g id="Group_1175133" data-name="Group 1175133">
                    <g id="Group_1167337" data-name="Group 1167337">
                      <g id="Group_1166720" data-name="Group 1166720">
                        <g id="Group_1164305" data-name="Group 1164305">
                          <g id="Group_1163948" data-name="Group 1163948">
                            <g id="Group_1158168" data-name="Group 1158168">
                              <g id="Group_1152576" data-name="Group 1152576">
                                <g id="Group_1148633" data-name="Group 1148633">
                                  <g id="Group_1148525" data-name="Group 1148525">
                                    <g transform="matrix(1, 0, 0, 1, -9, -6)" filter="url(#Path_982547)">
                                      <g id="Path_982547-2" data-name="Path 982547" transform="translate(9 6)" fill="#f2f7e5">
                                        <path d="M 37.966796875 74.43359375 C 33.04315185546875 74.43359375 28.26757431030273 73.46962738037109 23.77274131774902 71.56847381591797 C 19.43047523498535 69.73184967041016 15.53040790557861 67.10224914550781 12.18087482452393 63.75271987915039 C 8.831341743469238 60.4031867980957 6.201741218566895 56.50312042236328 4.365118980407715 52.16086196899414 C 2.463963508605957 47.66601943969727 1.499996900558472 42.89044189453125 1.499996900558472 37.966796875 C 1.499996900558472 33.04315185546875 2.463963508605957 28.26757431030273 4.365118980407715 23.77274131774902 C 6.201741218566895 19.43047523498535 8.831341743469238 15.53040790557861 12.18087482452393 12.18087482452393 C 15.53040790557861 8.831341743469238 19.43047523498535 6.201741218566895 23.77274131774902 4.365118980407715 C 28.26757431030273 2.463963508605957 33.04315185546875 1.499996900558472 37.966796875 1.499996900558472 C 42.89044189453125 1.499996900558472 47.66601943969727 2.463963508605957 52.16086196899414 4.365118980407715 C 56.50312042236328 6.201741218566895 60.4031867980957 8.831341743469238 63.75271987915039 12.18087482452393 C 67.10224914550781 15.53040790557861 69.73184967041016 19.43047523498535 71.56847381591797 23.77274131774902 C 73.46962738037109 28.26757431030273 74.43359375 33.04315185546875 74.43359375 37.966796875 C 74.43359375 42.89044189453125 73.46962738037109 47.66601943969727 71.56847381591797 52.16086196899414 C 69.73184967041016 56.50313186645508 67.10224914550781 60.4031867980957 63.75271987915039 63.75271987915039 C 60.4031867980957 67.10224914550781 56.50313186645508 69.73184967041016 52.16086196899414 71.56847381591797 C 47.66601943969727 73.46962738037109 42.89044189453125 74.43359375 37.966796875 74.43359375 Z" stroke="none"/>
                                        <path d="M 37.966796875 3 C 33.2449836730957 3 28.66600799560547 3.924095153808594 24.35705947875977 5.746635437011719 C 20.19359588623047 7.507637023925781 16.45379638671875 10.02928161621094 13.24153518676758 13.24153518676758 C 10.02927398681641 16.45379638671875 7.507621765136719 20.19359588623047 5.746635437011719 24.35705947875977 C 3.924095153808594 28.66600799560547 3 33.2449836730957 3 37.966796875 C 3 42.6886100769043 3.924095153808594 47.26758575439453 5.746635437011719 51.57653427124023 C 7.507621765136719 55.73999786376953 10.02927398681641 59.47979736328125 13.24153518676758 62.69205856323242 C 16.45379638671875 65.90431976318359 20.19359588623047 68.42597198486328 24.35705947875977 70.18695831298828 C 28.66600799560547 72.00949859619141 33.2449836730957 72.93359375 37.966796875 72.93359375 C 42.6886100769043 72.93359375 47.26758575439453 72.00949859619141 51.57653427124023 70.18695831298828 C 55.73999786376953 68.42597198486328 59.47979736328125 65.90431976318359 62.69205856323242 62.69205856323242 C 65.90431976318359 59.47979736328125 68.42597198486328 55.73999786376953 70.18695831298828 51.57653427124023 C 72.00949859619141 47.26758575439453 72.93359375 42.6886100769043 72.93359375 37.966796875 C 72.93359375 33.2449836730957 72.00949859619141 28.66600799560547 70.18695831298828 24.35705947875977 C 68.42597198486328 20.19359588623047 65.90431976318359 16.45379638671875 62.69205856323242 13.24153518676758 C 59.47979736328125 10.02928161621094 55.73999786376953 7.507637023925781 51.57653427124023 5.746635437011719 C 47.26758575439453 3.924095153808594 42.6886100769043 3 37.966796875 3 M 37.966796875 0 C 58.93528366088867 0 75.93359375 16.99832153320312 75.93359375 37.966796875 C 75.93359375 58.93528366088867 58.93528366088867 75.93359375 37.966796875 75.93359375 C 16.99831008911133 75.93359375 0 58.93528366088867 0 37.966796875 C 0 16.99832153320312 16.99831008911133 0 37.966796875 0 Z" stroke="none" fill="#86b60c"/>
                                      </g>
                                    </g>
                                  </g>
                                </g>
                              </g>
                            </g>
                          </g>
                        </g>
                      </g>
                    </g>
                  </g>
                </g>
              </g>
            </g>
          </g>
        </g>
      </g>
      <g id="trabajo-en-equipo_1_" data-name="trabajo-en-equipo (1)" transform="translate(204.397 1043.274)">
        <circle id="Ellipse_14359" data-name="Ellipse 14359" cx="14.346" cy="14.346" r="14.346" transform="translate(19.644 19.435)" fill="#ffb850"/>
        <path id="Path_1086017" data-name="Path 1086017" d="M30.349,344.817a11.272,11.272,0,1,1-11.272-11.272,11.229,11.229,0,0,1,11.272,11.272Z" transform="translate(-6.512 -289.531)" fill="#eaf6ff"/>
        <path id="Path_1086018" data-name="Path 1086018" d="M49.266,436.731v2.582a11.267,11.267,0,0,1-15.761,0v-2.582a1.809,1.809,0,0,1,1.223-1.714l5.5-1.892H42.54l5.5,1.892A1.809,1.809,0,0,1,49.266,436.731Z" transform="translate(-28.821 -375.971)" fill="#ffb850"/>
        <path id="Path_1086019" data-name="Path 1086019" d="M37.464,439.314a11.22,11.22,0,0,0,5.9,3.04,11.279,11.279,0,0,1-9.86-3.04v-2.582a1.809,1.809,0,0,1,1.223-1.714l5.5-1.892H42.54l.825.284-4.678,1.609a1.809,1.809,0,0,0-1.223,1.714Z" transform="translate(-28.821 -375.971)" fill="#f5a30f"/>
        <path id="Path_1086020" data-name="Path 1086020" d="M355.789,344.817a11.272,11.272,0,1,1-11.272-11.272,11.229,11.229,0,0,1,11.272,11.272Z" transform="translate(-289.008 -289.531)" fill="#eaf6ff"/>
        <path id="Path_1086021" data-name="Path 1086021" d="M374.706,436.731v2.582a11.267,11.267,0,0,1-15.761,0v-2.582a1.809,1.809,0,0,1,1.225-1.714l5.5-1.892h2.309l5.5,1.892A1.809,1.809,0,0,1,374.706,436.731Z" transform="translate(-311.317 -375.971)" fill="#88b4f5"/>
        <path id="Path_1086022" data-name="Path 1086022" d="M362.9,439.314a11.22,11.22,0,0,0,5.9,3.04,11.279,11.279,0,0,1-9.86-3.04v-2.582a1.809,1.809,0,0,1,1.225-1.714l5.5-1.892h2.309l.825.284-4.677,1.609a1.809,1.809,0,0,0-1.225,1.714Z" transform="translate(-311.317 -375.971)" fill="#6ea2f2"/>
        <path id="Path_1086023" data-name="Path 1086023" d="M355.789,18.777a11.231,11.231,0,0,1-3.391,8.057h0a11.27,11.27,0,0,1-15.761,0h0a11.271,11.271,0,1,1,19.152-8.057Z" transform="translate(-289.008 -6.515)" fill="#eaf6ff"/>
        <path id="Path_1086024" data-name="Path 1086024" d="M374.706,110.69v2.585a11.27,11.27,0,0,1-15.761,0V110.69a1.81,1.81,0,0,1,1.225-1.714l5.5-1.891h2.309l5.5,1.891A1.81,1.81,0,0,1,374.706,110.69Z" transform="translate(-311.317 -92.954)" fill="#f07281"/>
        <path id="Path_1086025" data-name="Path 1086025" d="M362.9,113.275a11.228,11.228,0,0,0,5.9,3.039,11.282,11.282,0,0,1-9.86-3.039V110.69a1.81,1.81,0,0,1,1.225-1.714l5.5-1.891h2.309l.825.284-4.677,1.607a1.81,1.81,0,0,0-1.225,1.714Z" transform="translate(-311.317 -92.954)" fill="#eb5569"/>
        <path id="Path_1086026" data-name="Path 1086026" d="M30.349,18.777a11.231,11.231,0,0,1-3.391,8.057h0a11.27,11.27,0,0,1-15.761,0h0a11.271,11.271,0,1,1,19.152-8.057Z" transform="translate(-6.512 -6.515)" fill="#eaf6ff"/>
        <path id="Path_1086027" data-name="Path 1086027" d="M49.266,110.69v2.585a11.27,11.27,0,0,1-15.761,0V110.69a1.81,1.81,0,0,1,1.223-1.714l5.5-1.891H42.54l5.5,1.891A1.81,1.81,0,0,1,49.266,110.69Z" transform="translate(-28.821 -92.954)" fill="#ade194"/>
        <path id="Path_1086028" data-name="Path 1086028" d="M37.464,113.275a11.228,11.228,0,0,0,5.9,3.039,11.282,11.282,0,0,1-9.86-3.039V110.69a1.81,1.81,0,0,1,1.223-1.714l5.5-1.891H42.54l.825.284-4.678,1.607a1.81,1.81,0,0,0-1.223,1.714Z" transform="translate(-28.821 -92.954)" fill="#87d469"/>
        <circle id="Ellipse_14360" data-name="Ellipse 14360" cx="10.557" cy="10.557" r="10.557" transform="matrix(0.987, -0.16, 0.16, 0.987, 21.872, 25.054)" fill="#fbd94f"/>
        <path id="Path_1086029" data-name="Path 1086029" d="M221.307,217.277l1.61,3.263,3.6.523-2.606,2.54.615,3.586-3.221-1.693-3.221,1.693.615-3.586-2.606-2.54,3.6-.523Z" transform="translate(-187.318 -188.606)" fill="#ffb850"/>
        <circle id="Ellipse_14361" data-name="Ellipse 14361" cx="4.073" cy="4.073" r="4.073" transform="translate(51.436 5.98)" fill="#ffeee6"/>
        <path id="Path_1086030" data-name="Path 1086030" d="M393.857,52.947a4.073,4.073,0,1,1,0-7.119,4.073,4.073,0,0,0,0,7.119Z" transform="translate(-336.368 -39.335)" fill="#ffdfcf"/>
        <circle id="Ellipse_14362" data-name="Ellipse 14362" cx="4.073" cy="4.073" r="4.073" transform="translate(8.492 5.98)" fill="#ffcebf"/>
        <path id="Path_1086031" data-name="Path 1086031" d="M68.408,52.947a4.073,4.073,0,1,1,0-7.119,4.072,4.072,0,0,0,0,7.119Z" transform="translate(-53.864 -39.335)" fill="#ffb09e"/>
        <circle id="Ellipse_14363" data-name="Ellipse 14363" cx="4.073" cy="4.073" r="4.073" transform="translate(51.436 49.004)" fill="#ffcebf"/>
        <path id="Path_1086032" data-name="Path 1086032" d="M393.857,379a4.073,4.073,0,1,1,0-7.119,4.073,4.073,0,0,0,0,7.119Z" transform="translate(-336.368 -322.361)" fill="#ffb09e"/>
        <circle id="Ellipse_14364" data-name="Ellipse 14364" cx="4.073" cy="4.073" r="4.073" transform="translate(8.492 49.004)" fill="#ffeee6"/>
        <path id="Path_1086033" data-name="Path 1086033" d="M68.408,379a4.073,4.073,0,1,1,0-7.119,4.072,4.072,0,0,0,0,7.119Z" transform="translate(-53.864 -322.361)" fill="#ffdfcf"/>
        <g id="Group_1216247" data-name="Group 1216247" transform="translate(0.303 0)">
          <path id="Path_1086034" data-name="Path 1086034" d="M168.085,180.05a11.544,11.544,0,0,0,20.969,6.668.99.99,0,1,0-1.614-1.146,9.514,9.514,0,1,1,1.563-3.59.99.99,0,0,0,1.938.4,11.547,11.547,0,1,0-22.856-2.333Z" transform="translate(-145.945 -146.269)"/>
          <path id="Path_1086035" data-name="Path 1086035" d="M219.682,212.795l-3.086-.448-1.38-2.8c-.445-.958-1.368-.826-1.775,0l-1.38,2.8-3.086.448c-1.032.085-1.164,1.075-.549,1.688l2.233,2.177-.527,3.074q.069,1.414,1.436,1.043l2.76-1.451,2.76,1.451a1,1,0,0,0,1.436-1.043L218,216.66l2.233-2.177A.922.922,0,0,0,219.682,212.795Zm-3.439,2.811a.99.99,0,0,0-.285.876l.276,1.61-1.446-.76a.99.99,0,0,0-.921,0l-1.446.76.276-1.61a.99.99,0,0,0-.285-.876l-1.17-1.14,1.616-.235a.989.989,0,0,0,.745-.541l.723-1.465.723,1.465a.989.989,0,0,0,.745.541l1.616.235Z" transform="translate(-180.641 -181.317)"/>
          <path id="Path_1086036" data-name="Path 1086036" d="M59.753,43.782a27.707,27.707,0,0,0,0-20.015A12.408,12.408,0,0,0,67.77,12.262,12.262,12.262,0,0,0,44,8.022a27.7,27.7,0,0,0-19.945-.031A12.262,12.262,0,0,0,.3,12.262a12.408,12.408,0,0,0,7.94,11.474,27.7,27.7,0,0,0,0,20.077A12.281,12.281,0,0,0,.3,55.285,12.418,12.418,0,0,0,12.565,67.547a12.4,12.4,0,0,0,11.489-7.978,27.7,27.7,0,0,0,19.955-.031A12.262,12.262,0,1,0,59.753,43.782Zm2.646-23.9a10.262,10.262,0,0,1-13.781,0v-2.15a.822.822,0,0,1,.556-.779L54.52,15.12H56.5l5.347,1.838a.821.821,0,0,1,.554.778v2.15Zm-9.974-9.834a3.083,3.083,0,1,1,3.083,3.083A3.087,3.087,0,0,1,52.426,10.053Zm3.083-8.073a10.275,10.275,0,0,1,8.857,15.5,2.8,2.8,0,0,0-1.878-2.391L58.863,13.84a5.063,5.063,0,1,0-6.709,0l-3.622,1.245a2.8,2.8,0,0,0-1.88,2.391,10.275,10.275,0,0,1,8.857-15.5Zm-51.8,15.5a10.28,10.28,0,1,1,19.139-5.214,10.217,10.217,0,0,1-1.426,5.214,2.8,2.8,0,0,0-1.878-2.391L15.919,13.84a5.063,5.063,0,1,0-6.709,0L5.588,15.085a2.8,2.8,0,0,0-1.88,2.391Zm11.94-7.423A3.083,3.083,0,1,1,12.565,6.97,3.087,3.087,0,0,1,15.648,10.053ZM5.674,19.886v-2.15a.822.822,0,0,1,.556-.779l5.346-1.838h1.979L18.9,16.958a.821.821,0,0,1,.554.778v2.15a10.262,10.262,0,0,1-13.781,0ZM19.455,62.91a10.261,10.261,0,0,1-13.781,0V60.76a.822.822,0,0,1,.556-.779l5.346-1.838h1.979L18.9,59.982a.821.821,0,0,1,.554.778ZM9.481,53.077a3.083,3.083,0,1,1,3.083,3.083A3.087,3.087,0,0,1,9.481,53.077Zm33.99,4.546a25.73,25.73,0,0,1-18.877.034A12.484,12.484,0,0,0,20.339,45.8a.99.99,0,1,0-1.256,1.53A10.408,10.408,0,0,1,21.421,60.5a2.8,2.8,0,0,0-1.878-2.39l-3.624-1.246a5.063,5.063,0,1,0-6.709,0L5.588,58.11a2.8,2.8,0,0,0-1.88,2.39,10.217,10.217,0,0,1-1.425-5.214,10.384,10.384,0,0,1,13.338-9.82.99.99,0,0,0,.589-1.89,12.536,12.536,0,0,0-6.061-.312,25.726,25.726,0,0,1,0-18.979A12.38,12.38,0,0,0,24.6,9.9a25.728,25.728,0,0,1,18.871.034A12.38,12.38,0,0,0,57.833,24.3a25.732,25.732,0,0,1,.005,18.946A12.408,12.408,0,0,0,43.472,57.623Zm5.147,5.288V60.76a.822.822,0,0,1,.556-.779l5.346-1.838H56.5l5.347,1.838a.821.821,0,0,1,.554.778v2.15a10.262,10.262,0,0,1-13.781,0Zm6.891-6.751a3.083,3.083,0,1,1,3.083-3.083A3.087,3.087,0,0,1,55.509,56.16Zm8.857,4.34a2.8,2.8,0,0,0-1.878-2.39l-3.624-1.246a5.063,5.063,0,1,0-6.709,0l-3.622,1.245a2.8,2.8,0,0,0-1.88,2.391,10.282,10.282,0,1,1,17.714,0Z" transform="translate(-0.303 0)"/>
          <path id="Path_1086037" data-name="Path 1086037" d="M166.309,146.1a15.354,15.354,0,0,0-9.226-5.138.99.99,0,1,0-.306,1.955,13.359,13.359,0,1,1-4.017-.02.99.99,0,1,0-.286-1.959,15.349,15.349,0,1,0,13.836,5.16Z" transform="translate(-121.015 -122.336)"/>
        </g>
      </g>
    </g>
  </g>
</svg>
