<svg xmlns="http://www.w3.org/2000/svg" xmlns:xlink="http://www.w3.org/1999/xlink" width="93.934" height="93.934" viewBox="0 0 93.934 93.934">
  <defs>
    <filter id="Path_982547" x="0" y="0" width="93.934" height="93.934" filterUnits="userSpaceOnUse">
      <feOffset dy="3" input="SourceAlpha"/>
      <feGaussianBlur stdDeviation="3" result="blur"/>
      <feFlood flood-opacity="0.161"/>
      <feComposite operator="in" in2="blur"/>
      <feComposite in="SourceGraphic"/>
    </filter>
  </defs>
  <g id="Group_1217641" data-name="Group 1217641" transform="translate(-191.467 -1173.103)">
    <g id="Group_1216251" data-name="Group 1216251">
      <g id="Group_1215747" data-name="Group 1215747" transform="translate(3 -3116.969)">
        <g id="Group_1214376" data-name="Group 1214376" transform="translate(197.467 4296.073)">
          <g id="Group_1207744" data-name="Group 1207744">
            <g id="Group_1206679" data-name="Group 1206679">
              <g id="Group_1183665" data-name="Group 1183665">
                <g id="Group_1181743" data-name="Group 1181743">
                  <g id="Group_1175133" data-name="Group 1175133">
                    <g id="Group_1167337" data-name="Group 1167337">
                      <g id="Group_1166720" data-name="Group 1166720">
                        <g id="Group_1164305" data-name="Group 1164305">
                          <g id="Group_1163948" data-name="Group 1163948">
                            <g id="Group_1158168" data-name="Group 1158168">
                              <g id="Group_1152576" data-name="Group 1152576">
                                <g id="Group_1148633" data-name="Group 1148633">
                                  <g id="Group_1148525" data-name="Group 1148525">
                                    <g transform="matrix(1, 0, 0, 1, -9, -6)" filter="url(#Path_982547)">
                                      <g id="Path_982547-2" data-name="Path 982547" transform="translate(9 6)" fill="#f2f7e5">
                                        <path d="M 37.966796875 74.43359375 C 33.04315185546875 74.43359375 28.26757431030273 73.46962738037109 23.77274131774902 71.56847381591797 C 19.43047523498535 69.73184967041016 15.53040790557861 67.10224914550781 12.18087482452393 63.75271987915039 C 8.831341743469238 60.4031867980957 6.201741218566895 56.50312042236328 4.365118980407715 52.16086196899414 C 2.463963508605957 47.66601943969727 1.499996900558472 42.89044189453125 1.499996900558472 37.966796875 C 1.499996900558472 33.04315185546875 2.463963508605957 28.26757431030273 4.365118980407715 23.77274131774902 C 6.201741218566895 19.43047523498535 8.831341743469238 15.53040790557861 12.18087482452393 12.18087482452393 C 15.53040790557861 8.831341743469238 19.43047523498535 6.201741218566895 23.77274131774902 4.365118980407715 C 28.26757431030273 2.463963508605957 33.04315185546875 1.499996900558472 37.966796875 1.499996900558472 C 42.89044189453125 1.499996900558472 47.66601943969727 2.463963508605957 52.16086196899414 4.365118980407715 C 56.50312042236328 6.201741218566895 60.4031867980957 8.831341743469238 63.75271987915039 12.18087482452393 C 67.10224914550781 15.53040790557861 69.73184967041016 19.43047523498535 71.56847381591797 23.77274131774902 C 73.46962738037109 28.26757431030273 74.43359375 33.04315185546875 74.43359375 37.966796875 C 74.43359375 42.89044189453125 73.46962738037109 47.66601943969727 71.56847381591797 52.16086196899414 C 69.73184967041016 56.50313186645508 67.10224914550781 60.4031867980957 63.75271987915039 63.75271987915039 C 60.4031867980957 67.10224914550781 56.50313186645508 69.73184967041016 52.16086196899414 71.56847381591797 C 47.66601943969727 73.46962738037109 42.89044189453125 74.43359375 37.966796875 74.43359375 Z" stroke="none"/>
                                        <path d="M 37.966796875 3 C 33.2449836730957 3 28.66600799560547 3.924095153808594 24.35705947875977 5.746635437011719 C 20.19359588623047 7.507637023925781 16.45379638671875 10.02928161621094 13.24153518676758 13.24153518676758 C 10.02927398681641 16.45379638671875 7.507621765136719 20.19359588623047 5.746635437011719 24.35705947875977 C 3.924095153808594 28.66600799560547 3 33.2449836730957 3 37.966796875 C 3 42.6886100769043 3.924095153808594 47.26758575439453 5.746635437011719 51.57653427124023 C 7.507621765136719 55.73999786376953 10.02927398681641 59.47979736328125 13.24153518676758 62.69205856323242 C 16.45379638671875 65.90431976318359 20.19359588623047 68.42597198486328 24.35705947875977 70.18695831298828 C 28.66600799560547 72.00949859619141 33.2449836730957 72.93359375 37.966796875 72.93359375 C 42.6886100769043 72.93359375 47.26758575439453 72.00949859619141 51.57653427124023 70.18695831298828 C 55.73999786376953 68.42597198486328 59.47979736328125 65.90431976318359 62.69205856323242 62.69205856323242 C 65.90431976318359 59.47979736328125 68.42597198486328 55.73999786376953 70.18695831298828 51.57653427124023 C 72.00949859619141 47.26758575439453 72.93359375 42.6886100769043 72.93359375 37.966796875 C 72.93359375 33.2449836730957 72.00949859619141 28.66600799560547 70.18695831298828 24.35705947875977 C 68.42597198486328 20.19359588623047 65.90431976318359 16.45379638671875 62.69205856323242 13.24153518676758 C 59.47979736328125 10.02928161621094 55.73999786376953 7.507637023925781 51.57653427124023 5.746635437011719 C 47.26758575439453 3.924095153808594 42.6886100769043 3 37.966796875 3 M 37.966796875 0 C 58.93528366088867 0 75.93359375 16.99832153320312 75.93359375 37.966796875 C 75.93359375 58.93528366088867 58.93528366088867 75.93359375 37.966796875 75.93359375 C 16.99831008911133 75.93359375 0 58.93528366088867 0 37.966796875 C 0 16.99832153320312 16.99831008911133 0 37.966796875 0 Z" stroke="none" fill="#86b60c"/>
                                      </g>
                                    </g>
                                  </g>
                                </g>
                              </g>
                            </g>
                          </g>
                        </g>
                      </g>
                    </g>
                  </g>
                </g>
              </g>
            </g>
          </g>
        </g>
      </g>
      <g id="trabajo-en-equipo_2_" data-name="trabajo-en-equipo (2)" transform="translate(208.327 1177.496)">
        <g id="Group_1216249" data-name="Group 1216249" transform="translate(1.012 1.011)">
          <path id="Path_1086038" data-name="Path 1086038" d="M108.667,268.011v-7.33l-1.145-1.036-.968-.853-4.992-.422-1.214-3.266-4.047-.978-3.283.5s-1.551,4.094-1.619,4.161a2.694,2.694,0,0,1-.458.024l.232.828-.718,2.385v7.15l6,9.781,5.767,4.014,1.392-.062a1.557,1.557,0,0,1,1.4-.583,22.754,22.754,0,0,0,2.51.14l1.145-1.193-.675-6.341-4.407-3.669.989-2.717Z" transform="translate(-79.263 -220.854)" fill="#ce7bbc"/>
          <path id="Path_1086039" data-name="Path 1086039" d="M19.412,289.563c0-.279.005-.557.013-.834-.96.034-4.869-.018-4.869-.018l-1.621.853a22.646,22.646,0,0,0,.138,2.512,1.556,1.556,0,0,1-.95,1.61L8.464,295.2a1.556,1.556,0,0,0-.842,2.033l2.817,6.8a1.556,1.556,0,0,0,2.033.842l3.66-1.516a1.557,1.557,0,0,1,1.812.469,22.678,22.678,0,0,0,3.544,3.542,1.561,1.561,0,0,1,.474,1.817l-1.517,3.662a1.556,1.556,0,0,0,.842,2.033l6.8,2.818a1.556,1.556,0,0,0,2.033-.842L31.64,313.2a1.558,1.558,0,0,1,.217-.368,27.943,27.943,0,0,1-12.444-23.268Z" transform="translate(-7.503 -250.772)" fill="#c464b0"/>
          <path id="Path_1086040" data-name="Path 1086040" d="M212.11,300.67l-3.662-1.517a1.556,1.556,0,0,1-.95-1.612q.092-.826.124-1.662a.821.821,0,0,0-.822-.847h-5.739a1.312,1.312,0,0,0-1.323,1.293,3.692,3.692,0,0,1-3.54,3.72,3.643,3.643,0,0,1-3.745-3.641v-.076a1.3,1.3,0,0,0-1.3-1.3h-6.345v6.345a1.3,1.3,0,0,1-1.3,1.3,3.692,3.692,0,0,0-3.717,3.54,3.643,3.643,0,0,0,3.641,3.745h.076a1.3,1.3,0,0,1,1.3,1.3v6.6a22.634,22.634,0,0,0,2.512-.138,1.556,1.556,0,0,1,1.611.95l1.516,3.66a1.556,1.556,0,0,0,2.033.842l6.8-2.818a1.556,1.556,0,0,0,.842-2.033l-1.516-3.661a1.556,1.556,0,0,1,.467-1.81,22.682,22.682,0,0,0,3.549-3.552,1.557,1.557,0,0,1,1.812-.469l3.662,1.517a1.556,1.556,0,0,0,2.033-.842l2.817-6.8a1.556,1.556,0,0,0-.842-2.033Z" transform="translate(-156.554 -256.241)" fill="#00c2fb"/>
          <path id="Path_1086041" data-name="Path 1086041" d="M112.535,134.441a3.692,3.692,0,0,0-3.717-3.54,1.3,1.3,0,0,1-1.3-1.3v-5.766a.821.821,0,0,0-.846-.822q-.831.031-1.665.123a1.556,1.556,0,0,1-1.393-.581h-1.876s-6.79,7.081-6.79,7.216S91.441,138,91.441,138l-.986,5.262.718,2.562H91.3a1.3,1.3,0,0,0,1.3-1.3,3.692,3.692,0,0,1,3.54-3.717,3.643,3.643,0,0,1,3.745,3.641v.076a1.3,1.3,0,0,0,1.3,1.3h6.345v-6.345a1.3,1.3,0,0,1,1.3-1.3h.076a3.643,3.643,0,0,0,3.641-3.745Z" transform="translate(-79.264 -107.035)" fill="#ffe02f"/>
          <path id="Path_1086042" data-name="Path 1086042" d="M31.857,90.559a1.553,1.553,0,0,1-.218-.369l-1.516-3.66a1.556,1.556,0,0,0-2.033-.842l-6.8,2.817a1.556,1.556,0,0,0-.842,2.033l1.516,3.66a1.557,1.557,0,0,1-.469,1.812,22.677,22.677,0,0,0-3.542,3.544,1.561,1.561,0,0,1-1.817.474l-3.662-1.517a1.556,1.556,0,0,0-2.033.842l-2.818,6.8a1.556,1.556,0,0,0,.842,2.033l3.662,1.517a1.556,1.556,0,0,1,.95,1.612,22.747,22.747,0,0,0-.14,2.51h6.477A27.943,27.943,0,0,1,31.857,90.559Z" transform="translate(-7.502 -75.036)" fill="#fbc700"/>
          <path id="Path_1086043" data-name="Path 1086043" d="M323.173,79.92l-2.817-6.8a1.556,1.556,0,0,0-2.033-.842l-3.66,1.516a1.558,1.558,0,0,1-1.812-.469,22.682,22.682,0,0,0-3.544-3.542,1.562,1.562,0,0,1-.474-1.817l.227-.547h-3.4l-7.105,3.232-.25,2.577a3.625,3.625,0,0,1-1.9,6.725h-.076a1.3,1.3,0,0,0-1.3,1.3V86.77a.822.822,0,0,0,.822.822h5.523a1.3,1.3,0,0,1,1.3,1.3v.076a3.643,3.643,0,0,0,2.209,3.349c.077.033.156.063.236.091a3.641,3.641,0,0,0,1.469.193,3.692,3.692,0,0,0,3.371-3.707h0a1.3,1.3,0,0,1,1.3-1.3h5.767a.82.82,0,0,0,.822-.846q-.03-.832-.123-1.666a1.556,1.556,0,0,1,.95-1.61l3.66-1.516A1.556,1.556,0,0,0,323.173,79.92Z" transform="translate(-256.242 -59.333)" fill="#73d578"/>
          <path id="Path_1086044" data-name="Path 1086044" d="M296.331,20.83a3.756,3.756,0,0,1,1.973.56,20.824,20.824,0,0,1,10.756-5.809l1.29-3.115a1.556,1.556,0,0,0-.842-2.033l-6.8-2.817a1.556,1.556,0,0,0-2.033.842l-1.517,3.662a1.557,1.557,0,0,1-1.612.95q-.826-.092-1.662-.124a.821.821,0,0,0-.848.822v5.765A1.3,1.3,0,0,0,296.331,20.83Z" transform="translate(-256.244 -7.497)" fill="#00c63a"/>
        </g>
        <g id="Group_1216250" data-name="Group 1216250" transform="translate(0 0)">
          <path id="Path_1086045" data-name="Path 1086045" d="M5.246,110.531l-3.66,1.516A2.566,2.566,0,0,0,.2,115.4l2.817,6.8a2.57,2.57,0,0,0,3.355,1.39l3.66-1.516a.542.542,0,0,1,.635.166,23.728,23.728,0,0,0,3.7,3.7.547.547,0,0,1,.171.639l-1.517,3.662a2.57,2.57,0,0,0,1.39,3.355l6.8,2.817a2.571,2.571,0,0,0,3.355-1.39l1.517-3.662a.55.55,0,0,1,.565-.332,23.714,23.714,0,0,0,5.245,0,.548.548,0,0,1,.564.332l1.516,3.66a2.566,2.566,0,0,0,3.355,1.39l1.218-.5a1.012,1.012,0,1,0-.774-1.87l-1.218.5a.544.544,0,0,1-.711-.294l-1.516-3.66a2.581,2.581,0,0,0-2.657-1.569c-.459.051-.923.087-1.388.109v-5.569a2.31,2.31,0,0,0-2.308-2.308,2.628,2.628,0,0,1-2.705-2.705A2.694,2.694,0,0,1,27.975,116a2.31,2.31,0,0,0,2.308-2.308v-5.333h5.333a.284.284,0,0,1,.284.284v.076a4.651,4.651,0,0,0,4.784,4.653,4.724,4.724,0,0,0,4.524-4.732.3.3,0,0,1,.311-.28h5.541c-.022.462-.059.927-.11,1.385A2.581,2.581,0,0,0,52.52,112.4l3.662,1.517a.544.544,0,0,1,.295.711l-2.817,6.8a.544.544,0,0,1-.711.295l-3.662-1.517a2.582,2.582,0,0,0-2.99.772,21.713,21.713,0,0,1-3.391,3.394,2.58,2.58,0,0,0-.769,2.988l1.516,3.66a.543.543,0,0,1-.295.711l-1.221.506a1.012,1.012,0,0,0,.774,1.87l1.221-.506a2.566,2.566,0,0,0,1.39-3.355l-1.516-3.66a.546.546,0,0,1,.164-.633,23.728,23.728,0,0,0,3.708-3.71.548.548,0,0,1,.635-.165l3.662,1.517a2.571,2.571,0,0,0,3.355-1.39l2.817-6.8a2.566,2.566,0,0,0-1.39-3.355l-3.662-1.517a.548.548,0,0,1-.332-.565c.064-.575.108-1.159.13-1.736a1.833,1.833,0,0,0-1.833-1.9H45.519a2.322,2.322,0,0,0-2.334,2.305,2.687,2.687,0,0,1-2.556,2.708,2.629,2.629,0,0,1-2.705-2.63v-.076a2.31,2.31,0,0,0-2.308-2.308H30.283V101a.284.284,0,0,1,.284-.284h.076A4.651,4.651,0,0,0,35.3,95.93a4.725,4.725,0,0,0-4.728-4.525.284.284,0,0,1-.284-.284V85.355a1.847,1.847,0,0,0-.562-1.323,1.807,1.807,0,0,0-1.333-.51c-.579.021-1.165.065-1.74.129a.547.547,0,0,1-.564-.332l-1.516-3.66a2.571,2.571,0,0,0-3.355-1.39l-6.8,2.817a2.566,2.566,0,0,0-1.39,3.355l1.516,3.66a.549.549,0,0,1-.166.635,23.729,23.729,0,0,0-3.7,3.7.547.547,0,0,1-.639.171L6.369,91.093a2.571,2.571,0,0,0-3.355,1.39L.2,99.285a2.571,2.571,0,0,0,1.39,3.355l3.662,1.517a.548.548,0,0,1,.332.565,23.732,23.732,0,0,0,0,5.245.547.547,0,0,1-.332.564ZM2.361,100.77a.545.545,0,0,1-.295-.711l2.817-6.8a.545.545,0,0,1,.711-.295L9.257,94.48a2.587,2.587,0,0,0,2.994-.777,21.708,21.708,0,0,1,3.384-3.386,2.582,2.582,0,0,0,.772-2.99l-1.516-3.66a.544.544,0,0,1,.295-.711l6.8-2.817a.545.545,0,0,1,.711.294l1.516,3.66a2.581,2.581,0,0,0,2.657,1.569c.459-.051.925-.088,1.388-.109v5.569a2.31,2.31,0,0,0,2.308,2.308,2.688,2.688,0,0,1,2.706,2.556,2.629,2.629,0,0,1-2.63,2.705h-.076A2.31,2.31,0,0,0,28.26,101v5.333H22.927a.284.284,0,0,1-.284-.284,4.655,4.655,0,1,0-9.309,0,.284.284,0,0,1-.284.284H7.482c.022-.463.059-.927.11-1.385a2.581,2.581,0,0,0-1.569-2.659Zm3.66,11.63a2.581,2.581,0,0,0,1.569-2.657c-.051-.459-.087-.923-.109-1.388H13.05a2.31,2.31,0,0,0,2.308-2.308,2.632,2.632,0,1,1,5.261,0,2.311,2.311,0,0,0,2.308,2.308h5.333v5.333a.284.284,0,0,1-.284.284,4.726,4.726,0,0,0-4.728,4.524,4.648,4.648,0,0,0,4.728,4.785.284.284,0,0,1,.284.284v5.568c-.464-.022-.927-.059-1.386-.11a2.58,2.58,0,0,0-2.659,1.569L22.7,134.254a.544.544,0,0,1-.711.295l-6.8-2.817a.545.545,0,0,1-.295-.711l1.517-3.662a2.587,2.587,0,0,0-.777-2.994,21.715,21.715,0,0,1-3.386-3.384,2.582,2.582,0,0,0-2.989-.772l-3.66,1.516a.545.545,0,0,1-.711-.294l-2.817-6.8a.544.544,0,0,1,.295-.711Z" transform="translate(0 -67.541)"/>
          <path id="Path_1086046" data-name="Path 1086046" d="M301.414,9.256a2.587,2.587,0,0,0,.777,2.994,21.713,21.713,0,0,1,3.386,3.384,2.583,2.583,0,0,0,2.99.772l3.66-1.516a.545.545,0,0,1,.711.295l.466,1.125a1.012,1.012,0,0,0,1.87-.774l-.466-1.125a2.571,2.571,0,0,0-3.355-1.39l-3.66,1.516a.549.549,0,0,1-.635-.166,23.742,23.742,0,0,0-3.7-3.7.547.547,0,0,1-.172-.64L304.8,6.368a2.571,2.571,0,0,0-1.39-3.355L296.608.2a2.571,2.571,0,0,0-3.355,1.39l-1.517,3.662a.549.549,0,0,1-.565.332c-.574-.064-1.158-.108-1.736-.13a1.833,1.833,0,0,0-1.9,1.833v5.766a2.31,2.31,0,0,0,2.308,2.308,2.688,2.688,0,0,1,2.706,2.556,2.628,2.628,0,0,1-2.706,2.705,2.31,2.31,0,0,0-2.308,2.308v5.523a1.836,1.836,0,0,0,1.834,1.834h5.523a.284.284,0,0,1,.284.284,4.653,4.653,0,0,0,5,4.718,4.712,4.712,0,0,0,4.309-4.718.284.284,0,0,1,.284-.284h5.767a1.833,1.833,0,0,0,1.833-1.9c-.021-.579-.065-1.164-.128-1.74a.547.547,0,0,1,.332-.564l3.66-1.516a2.571,2.571,0,0,0,1.39-3.355l-.544-1.313a1.012,1.012,0,1,0-1.87.775l.544,1.313a.545.545,0,0,1-.294.711l-3.66,1.516a2.581,2.581,0,0,0-1.569,2.657c.051.46.087.926.109,1.389h-5.569a2.31,2.31,0,0,0-2.307,2.309,2.68,2.68,0,0,1-2.434,2.7,2.63,2.63,0,0,1-2.828-2.7,2.31,2.31,0,0,0-2.308-2.307h-5.333V22.926a.284.284,0,0,1,.284-.284h.076a4.651,4.651,0,0,0,4.652-4.784,4.725,4.725,0,0,0-4.728-4.524.284.284,0,0,1-.284-.284V7.481c.462.022.927.059,1.385.11a2.58,2.58,0,0,0,2.659-1.569l1.517-3.662a.545.545,0,0,1,.711-.295l6.8,2.817a.544.544,0,0,1,.295.711Z" transform="translate(-248.746 0)"/>
        </g>
      </g>
    </g>
  </g>
</svg>
