<svg xmlns="http://www.w3.org/2000/svg" xmlns:xlink="http://www.w3.org/1999/xlink" width="103" height="103" viewBox="0 0 103 103">
  <defs>
    <filter id="Path_978624" x="0" y="0" width="103" height="103" filterUnits="userSpaceOnUse">
      <feOffset dy="3" input="SourceAlpha"/>
      <feGaussianBlur stdDeviation="3" result="blur"/>
      <feFlood flood-opacity="0.161"/>
      <feComposite operator="in" in2="blur"/>
      <feComposite in="SourceGraphic"/>
    </filter>
  </defs>
  <g id="Group_1217669" data-name="Group 1217669" transform="translate(-191 -2416)">
    <g id="Group_1216643" data-name="Group 1216643">
      <g id="Group_1215797" data-name="Group 1215797" transform="translate(200 2422)">
        <g id="Group_1208646" data-name="Group 1208646">
          <g id="Group_1180764" data-name="Group 1180764">
            <g id="Group_1179463" data-name="Group 1179463">
              <g id="Group_1144531" data-name="Group 1144531">
                <g transform="matrix(1, 0, 0, 1, -9, -6)" filter="url(#Path_978624)">
                  <g id="Path_978624-2" data-name="Path 978624" transform="translate(9 6)" fill="#fff4e6">
                    <path d="M 42.5 83.5 C 36.96437835693359 83.5 31.59512901306152 82.41617584228516 26.54141235351562 80.27863311767578 C 21.65934181213379 78.21369171142578 17.27447128295898 75.25723266601562 13.50862312316895 71.49137878417969 C 9.742764472961426 67.72553253173828 6.786305904388428 63.34066009521484 4.721364498138428 58.45858764648438 C 2.583823442459106 53.40486907958984 1.5 48.03562164306641 1.5 42.5 C 1.5 36.96437835693359 2.583823442459106 31.59512901306152 4.721364498138428 26.54141235351562 C 6.786305904388428 21.65934181213379 9.742764472961426 17.27447128295898 13.50862312316895 13.50862312316895 C 17.27447128295898 9.742764472961426 21.65934181213379 6.786305904388428 26.54141235351562 4.721364498138428 C 31.59512901306152 2.583823442459106 36.96437835693359 1.5 42.5 1.5 C 48.03562164306641 1.5 53.40486907958984 2.583823442459106 58.45858764648438 4.721364498138428 C 63.34066009521484 6.786305904388428 67.72553253173828 9.742764472961426 71.49137878417969 13.50862312316895 C 75.25723266601562 17.27447128295898 78.21369171142578 21.65934181213379 80.27863311767578 26.54141235351562 C 82.41617584228516 31.59512901306152 83.5 36.96437835693359 83.5 42.5 C 83.5 48.03562164306641 82.41617584228516 53.40486907958984 80.27863311767578 58.45858764648438 C 78.21369171142578 63.34066009521484 75.25723266601562 67.72553253173828 71.49137878417969 71.49137878417969 C 67.72553253173828 75.25723266601562 63.34066009521484 78.21369171142578 58.45858764648438 80.27863311767578 C 53.40486907958984 82.41617584228516 48.03562164306641 83.5 42.5 83.5 Z" stroke="none"/>
                    <path d="M 42.5 3 C 37.16621398925781 3 31.99356079101562 4.043960571289062 27.125732421875 6.102882385253906 C 22.42246627807617 8.092185974121094 18.19785308837891 10.94070434570312 14.56928253173828 14.56928253173828 C 10.94070434570312 18.19785308837891 8.092185974121094 22.42246627807617 6.102882385253906 27.125732421875 C 4.043960571289062 31.99356079101562 3 37.16621398925781 3 42.5 C 3 47.83378601074219 4.043960571289062 53.00643920898438 6.102882385253906 57.87425231933594 C 8.092185974121094 62.57753372192383 10.94070434570312 66.80213165283203 14.56928253173828 70.43071746826172 C 18.19786834716797 74.05929565429688 22.42246627807617 76.90781402587891 27.125732421875 78.89711761474609 C 31.99356079101562 80.95603942871094 37.16621398925781 82 42.5 82 C 47.83378601074219 82 53.00642395019531 80.95603942871094 57.87425231933594 78.89711761474609 C 62.57753372192383 76.90781402587891 66.80213165283203 74.05929565429688 70.43071746826172 70.43071746826172 C 74.05929565429688 66.80213165283203 76.90781402587891 62.57753372192383 78.89711761474609 57.87425231933594 C 80.95603942871094 53.00642395019531 82 47.83378601074219 82 42.5 C 82 37.16621398925781 80.95603942871094 31.99356079101562 78.89711761474609 27.125732421875 C 76.90781402587891 22.42246627807617 74.05929565429688 18.19786834716797 70.43071746826172 14.56928253173828 C 66.80213165283203 10.94070434570312 62.57753372192383 8.092185974121094 57.87425231933594 6.102882385253906 C 53.00643920898438 4.043960571289062 47.83378601074219 3 42.5 3 M 42.5 0 C 65.97209167480469 0 85 19.02789306640625 85 42.5 C 85 65.97209167480469 65.97209167480469 85 42.5 85 C 19.02789306640625 85 0 65.97209167480469 0 42.5 C 0 19.02789306640625 19.02789306640625 0 42.5 0 Z" stroke="none" fill="#ff9d1c"/>
                  </g>
                </g>
              </g>
            </g>
          </g>
        </g>
      </g>
      <g id="red" transform="translate(205.364 2427.364)">
        <g id="Group_1216615" data-name="Group 1216615" transform="translate(55.013 46.807)">
          <g id="Group_1216611" data-name="Group 1216611" transform="translate(0 11.723)">
            <path id="Path_1086711" data-name="Path 1086711" d="M379.24,408.759v6.448h18.17v-6.448a5.275,5.275,0,0,0-5.275-5.275h-7.62A5.275,5.275,0,0,0,379.24,408.759Z" transform="translate(-379.24 -403.484)" fill="#e69642"/>
          </g>
          <g id="Group_1216612" data-name="Group 1216612" transform="translate(9.085 11.723)">
            <path id="Path_1086712" data-name="Path 1086712" d="M445.68,403.484h-3.81a5.275,5.275,0,0,1,5.275,5.275v6.448h3.81v-6.448A5.275,5.275,0,0,0,445.68,403.484Z" transform="translate(-441.87 -403.484)" fill="#e38523"/>
          </g>
          <g id="Group_1216613" data-name="Group 1216613" transform="translate(3.224)">
            <circle id="Ellipse_14388" data-name="Ellipse 14388" cx="5.862" cy="5.862" r="5.862" fill="#fed2a4"/>
          </g>
          <g id="Group_1216614" data-name="Group 1216614" transform="translate(3.912 0.688)">
            <path id="Path_1086713" data-name="Path 1086713" d="M414.135,327.413a5.862,5.862,0,0,1-7.929,7.929,5.862,5.862,0,1,0,7.929-7.929Z" transform="translate(-406.206 -327.413)" fill="#ffbd86"/>
          </g>
        </g>
        <g id="Group_1216620" data-name="Group 1216620" transform="translate(1.088 46.807)">
          <g id="Group_1216616" data-name="Group 1216616" transform="translate(0 11.723)">
            <path id="Path_1086714" data-name="Path 1086714" d="M7.5,408.759v6.448H25.671v-6.448a5.275,5.275,0,0,0-5.275-5.275h-7.62A5.275,5.275,0,0,0,7.5,408.759Z" transform="translate(-7.5 -403.484)" fill="#ad7fdd"/>
          </g>
          <g id="Group_1216617" data-name="Group 1216617" transform="translate(9.085 11.723)">
            <path id="Path_1086715" data-name="Path 1086715" d="M73.94,403.484H70.13a5.275,5.275,0,0,1,5.275,5.275v6.448h3.81v-6.448A5.275,5.275,0,0,0,73.94,403.484Z" transform="translate(-70.13 -403.484)" fill="#9d66d6"/>
          </g>
          <g id="Group_1216618" data-name="Group 1216618" transform="translate(3.224)">
            <circle id="Ellipse_14389" data-name="Ellipse 14389" cx="5.862" cy="5.862" r="5.862" fill="#fed2a4"/>
          </g>
          <g id="Group_1216619" data-name="Group 1216619" transform="translate(3.912 0.688)">
            <path id="Path_1086716" data-name="Path 1086716" d="M42.394,327.413a5.862,5.862,0,0,1-7.929,7.929,5.862,5.862,0,1,0,7.929-7.929Z" transform="translate(-34.465 -327.413)" fill="#ffbd86"/>
          </g>
        </g>
        <g id="Group_1216625" data-name="Group 1216625" transform="translate(55.013 4.019)">
          <g id="Group_1216621" data-name="Group 1216621" transform="translate(0 11.723)">
            <path id="Path_1086717" data-name="Path 1086717" d="M379.24,113.791v6.448h18.17v-6.448a5.275,5.275,0,0,0-5.275-5.275h-7.62A5.275,5.275,0,0,0,379.24,113.791Z" transform="translate(-379.24 -108.516)" fill="#62a4fb"/>
          </g>
          <g id="Group_1216622" data-name="Group 1216622" transform="translate(9.085 11.723)">
            <path id="Path_1086718" data-name="Path 1086718" d="M445.68,108.516h-3.81a5.275,5.275,0,0,1,5.275,5.275v6.448h3.81v-6.448A5.275,5.275,0,0,0,445.68,108.516Z" transform="translate(-441.87 -108.516)" fill="#5392f9"/>
          </g>
          <g id="Group_1216623" data-name="Group 1216623" transform="translate(3.224)">
            <circle id="Ellipse_14390" data-name="Ellipse 14390" cx="5.862" cy="5.862" r="5.862" fill="#fed2a4"/>
          </g>
          <g id="Group_1216624" data-name="Group 1216624" transform="translate(3.912 0.688)">
            <path id="Path_1086719" data-name="Path 1086719" d="M414.135,32.445a5.862,5.862,0,0,1-7.929,7.929,5.862,5.862,0,1,0,7.929-7.929Z" transform="translate(-406.206 -32.445)" fill="#ffbd86"/>
          </g>
        </g>
        <g id="Group_1216630" data-name="Group 1216630" transform="translate(1.088 4.019)">
          <g id="Group_1216626" data-name="Group 1216626" transform="translate(0 11.723)">
            <path id="Path_1086720" data-name="Path 1086720" d="M7.5,113.791v6.448H25.671v-6.448a5.275,5.275,0,0,0-5.275-5.275h-7.62A5.275,5.275,0,0,0,7.5,113.791Z" transform="translate(-7.5 -108.516)" fill="#e175a5"/>
          </g>
          <g id="Group_1216627" data-name="Group 1216627" transform="translate(9.085 11.723)">
            <path id="Path_1086721" data-name="Path 1086721" d="M73.94,108.516H70.13a5.275,5.275,0,0,1,5.275,5.275v6.448h3.81v-6.448A5.275,5.275,0,0,0,73.94,108.516Z" transform="translate(-70.13 -108.516)" fill="#de5791"/>
          </g>
          <g id="Group_1216628" data-name="Group 1216628" transform="translate(3.224)">
            <circle id="Ellipse_14391" data-name="Ellipse 14391" cx="5.862" cy="5.862" r="5.862" fill="#fed2a4"/>
          </g>
          <g id="Group_1216629" data-name="Group 1216629" transform="translate(3.912 0.688)">
            <path id="Path_1086722" data-name="Path 1086722" d="M42.394,32.445a5.862,5.862,0,0,1-7.929,7.929,5.862,5.862,0,1,0,7.929-7.929Z" transform="translate(-34.465 -32.445)" fill="#ffbd86"/>
          </g>
        </g>
        <g id="Group_1216637" data-name="Group 1216637" transform="translate(26.486 26.486)">
          <g id="Group_1216633" data-name="Group 1216633">
            <g id="Group_1216631" data-name="Group 1216631">
              <circle id="Ellipse_14392" data-name="Ellipse 14392" cx="10.65" cy="10.65" r="10.65" fill="#a2f5c3"/>
            </g>
            <g id="Group_1216632" data-name="Group 1216632" transform="translate(1.685 1.685)">
              <path id="Path_1086723" data-name="Path 1086723" d="M208.915,194.2a10.647,10.647,0,0,1-14.71,14.71,10.648,10.648,0,1,0,14.71-14.71Z" transform="translate(-194.204 -194.204)" fill="#88f2a9"/>
            </g>
          </g>
          <g id="Group_1216636" data-name="Group 1216636" transform="translate(5.227 6.142)">
            <g id="Group_1216635" data-name="Group 1216635">
              <g id="Group_1216634" data-name="Group 1216634">
                <path id="Path_1086724" data-name="Path 1086724" d="M222.793,233.944a2.344,2.344,0,0,1-1.658-.687l-1.832-1.832a2.345,2.345,0,0,1,3.316-3.316l.174.174,2.667-2.667a2.344,2.344,0,1,1,3.316,3.316l-4.325,4.325A2.344,2.344,0,0,1,222.793,233.944Z" transform="translate(-218.616 -224.93)" fill="#e6f7fe"/>
              </g>
            </g>
          </g>
        </g>
        <g id="Group_1216638" data-name="Group 1216638" transform="translate(33.326 1.088)">
          <circle id="Ellipse_14393" data-name="Ellipse 14393" cx="3.81" cy="3.81" r="3.81" fill="#a2f5c3"/>
        </g>
        <g id="Group_1216639" data-name="Group 1216639" transform="translate(65.564 33.326)">
          <circle id="Ellipse_14394" data-name="Ellipse 14394" cx="3.81" cy="3.81" r="3.81" fill="#a2f5c3"/>
        </g>
        <g id="Group_1216640" data-name="Group 1216640" transform="translate(1.088 33.326)">
          <circle id="Ellipse_14395" data-name="Ellipse 14395" cx="3.81" cy="3.81" r="3.81" fill="#a2f5c3"/>
        </g>
        <g id="Group_1216641" data-name="Group 1216641" transform="translate(33.326 65.564)">
          <circle id="Ellipse_14396" data-name="Ellipse 14396" cx="3.81" cy="3.81" r="3.81" fill="#a2f5c3"/>
        </g>
        <g id="Group_1216642" data-name="Group 1216642" transform="translate(0 0)">
          <path id="Path_1086725" data-name="Path 1086725" d="M73.184,28.552a1.088,1.088,0,0,0,1.088-1.088V21.017a6.372,6.372,0,0,0-5.228-6.26A6.948,6.948,0,1,0,57.149,9.88c0,.212.011.422.03.629a33.183,33.183,0,0,0-15.2-6.348,4.9,4.9,0,0,0-9.685,0,33.18,33.18,0,0,0-15.2,6.348c.019-.207.03-.417.03-.629A6.949,6.949,0,1,0,5.229,14.758,6.372,6.372,0,0,0,0,21.017v6.448a1.088,1.088,0,0,0,1.088,1.088h3.84a33.248,33.248,0,0,0-.768,3.741,4.9,4.9,0,0,0,0,9.685,33.225,33.225,0,0,0,1.313,5.577,6.936,6.936,0,0,0-.245,9.991A6.372,6.372,0,0,0,0,63.806v6.448a1.088,1.088,0,0,0,1.088,1.088H19.258a1.088,1.088,0,0,0,1.088-1.088V65.927a33.388,33.388,0,0,0,11.947,4.186,4.9,4.9,0,0,0,9.685,0,33.387,33.387,0,0,0,11.947-4.186v4.327a1.088,1.088,0,0,0,1.088,1.088h6a1.088,1.088,0,1,0,0-2.176H56.1v-5.36a4.193,4.193,0,0,1,4.188-4.188h7.619A4.193,4.193,0,0,1,72.1,63.806v5.36h-6a1.088,1.088,0,0,0,0,2.176h7.091a1.088,1.088,0,0,0,1.088-1.088V63.806a6.373,6.373,0,0,0-5.228-6.26,6.936,6.936,0,0,0-.246-9.99,33.229,33.229,0,0,0,1.313-5.577,4.9,4.9,0,0,0,0-9.685,33.247,33.247,0,0,0-.768-3.741ZM72.1,21.017v5.36H56.1v-5.36a4.192,4.192,0,0,1,4.187-4.187h7.62A4.192,4.192,0,0,1,72.1,21.017Zm-8-15.91A4.773,4.773,0,1,1,59.325,9.88,4.779,4.779,0,0,1,64.1,5.107ZM37.136,2.176A2.722,2.722,0,1,1,34.414,4.9,2.725,2.725,0,0,1,37.136,2.176ZM10.173,5.107A4.773,4.773,0,1,1,5.4,9.88a4.779,4.779,0,0,1,4.773-4.774Zm-8,32.029A2.722,2.722,0,1,1,4.9,39.858a2.725,2.725,0,0,1-2.722-2.722Zm8,10.759A4.774,4.774,0,1,1,5.4,52.669,4.779,4.779,0,0,1,10.173,47.9Zm-8,21.27v-5.36a4.192,4.192,0,0,1,4.187-4.187h7.62a4.192,4.192,0,0,1,4.187,4.187v5.36ZM37.136,72.1a2.722,2.722,0,1,1,2.722-2.722A2.725,2.725,0,0,1,37.136,72.1ZM64.121,57.442h-.045a4.773,4.773,0,1,1,.045,0ZM72.1,37.136a2.722,2.722,0,1,1-2.722-2.722A2.725,2.725,0,0,1,72.1,37.136Zm-4.161-4.682a4.9,4.9,0,0,0,0,9.363,31.07,31.07,0,0,1-1.026,4.5,6.945,6.945,0,0,0-7.755,11.23,6.374,6.374,0,0,0-5.211,5.817,31.183,31.183,0,0,1-12.125,4.573,4.9,4.9,0,0,0-9.364,0,31.185,31.185,0,0,1-12.125-4.573,6.373,6.373,0,0,0-5.211-5.817A6.945,6.945,0,0,0,7.364,46.315a31.071,31.071,0,0,1-1.026-4.5,4.9,4.9,0,0,0,0-9.363,31.039,31.039,0,0,1,.848-3.9h2.2a1.088,1.088,0,1,0,0-2.176H2.176v-5.36A4.192,4.192,0,0,1,6.364,16.83h7.619a4.192,4.192,0,0,1,4.188,4.187v5.36H14.464a1.088,1.088,0,1,0,0,2.176h4.794a1.088,1.088,0,0,0,1.088-1.088V21.017a6.372,6.372,0,0,0-4.939-6.2A31.049,31.049,0,0,1,32.454,6.338a4.9,4.9,0,0,0,9.363,0,31.049,31.049,0,0,1,17.046,8.479,6.373,6.373,0,0,0-4.938,6.2v6.448a1.088,1.088,0,0,0,1.088,1.088H67.087A31.03,31.03,0,0,1,67.935,32.454Z" transform="translate(0 0)"/>
          <path id="Path_1086726" data-name="Path 1086726" d="M195.364,180.367a1.088,1.088,0,0,0-.363,1.5,9.555,9.555,0,1,1-3.208-3.208,1.088,1.088,0,0,0,1.132-1.858,11.731,11.731,0,1,0,3.934,3.935A1.088,1.088,0,0,0,195.364,180.367Z" transform="translate(-149.692 -149.691)"/>
          <path id="Path_1086727" data-name="Path 1086727" d="M220.706,217.43a3.409,3.409,0,0,0-2.427,1.005l-1.971,1.971a3.433,3.433,0,0,0-4.186,5.376l1.832,1.832a3.432,3.432,0,0,0,4.854,0l4.325-4.325a3.433,3.433,0,0,0-2.427-5.86Zm.888,4.321-4.325,4.325a1.256,1.256,0,0,1-1.777,0l-1.832-1.832a1.257,1.257,0,1,1,1.777-1.777l.174.174a1.088,1.088,0,0,0,1.539,0l2.667-2.667a1.257,1.257,0,1,1,1.777,1.777Z" transform="translate(-180.492 -185.889)"/>
          <path id="Path_1086728" data-name="Path 1086728" d="M249.588,95.382a1.088,1.088,0,0,0,1.088-1.088V85.941a1.088,1.088,0,1,0-2.176,0v8.353A1.088,1.088,0,0,0,249.588,95.382Z" transform="translate(-212.452 -72.544)"/>
          <path id="Path_1086729" data-name="Path 1086729" d="M354.567,249.588a1.088,1.088,0,0,0,1.088,1.088h8.353a1.088,1.088,0,1,0,0-2.176h-8.353A1.088,1.088,0,0,0,354.567,249.588Z" transform="translate(-303.133 -212.452)"/>
          <path id="Path_1086730" data-name="Path 1086730" d="M249.588,354.567a1.088,1.088,0,0,0-1.088,1.088v8.353a1.088,1.088,0,1,0,2.176,0v-8.353A1.088,1.088,0,0,0,249.588,354.567Z" transform="translate(-212.452 -303.133)"/>
          <path id="Path_1086731" data-name="Path 1086731" d="M94.295,248.5H85.942a1.088,1.088,0,1,0,0,2.176h8.353a1.088,1.088,0,1,0,0-2.176Z" transform="translate(-72.545 -212.452)"/>
        </g>
      </g>
    </g>
  </g>
</svg>
