<svg xmlns="http://www.w3.org/2000/svg" xmlns:xlink="http://www.w3.org/1999/xlink" width="93.934" height="93.934" viewBox="0 0 93.934 93.934">
  <defs>
    <filter id="Path_982547" x="0" y="0" width="93.934" height="93.934" filterUnits="userSpaceOnUse">
      <feOffset dy="3" input="SourceAlpha"/>
      <feGaussianBlur stdDeviation="3" result="blur"/>
      <feFlood flood-opacity="0.161"/>
      <feComposite operator="in" in2="blur"/>
      <feComposite in="SourceGraphic"/>
    </filter>
  </defs>
  <g id="Group_1217673" data-name="Group 1217673" transform="translate(-615.5 -3253.533)">
    <g id="Group_1216647" data-name="Group 1216647">
      <g id="Group_1215800" data-name="Group 1215800" transform="translate(0 -2743)">
        <g id="Group_1214401" data-name="Group 1214401" transform="translate(6.5 5099.669)">
          <g id="Group_1206326" data-name="Group 1206326" transform="translate(420 -3717.169)">
            <g id="Group_1183815" data-name="Group 1183815" transform="translate(0 4267.973)">
              <g id="Group_1181939" data-name="Group 1181939" transform="translate(0 -388.939)">
                <g id="Group_1175133" data-name="Group 1175133" transform="translate(-0.033 -1251)">
                  <g id="Group_1167337" data-name="Group 1167337" transform="translate(198.033 1992)">
                    <g id="Group_1166720" data-name="Group 1166720">
                      <g id="Group_1164305" data-name="Group 1164305">
                        <g id="Group_1163948" data-name="Group 1163948">
                          <g id="Group_1158168" data-name="Group 1158168">
                            <g id="Group_1152576" data-name="Group 1152576">
                              <g id="Group_1148633" data-name="Group 1148633">
                                <g id="Group_1148525" data-name="Group 1148525">
                                  <g transform="matrix(1, 0, 0, 1, -9, -6)" filter="url(#Path_982547)">
                                    <g id="Path_982547-2" data-name="Path 982547" transform="translate(9 6)" fill="#f2f7e5">
                                      <path d="M 37.966796875 74.43359375 C 33.04315185546875 74.43359375 28.26757431030273 73.46962738037109 23.77274131774902 71.56847381591797 C 19.43047523498535 69.73184967041016 15.53040790557861 67.10224914550781 12.18087482452393 63.75271987915039 C 8.831341743469238 60.4031867980957 6.201741218566895 56.50312042236328 4.365118980407715 52.16086196899414 C 2.463963508605957 47.66601943969727 1.499996900558472 42.89044189453125 1.499996900558472 37.966796875 C 1.499996900558472 33.04315185546875 2.463963508605957 28.26757431030273 4.365118980407715 23.77274131774902 C 6.201741218566895 19.43047523498535 8.831341743469238 15.53040790557861 12.18087482452393 12.18087482452393 C 15.53040790557861 8.831341743469238 19.43047523498535 6.201741218566895 23.77274131774902 4.365118980407715 C 28.26757431030273 2.463963508605957 33.04315185546875 1.499996900558472 37.966796875 1.499996900558472 C 42.89044189453125 1.499996900558472 47.66601943969727 2.463963508605957 52.16086196899414 4.365118980407715 C 56.50312042236328 6.201741218566895 60.4031867980957 8.831341743469238 63.75271987915039 12.18087482452393 C 67.10224914550781 15.53040790557861 69.73184967041016 19.43047523498535 71.56847381591797 23.77274131774902 C 73.46962738037109 28.26757431030273 74.43359375 33.04315185546875 74.43359375 37.966796875 C 74.43359375 42.89044189453125 73.46962738037109 47.66601943969727 71.56847381591797 52.16086196899414 C 69.73184967041016 56.50313186645508 67.10224914550781 60.4031867980957 63.75271987915039 63.75271987915039 C 60.4031867980957 67.10224914550781 56.50313186645508 69.73184967041016 52.16086196899414 71.56847381591797 C 47.66601943969727 73.46962738037109 42.89044189453125 74.43359375 37.966796875 74.43359375 Z" stroke="none"/>
                                      <path d="M 37.966796875 3 C 33.2449836730957 3 28.66600799560547 3.924095153808594 24.35705947875977 5.746635437011719 C 20.19359588623047 7.507637023925781 16.45379638671875 10.02928161621094 13.24153518676758 13.24153518676758 C 10.02927398681641 16.45379638671875 7.507621765136719 20.19359588623047 5.746635437011719 24.35705947875977 C 3.924095153808594 28.66600799560547 3 33.2449836730957 3 37.966796875 C 3 42.6886100769043 3.924095153808594 47.26758575439453 5.746635437011719 51.57653427124023 C 7.507621765136719 55.73999786376953 10.02927398681641 59.47979736328125 13.24153518676758 62.69205856323242 C 16.45379638671875 65.90431976318359 20.19359588623047 68.42597198486328 24.35705947875977 70.18695831298828 C 28.66600799560547 72.00949859619141 33.2449836730957 72.93359375 37.966796875 72.93359375 C 42.6886100769043 72.93359375 47.26758575439453 72.00949859619141 51.57653427124023 70.18695831298828 C 55.73999786376953 68.42597198486328 59.47979736328125 65.90431976318359 62.69205856323242 62.69205856323242 C 65.90431976318359 59.47979736328125 68.42597198486328 55.73999786376953 70.18695831298828 51.57653427124023 C 72.00949859619141 47.26758575439453 72.93359375 42.6886100769043 72.93359375 37.966796875 C 72.93359375 33.2449836730957 72.00949859619141 28.66600799560547 70.18695831298828 24.35705947875977 C 68.42597198486328 20.19359588623047 65.90431976318359 16.45379638671875 62.69205856323242 13.24153518676758 C 59.47979736328125 10.02928161621094 55.73999786376953 7.507637023925781 51.57653427124023 5.746635437011719 C 47.26758575439453 3.924095153808594 42.6886100769043 3 37.966796875 3 M 37.966796875 0 C 58.93528366088867 0 75.93359375 16.99832153320312 75.93359375 37.966796875 C 75.93359375 58.93528366088867 58.93528366088867 75.93359375 37.966796875 75.93359375 C 16.99831008911133 75.93359375 0 58.93528366088867 0 37.966796875 C 0 16.99832153320312 16.99831008911133 0 37.966796875 0 Z" stroke="none" fill="#86b60c"/>
                                    </g>
                                  </g>
                                </g>
                              </g>
                            </g>
                          </g>
                        </g>
                      </g>
                    </g>
                  </g>
                </g>
              </g>
            </g>
          </g>
        </g>
      </g>
      <g id="unido" transform="translate(638.686 3273.719)">
        <g id="Group_1216646" data-name="Group 1216646" transform="translate(0.697 0.697)">
          <path id="Path_1086750" data-name="Path 1086750" d="M39.839,10.858V21.612H31.647a2.079,2.079,0,0,0-1.722.922c-.991,1.47-4.219,2.781-8.168,3.963V21.475H10.9a1.747,1.747,0,1,1,0-3.494h-1.5a1.747,1.747,0,1,1,0-3.494h1.5a1.747,1.747,0,1,1,0-3.494h1.451a1.747,1.747,0,1,1,0-3.494H25.347a5.513,5.513,0,0,1,4.578,2.437,2.081,2.081,0,0,0,1.722.922Z" transform="translate(-7.645 -7.5)" fill="#ffcebf"/>
          <path id="Path_1086751" data-name="Path 1086751" d="M338.85,43.65h1.413V54.4H338.85Z" transform="translate(-308.07 -40.292)" fill="#ffb09e"/>
          <path id="Path_1086752" data-name="Path 1086752" d="M14.488,188.373v-1.5a1.747,1.747,0,0,1-3.494,0v-1.451a1.747,1.747,0,0,1-3.494,0V172.433a5.512,5.512,0,0,1,2.436-4.577,2.079,2.079,0,0,0,.922-1.722v-8.191H21.612v8.191a2.079,2.079,0,0,0,.922,1.722c1.47.991,2.781,4.22,3.963,8.168H21.476v10.854a1.747,1.747,0,0,1-3.494,0v1.5a1.747,1.747,0,0,1-3.494,0Z" transform="translate(-7.501 -143.967)" fill="#ffeee6"/>
          <path id="Path_1086753" data-name="Path 1086753" d="M131.53,331.141h.286v12.805a1.774,1.774,0,0,1-1.705,1.788,1.732,1.732,0,0,1-.97-.267,1.744,1.744,0,0,0,.817-1.479V332.713A1.572,1.572,0,0,1,131.53,331.141Z" transform="translate(-117.84 -301.077)" fill="#ffdfcf"/>
          <path id="Path_1086754" data-name="Path 1086754" d="M146.152,176.022h-1.858c-1.182-3.949-2.493-7.177-3.963-8.168a2.079,2.079,0,0,1-.921-1.722V157.94h1.858v8.191a2.079,2.079,0,0,0,.921,1.722C143.659,168.845,144.971,172.073,146.152,176.022Z" transform="translate(-127.156 -143.965)" fill="#ffdfcf"/>
          <path id="Path_1086755" data-name="Path 1086755" d="M188.373,312.018h-1.5a1.747,1.747,0,1,1,0,3.494h-1.451a1.747,1.747,0,1,1,0,3.494H172.433a5.512,5.512,0,0,1-4.577-2.436,2.079,2.079,0,0,0-1.722-.922h-8.191V304.895h8.191a2.079,2.079,0,0,0,1.722-.922c.991-1.47,4.22-2.781,8.168-3.963v5.021h10.854a1.747,1.747,0,0,1,0,3.494h1.5a1.747,1.747,0,0,1,0,3.494Z" transform="translate(-143.967 -272.837)" fill="#ffcebf"/>
          <path id="Path_1086756" data-name="Path 1086756" d="M438.614,361.048H437.12a1.747,1.747,0,0,1,0,3.494h-1.452a1.747,1.747,0,1,1,0,3.494H433.81a1.747,1.747,0,1,0,0-3.494h1.452a1.747,1.747,0,0,0,0-3.494h1.495a1.747,1.747,0,1,0,0-3.494h-1.495a1.747,1.747,0,0,0,0-3.494h1.858a1.747,1.747,0,0,1,0,3.494h1.495a1.747,1.747,0,1,1,0,3.494Z" transform="translate(-394.208 -321.867)" fill="#ffb09e"/>
          <path id="Path_1086757" data-name="Path 1086757" d="M312.018,9.408v1.5a1.747,1.747,0,1,1,3.494,0v1.451a1.747,1.747,0,1,1,3.494,0V25.348a5.512,5.512,0,0,1-2.436,4.577,2.079,2.079,0,0,0-.922,1.722v8.191H304.895V31.648a2.079,2.079,0,0,0-.922-1.722c-1.47-.991-2.781-4.22-3.963-8.168h5.021V10.9a1.747,1.747,0,0,1,3.494,0v-1.5a1.747,1.747,0,0,1,3.494,0Z" transform="translate(-272.838 -7.646)" fill="#ffdfcf"/>
          <path id="Path_1086758" data-name="Path 1086758" d="M453.566,41.127V54.12a5.513,5.513,0,0,1-2.437,4.578,2.081,2.081,0,0,0-.922,1.722v8.191H448.35V60.421a2.081,2.081,0,0,1,.922-1.722,5.513,5.513,0,0,0,2.437-4.578V41.127a1.739,1.739,0,0,0-.512-1.235,1.692,1.692,0,0,0-.307-.244,1.747,1.747,0,0,1,2.676,1.48Z" transform="translate(-407.398 -36.419)" fill="#ffcebf"/>
        </g>
        <path id="Path_1086759" data-name="Path 1086759" d="M44.818,23.554A6.211,6.211,0,0,0,47.562,18.4V5.405a2.443,2.443,0,0,0-3.6-2.154,2.443,2.443,0,0,0-3.483-1.457,2.444,2.444,0,0,0-4.7,0,2.443,2.443,0,0,0-3.512,1.564H24.7a1.382,1.382,0,0,1-1.145-.614A6.211,6.211,0,0,0,18.4,0H5.405A2.443,2.443,0,0,0,3.251,3.6,2.443,2.443,0,0,0,1.794,7.08a2.444,2.444,0,0,0,0,4.7,2.443,2.443,0,0,0,1.564,3.512v7.568a1.382,1.382,0,0,1-.614,1.145A6.211,6.211,0,0,0,0,29.163V42.156A2.443,2.443,0,0,0,3.6,44.31a2.443,2.443,0,0,0,3.483,1.457,2.444,2.444,0,0,0,4.7,0A2.443,2.443,0,0,0,15.295,44.2h7.568a1.382,1.382,0,0,1,1.145.614,6.211,6.211,0,0,0,5.155,2.743H42.157a2.443,2.443,0,0,0,2.154-3.6,2.443,2.443,0,0,0,1.457-3.483,2.444,2.444,0,0,0,0-4.7A2.443,2.443,0,0,0,44.2,32.267V24.7a1.382,1.382,0,0,1,.614-1.145ZM33.586,3.954a1.05,1.05,0,0,1,2.1,0v6.667a.7.7,0,1,0,1.393,0V2.459a1.05,1.05,0,0,1,2.1,0v8.163a.7.7,0,1,0,1.393,0V3.954a1.05,1.05,0,0,1,2.1,0v6.667a.7.7,0,1,0,1.393,0V5.405a1.05,1.05,0,0,1,2.1,0V18.4a4.819,4.819,0,0,1-2.129,4,2.773,2.773,0,0,0-1.229,2.3v7.494h-9.36V24.7a2.773,2.773,0,0,0-1.229-2.3c-1.047-.706-2.193-3.024-3.41-6.894h3.381v1.3a.7.7,0,0,0,1.393,0V3.954Zm-13.377,28.1c-1.4-4.549-2.7-7.113-4.09-8.049a1.382,1.382,0,0,1-.614-1.145V20.209c4.549-1.4,7.112-2.7,8.049-4.09A1.382,1.382,0,0,1,24.7,15.5h2.654c1.4,4.549,2.7,7.112,4.09,8.049a1.382,1.382,0,0,1,.614,1.145v2.654c-4.549,1.4-7.112,2.7-8.049,4.09a1.382,1.382,0,0,1-1.145.614ZM2.9,12.925a1.051,1.051,0,0,1,1.05-1.05h6.667a.7.7,0,1,0,0-1.393H2.458a1.05,1.05,0,1,1,0-2.1h8.163a.7.7,0,0,0,0-1.393H3.954a1.05,1.05,0,1,1,0-2.1h6.667a.7.7,0,1,0,0-1.393H5.405a1.05,1.05,0,1,1,0-2.1H18.4a4.819,4.819,0,0,1,4,2.129,2.773,2.773,0,0,0,2.3,1.229h7.494v9.36H24.7a2.774,2.774,0,0,0-2.3,1.229c-.706,1.047-3.024,2.193-6.894,3.41V15.369H17.19a.7.7,0,0,0,0-1.393H4.055A1.1,1.1,0,0,1,2.9,12.925ZM13.975,43.608a1.05,1.05,0,0,1-2.1,0V36.94a.7.7,0,0,0-1.393,0V45.1a1.05,1.05,0,0,1-2.1,0V36.94a.7.7,0,0,0-1.393,0v6.667a1.05,1.05,0,0,1-2.1,0V36.94a.7.7,0,0,0-1.393,0v5.216a1.05,1.05,0,1,1-2.1,0V29.163a4.819,4.819,0,0,1,2.129-4,2.773,2.773,0,0,0,1.229-2.3V15.369h9.36v7.494a2.773,2.773,0,0,0,1.229,2.3c1.047.706,2.193,3.024,3.41,6.894H15.369v-1.3a.7.7,0,0,0-1.393,0V43.608Zm30.683-8.971a1.051,1.051,0,0,1-1.05,1.05H36.94a.7.7,0,1,0,0,1.393H45.1a1.05,1.05,0,1,1,0,2.1H36.94a.7.7,0,1,0,0,1.393h6.667a1.05,1.05,0,1,1,0,2.1H36.94a.7.7,0,1,0,0,1.393h5.216a1.05,1.05,0,0,1,0,2.1H29.163a4.819,4.819,0,0,1-4-2.129,2.774,2.774,0,0,0-2.3-1.229H15.369v-9.36h7.494a2.774,2.774,0,0,0,2.3-1.229c.706-1.047,3.024-2.193,6.894-3.41v3.382H30.575a.7.7,0,1,0,0,1.393H43.507A1.1,1.1,0,0,1,44.658,34.637Z"/>
      </g>
    </g>
  </g>
</svg>
