<svg xmlns="http://www.w3.org/2000/svg" xmlns:xlink="http://www.w3.org/1999/xlink" width="113" height="113" viewBox="0 0 113 113">
  <defs>
    <filter id="Path_982547" x="0" y="0" width="113" height="113" filterUnits="userSpaceOnUse">
      <feOffset dy="3" input="SourceAlpha"/>
      <feGaussianBlur stdDeviation="3" result="blur"/>
      <feFlood flood-opacity="0.161"/>
      <feComposite operator="in" in2="blur"/>
      <feComposite in="SourceGraphic"/>
    </filter>
  </defs>
  <g id="Group_1217662" data-name="Group 1217662" transform="translate(-1059 -692.713)">
    <g id="Group_1216427" data-name="Group 1216427">
      <g id="Group_1215796" data-name="Group 1215796" transform="translate(0 -506.232)">
        <g id="Group_1214349" data-name="Group 1214349" transform="translate(0 -2968)">
          <g id="Group_1212851" data-name="Group 1212851" transform="translate(1068 4172.946)">
            <g id="Group_1209935" data-name="Group 1209935">
              <g id="Group_1208705" data-name="Group 1208705">
                <g id="Group_1148633" data-name="Group 1148633">
                  <g id="Group_1148525" data-name="Group 1148525">
                    <g transform="matrix(1, 0, 0, 1, -9, -6)" filter="url(#Path_982547)">
                      <g id="Path_982547-2" data-name="Path 982547" transform="translate(9 6)" fill="#ffe1b9">
                        <path d="M 47.5 93.5 C 41.28937149047852 93.5 35.26533508300781 92.28397369384766 29.59518623352051 89.88570404052734 C 24.11771965026855 87.56893157958984 19.19813346862793 84.25196075439453 14.97309303283691 80.02691650390625 C 10.74804019927979 75.80186462402344 7.431066513061523 70.88229370117188 5.114293098449707 65.40481567382812 C 2.716026782989502 59.73468017578125 1.5 53.71062850952148 1.5 47.5 C 1.5 41.28937149047852 2.716026782989502 35.26533508300781 5.114293098449707 29.59518623352051 C 7.431066513061523 24.11771965026855 10.74804019927979 19.19813346862793 14.97309303283691 14.97309303283691 C 19.19813346862793 10.74804019927979 24.11771965026855 7.431066513061523 29.59518623352051 5.114293098449707 C 35.26533508300781 2.716026782989502 41.28937149047852 1.5 47.5 1.5 C 53.71062850952148 1.5 59.73468017578125 2.716026782989502 65.40481567382812 5.114293098449707 C 70.88229370117188 7.431066513061523 75.80186462402344 10.74804019927979 80.02691650390625 14.97309303283691 C 84.25196075439453 19.19813346862793 87.56893157958984 24.11771965026855 89.88570404052734 29.59518623352051 C 92.28397369384766 35.26533508300781 93.5 41.28937149047852 93.5 47.5 C 93.5 53.71062850952148 92.28397369384766 59.73468017578125 89.88570404052734 65.40481567382812 C 87.56893157958984 70.88229370117188 84.25196075439453 75.80186462402344 80.02691650390625 80.02691650390625 C 75.80186462402344 84.25196075439453 70.88229370117188 87.56893157958984 65.40481567382812 89.88570404052734 C 59.73468017578125 92.28397369384766 53.71062850952148 93.5 47.5 93.5 Z" stroke="none"/>
                        <path d="M 47.5 3 C 41.49121475219727 3 35.66376876831055 4.176155090332031 30.17950439453125 6.495796203613281 C 24.88084411621094 8.736953735351562 20.12152099609375 11.94598388671875 16.03375244140625 16.03375244140625 C 11.94598388671875 20.12152099609375 8.736953735351562 24.88084411621094 6.495796203613281 30.17950439453125 C 4.176155090332031 35.66376876831055 3 41.49121475219727 3 47.5 C 3 53.50878524780273 4.176155090332031 59.33623123168945 6.495796203613281 64.82049560546875 C 8.736953735351562 70.11915588378906 11.94598388671875 74.87847900390625 16.03375244140625 78.96624755859375 C 20.12152099609375 83.05401611328125 24.88084411621094 86.26304626464844 30.17950439453125 88.50419616699219 C 35.66376876831055 90.82384490966797 41.49121475219727 92 47.5 92 C 53.50878524780273 92 59.33623123168945 90.82384490966797 64.82049560546875 88.50419616699219 C 70.11915588378906 86.26304626464844 74.87847900390625 83.05401611328125 78.96624755859375 78.96624755859375 C 83.05401611328125 74.87847900390625 86.26304626464844 70.11915588378906 88.50419616699219 64.82049560546875 C 90.82384490966797 59.33623123168945 92 53.50878524780273 92 47.5 C 92 41.49121475219727 90.82384490966797 35.66376876831055 88.50419616699219 30.17950439453125 C 86.26304626464844 24.88084411621094 83.05401611328125 20.12152099609375 78.96624755859375 16.03375244140625 C 74.87847900390625 11.94598388671875 70.11915588378906 8.736953735351562 64.82049560546875 6.495796203613281 C 59.33623123168945 4.176155090332031 53.50878524780273 3 47.5 3 M 47.5 0 C 73.7335205078125 0 95 21.2664794921875 95 47.5 C 95 73.7335205078125 73.7335205078125 95 47.5 95 C 21.2664794921875 95 0 73.7335205078125 0 47.5 C 0 21.2664794921875 21.2664794921875 0 47.5 0 Z" stroke="none" fill="#ff9d1c"/>
                      </g>
                    </g>
                  </g>
                </g>
              </g>
            </g>
          </g>
        </g>
      </g>
      <g id="apoyo-de-equipo" transform="translate(1063.546 712.458)">
        <path id="Path_1086570" data-name="Path 1086570" d="M281.72,138.123l-.067-.084a2.965,2.965,0,0,0-3.186-.993L254.8,151.207a3.884,3.884,0,0,0,5.5,2.652l9.974-4.878-1.6,7.992,9.788,1.131,4.541-12.268A8.068,8.068,0,0,0,281.72,138.123Zm0,0" transform="translate(-200.974 -107.597)" fill="#fdb659"/>
        <path id="Path_1086571" data-name="Path 1086571" d="M280.677,139.912a2.964,2.964,0,0,1,2.2.188,8.055,8.055,0,0,0-1.152-1.977l-.066-.084a2.967,2.967,0,0,0-3.187-.993L254.8,151.207a3.869,3.869,0,0,0,2.364,2.774Zm0,0" transform="translate(-200.975 -107.597)" fill="#fd9e28"/>
        <path id="Path_1086572" data-name="Path 1086572" d="M276.927,231.844,274.2,245.032a2.864,2.864,0,0,1-.943,1.6l-7.755,6.638a.7.7,0,0,0,.009,1.072L267.532,256a.88.88,0,0,0,1,.085l9.449-5.413a5.1,5.1,0,0,0,2.385-2.047l6.35-15.651Zm0,0" transform="translate(-209.222 -182.468)" fill="#38627c"/>
        <path id="Path_1086573" data-name="Path 1086573" d="M318.972,231.844l-.153.678a10.166,10.166,0,0,0,4.852,11.053l5.679,3.264a3.664,3.664,0,0,1,1.823,3.508l-.61,6.7a.272.272,0,0,0,.271.3h3.8a.272.272,0,0,0,.265-.21l2.365-10.092A2.892,2.892,0,0,0,337,244.6l-8.236-11.62Zm0,0" transform="translate(-251.268 -182.468)" fill="#4f7693"/>
        <path id="Path_1086574" data-name="Path 1086574" d="M391.109,121.049l-3.359,1.939a3.3,3.3,0,0,1-4.508-1.208l-.767-1.33a3.3,3.3,0,0,1,1.207-4.508L387.041,114a3.3,3.3,0,0,1,4.508,1.208l.767,1.329A3.3,3.3,0,0,1,391.109,121.049Zm0,0" transform="translate(-301.323 -89.175)" fill="#fedfc5"/>
        <path id="Path_1086575" data-name="Path 1086575" d="M50.286,138.123l-.067-.084a2.965,2.965,0,0,0-3.186-.993L23.371,151.207a3.884,3.884,0,0,0,5.5,2.652l9.975-4.878-1.6,7.992,9.788,1.131,4.541-12.268a8.068,8.068,0,0,0-1.288-7.713Zm0,0" transform="translate(-18.434 -107.597)" fill="#83d9ff"/>
        <path id="Path_1086576" data-name="Path 1086576" d="M25.58,153.612l23.662-14.161a2.965,2.965,0,0,1,1.936.072,8.1,8.1,0,0,0-.891-1.4l-.067-.083a2.965,2.965,0,0,0-3.186-.993L23.371,151.207a3.865,3.865,0,0,0,2.3,2.75c-.035-.112-.068-.226-.094-.344Zm0,0" transform="translate(-18.435 -107.597)" fill="#43a3f9"/>
        <path id="Path_1086577" data-name="Path 1086577" d="M45.491,231.844l-2.721,13.188a2.865,2.865,0,0,1-.944,1.6l-7.755,6.638a.7.7,0,0,0,.01,1.072L36.1,256a.879.879,0,0,0,1,.085l9.449-5.413a5.1,5.1,0,0,0,2.386-2.047l6.35-15.651Zm0,0" transform="translate(-26.682 -182.468)" fill="#38627c"/>
        <path id="Path_1086578" data-name="Path 1086578" d="M87.536,231.844l-.153.678a10.168,10.168,0,0,0,4.852,11.053l5.679,3.264a3.664,3.664,0,0,1,1.823,3.508l-.609,6.7a.271.271,0,0,0,.271.3h3.8a.272.272,0,0,0,.264-.21l2.365-10.092a2.886,2.886,0,0,0-.267-2.449l-8.235-11.62Zm0,0" transform="translate(-68.726 -182.468)" fill="#4f7693"/>
        <path id="Path_1086579" data-name="Path 1086579" d="M159.675,121.049l-3.359,1.939a3.3,3.3,0,0,1-4.508-1.208l-.768-1.33a3.3,3.3,0,0,1,1.208-4.508L155.607,114a3.3,3.3,0,0,1,4.508,1.208l.767,1.329A3.3,3.3,0,0,1,159.675,121.049Zm0,0" transform="translate(-118.783 -89.175)" fill="#fedfc5"/>
        <path id="Path_1086580" data-name="Path 1086580" d="M8.375,50.994,50.318,26a1.325,1.325,0,0,1,1.8.431L64.8,46.5l35.914-20.946a.47.47,0,0,1,.619.134l5.813,8.192a.705.705,0,0,0,1.268-.281l4.063-22.013a.706.706,0,0,0-.607-.828L89.956,8.006a.706.706,0,0,0-.661,1.112l5.762,8.035a.469.469,0,0,1-.142.677l-25.3,15.018a.412.412,0,0,1-.568-.15L55.617,9.247a1.343,1.343,0,0,0-2.061-.333L7.684,50.053a.587.587,0,0,0,.692.941Zm0,0" transform="translate(-5.902 -5.915)" fill="#69d998"/>
        <path id="Path_1086581" data-name="Path 1086581" d="M108.611,69.689,102.8,61.5a.47.47,0,0,0-.619-.134L72.369,78.75a7.321,7.321,0,0,1-9.877-2.414l-8.905-14.1a1.325,1.325,0,0,0-1.8-.431L20.974,80.174,7.685,92.092a.587.587,0,0,0,.692.941l41.943-25a1.325,1.325,0,0,1,1.8.431L64.8,88.534l35.914-20.946a.47.47,0,0,1,.619.134l5.812,8.192a.706.706,0,0,0,1.269-.281l1.052-5.707a.7.7,0,0,1-.853-.238Zm0,0" transform="translate(-5.904 -47.954)" fill="#3dc5a1"/>
        <path id="Path_1086582" data-name="Path 1086582" d="M375.741,367.742h-6.312a1.584,1.584,0,1,0,0,3.169h6.312a1.584,1.584,0,1,0,0-3.169Zm0,0" transform="translate(-290.132 -289.656)"/>
        <path id="Path_1086583" data-name="Path 1086583" d="M246,349.341l-5.085-4.451a1.585,1.585,0,0,0-2.087,2.386l5.085,4.45A1.585,1.585,0,1,0,246,349.341Zm0,0" transform="translate(-187.942 -271.323)"/>
        <path id="Path_1086584" data-name="Path 1086584" d="M144.306,367.742h-6.312a1.584,1.584,0,0,0,0,3.169h6.312a1.584,1.584,0,1,0,0-3.169Zm0,0" transform="translate(-107.592 -289.656)"/>
        <path id="Path_1086585" data-name="Path 1086585" d="M14.562,349.341,9.477,344.89a1.585,1.585,0,0,0-2.087,2.386l5.085,4.45a1.585,1.585,0,0,0,2.087-2.385Zm0,0" transform="translate(-5.403 -271.323)"/>
        <path id="Path_1086586" data-name="Path 1086586" d="M107.725,4.186a2.3,2.3,0,0,0-1.563-.919L84.251.519a2.29,2.29,0,0,0-2.146,3.606l5.053,7.046L63.926,24.96,51.09,2.544a2.928,2.928,0,0,0-4.5-.725L23.867,22.2a1.585,1.585,0,1,0,2.116,2.359L48.488,4.379l13.28,23.191a2,2,0,0,0,2.751.725l25.3-15.017a2.054,2.054,0,0,0,.621-2.963l-4.589-6.4,18.991,2.382-3.516,19.051L96.72,18.851a2.043,2.043,0,0,0-2.709-.585l-8.239,4.8a4.952,4.952,0,0,0-.845.386L81.567,25.4a4.867,4.867,0,0,0-.848.621l-3.033,1.769a4.505,4.505,0,0,0-.654.149,1.565,1.565,0,0,0-.352.156L59.407,38.426,47.555,19.664a2.9,2.9,0,0,0-3.95-.946L28.147,27.931l-.01,0a1.575,1.575,0,0,0-.352.156L10.541,38.41l10.992-9.859a1.584,1.584,0,1,0-2.116-2.359L.723,42.958a2.171,2.171,0,0,0,2.562,3.482l.94-.56a5.476,5.476,0,0,0,6.907,1.806l7.1-3.47L14.536,62.246a1.267,1.267,0,0,1-.418.708,1.584,1.584,0,0,0,2.052,2.414,4.443,4.443,0,0,0,1.47-2.485l.914-4.432a11.74,11.74,0,0,0,3.613,3.69L20.8,65.521c-.2.408-.656.687-1.43,1.139l-.3.177L10.048,72l-.829-.683,2.016-1.726a1.585,1.585,0,0,0-2.061-2.407L6.362,69.594a2.284,2.284,0,0,0,.027,3.5l2.019,1.667A2.488,2.488,0,0,0,11.2,75l9.45-5.414.02-.012.294-.172a5.913,5.913,0,0,0,2.723-2.575q.016-.035.03-.069l1.216-3L28.4,65.745a2.086,2.086,0,0,1,1.035,1.991l-.61,6.7a1.855,1.855,0,0,0,1.849,2.024h3.8a1.848,1.848,0,0,0,1.807-1.433l2.349-10.023a4.46,4.46,0,0,0-.442-3.707c-.019-.031-.039-.06-.059-.09L30.375,50.274,34.627,38.79l.007-.021a9.694,9.694,0,0,0,.555-2.978,4.806,4.806,0,0,0,3.136-.6l3.359-1.939a4.89,4.89,0,0,0,1.788-6.672L42.7,25.245a4.869,4.869,0,0,0-1.346-1.5l3.652-2.176L56.687,40.055l-3.671,2.2a1.584,1.584,0,0,0-.734,1.7,5.469,5.469,0,0,0,7.743,3.733l14.008-6.851a1.584,1.584,0,1,0-1.393-2.846L58.633,44.84a2.3,2.3,0,0,1-2.779-.594l3.86-2.31L78.59,30.928a1.375,1.375,0,0,1,.848.5l.067.083a4.889,4.889,0,0,0,.274.556l.767,1.329,0,0a6.449,6.449,0,0,1-.006,4.3L76.438,48.791l-6.065-.7L69.6,48l.04-.2a1.585,1.585,0,0,0-3.108-.622l-3.1,15.063a1.28,1.28,0,0,1-.423.716l-7.752,6.637a2.285,2.285,0,0,0,.028,3.5L57.3,74.756a2.485,2.485,0,0,0,2.8.238l9.449-5.414.02-.012.293-.172a5.908,5.908,0,0,0,2.723-2.576c.011-.022.021-.045.03-.068l1.216-3,3.465,1.991a2.085,2.085,0,0,1,1.034,1.991l-.609,6.7a1.857,1.857,0,0,0,1.849,2.024h3.8a1.85,1.85,0,0,0,1.807-1.433l2.349-10.023A4.466,4.466,0,0,0,87.08,61.3c-.019-.03-.039-.06-.059-.089L79.269,50.274,83.52,38.79l.007-.021a9.675,9.675,0,0,0,.555-2.978,4.806,4.806,0,0,0,3.136-.6l3.359-1.939a4.89,4.89,0,0,0,1.787-6.672L91.6,25.245a4.9,4.9,0,0,0-1.071-1.279l4.2-2.448,5.222,7.359a2.29,2.29,0,0,0,4.12-.909l4.062-22.013a2.3,2.3,0,0,0-.4-1.769ZM35.6,64.061a1.378,1.378,0,0,0-.044.154l-2.128,9.079H32.11l.479-5.272A5.262,5.262,0,0,0,29.978,63L24.3,59.733a8.537,8.537,0,0,1-4.226-8.616l1.209.139L27.715,52,35.5,62.991A1.3,1.3,0,0,1,35.6,64.061ZM31.651,37.7,27.544,48.79,21.2,48.057,20.7,48l1.108-5.536,3.33-1.629a1.584,1.584,0,1,0-1.393-2.846l-4.019,1.966-.026.012L9.739,44.839a2.307,2.307,0,0,1-2.777-.592L29.332,30.915a1.372,1.372,0,0,1,1.213.513l.066.083a4.958,4.958,0,0,0,.274.556l.767,1.33,0,0a6.449,6.449,0,0,1,0,4.3ZM40.1,30.5l-3.359,1.939a1.715,1.715,0,0,1-2.237-.468,9.7,9.7,0,0,0-1.059-1.96,1.717,1.717,0,0,1,.813-1.873L37.617,26.2a1.707,1.707,0,0,1,.855-.231,1.731,1.731,0,0,1,.447.059,1.708,1.708,0,0,1,1.041.8l.767,1.329A1.718,1.718,0,0,1,40.1,30.5ZM69.692,65.521c-.2.409-.656.687-1.431,1.14l-.3.177L58.943,72l-.829-.683,6.951-5.952a4.467,4.467,0,0,0,1.47-2.485l.914-4.431a11.74,11.74,0,0,0,3.614,3.689ZM84.5,64.061a1.578,1.578,0,0,0-.045.154l-2.128,9.079H81l.479-5.272A5.263,5.263,0,0,0,78.873,63l-5.679-3.264a8.538,8.538,0,0,1-4.227-8.616l1.523.176L76.609,52,84.4,62.991A1.3,1.3,0,0,1,84.5,64.061Zm2.868-38.09a1.726,1.726,0,0,1,.447.059,1.708,1.708,0,0,1,1.041.8l.767,1.329a1.718,1.718,0,0,1-.628,2.344l-3.359,1.939a1.715,1.715,0,0,1-2.237-.468,9.708,9.708,0,0,0-1.058-1.959,1.722,1.722,0,0,1,.345-1.475l4.339-2.53a1.7,1.7,0,0,1,.342-.039Zm0,0" transform="translate(0)"/>
      </g>
    </g>
  </g>
</svg>
