<svg xmlns="http://www.w3.org/2000/svg" xmlns:xlink="http://www.w3.org/1999/xlink" width="113" height="113" viewBox="0 0 113 113">
  <defs>
    <filter id="Path_982547" x="0" y="0" width="113" height="113" filterUnits="userSpaceOnUse">
      <feOffset dy="3" input="SourceAlpha"/>
      <feGaussianBlur stdDeviation="3" result="blur"/>
      <feFlood flood-opacity="0.161"/>
      <feComposite operator="in" in2="blur"/>
      <feComposite in="SourceGraphic"/>
    </filter>
  </defs>
  <g id="Group_1217661" data-name="Group 1217661" transform="translate(-429 -692.713)">
    <g id="Group_1216426" data-name="Group 1216426">
      <g id="Group_1215795" data-name="Group 1215795" transform="translate(0 -506.232)">
        <g id="Group_1214345" data-name="Group 1214345" transform="translate(0 -2968)">
          <g id="Group_1210956" data-name="Group 1210956" transform="translate(438 4172.946)">
            <g id="Group_1209935" data-name="Group 1209935">
              <g id="Group_1208705" data-name="Group 1208705">
                <g id="Group_1148633" data-name="Group 1148633">
                  <g id="Group_1148525" data-name="Group 1148525">
                    <g transform="matrix(1, 0, 0, 1, -9, -6)" filter="url(#Path_982547)">
                      <g id="Path_982547-2" data-name="Path 982547" transform="translate(9 6)" fill="#ffe1b9">
                        <path d="M 47.5 93.5 C 41.28937149047852 93.5 35.26533508300781 92.28397369384766 29.59518623352051 89.88570404052734 C 24.11771965026855 87.56893157958984 19.19813346862793 84.25196075439453 14.97309303283691 80.02691650390625 C 10.74804019927979 75.80186462402344 7.431066513061523 70.88229370117188 5.114293098449707 65.40481567382812 C 2.716026782989502 59.73468017578125 1.5 53.71062850952148 1.5 47.5 C 1.5 41.28937149047852 2.716026782989502 35.26533508300781 5.114293098449707 29.59518623352051 C 7.431066513061523 24.11771965026855 10.74804019927979 19.19813346862793 14.97309303283691 14.97309303283691 C 19.19813346862793 10.74804019927979 24.11771965026855 7.431066513061523 29.59518623352051 5.114293098449707 C 35.26533508300781 2.716026782989502 41.28937149047852 1.5 47.5 1.5 C 53.71062850952148 1.5 59.73468017578125 2.716026782989502 65.40481567382812 5.114293098449707 C 70.88229370117188 7.431066513061523 75.80186462402344 10.74804019927979 80.02691650390625 14.97309303283691 C 84.25196075439453 19.19813346862793 87.56893157958984 24.11771965026855 89.88570404052734 29.59518623352051 C 92.28397369384766 35.26533508300781 93.5 41.28937149047852 93.5 47.5 C 93.5 53.71062850952148 92.28397369384766 59.73468017578125 89.88570404052734 65.40481567382812 C 87.56893157958984 70.88229370117188 84.25196075439453 75.80186462402344 80.02691650390625 80.02691650390625 C 75.80186462402344 84.25196075439453 70.88229370117188 87.56893157958984 65.40481567382812 89.88570404052734 C 59.73468017578125 92.28397369384766 53.71062850952148 93.5 47.5 93.5 Z" stroke="none"/>
                        <path d="M 47.5 3 C 41.49121475219727 3 35.66376876831055 4.176155090332031 30.17950439453125 6.495796203613281 C 24.88084411621094 8.736953735351562 20.12152099609375 11.94598388671875 16.03375244140625 16.03375244140625 C 11.94598388671875 20.12152099609375 8.736953735351562 24.88084411621094 6.495796203613281 30.17950439453125 C 4.176155090332031 35.66376876831055 3 41.49121475219727 3 47.5 C 3 53.50878524780273 4.176155090332031 59.33623123168945 6.495796203613281 64.82049560546875 C 8.736953735351562 70.11915588378906 11.94598388671875 74.87847900390625 16.03375244140625 78.96624755859375 C 20.12152099609375 83.05401611328125 24.88084411621094 86.26304626464844 30.17950439453125 88.50419616699219 C 35.66376876831055 90.82384490966797 41.49121475219727 92 47.5 92 C 53.50878524780273 92 59.33623123168945 90.82384490966797 64.82049560546875 88.50419616699219 C 70.11915588378906 86.26304626464844 74.87847900390625 83.05401611328125 78.96624755859375 78.96624755859375 C 83.05401611328125 74.87847900390625 86.26304626464844 70.11915588378906 88.50419616699219 64.82049560546875 C 90.82384490966797 59.33623123168945 92 53.50878524780273 92 47.5 C 92 41.49121475219727 90.82384490966797 35.66376876831055 88.50419616699219 30.17950439453125 C 86.26304626464844 24.88084411621094 83.05401611328125 20.12152099609375 78.96624755859375 16.03375244140625 C 74.87847900390625 11.94598388671875 70.11915588378906 8.736953735351562 64.82049560546875 6.495796203613281 C 59.33623123168945 4.176155090332031 53.50878524780273 3 47.5 3 M 47.5 0 C 73.7335205078125 0 95 21.2664794921875 95 47.5 C 95 73.7335205078125 73.7335205078125 95 47.5 95 C 21.2664794921875 95 0 73.7335205078125 0 47.5 C 0 21.2664794921875 21.2664794921875 0 47.5 0 Z" stroke="none" fill="#ff9d1c"/>
                      </g>
                    </g>
                  </g>
                </g>
              </g>
            </g>
          </g>
        </g>
      </g>
      <g id="trabajo-en-equipo_3_" data-name="trabajo-en-equipo (3)" transform="translate(445.101 703.713)">
        <g id="Group_1216424" data-name="Group 1216424" transform="translate(1.771 1.418)">
          <g id="Group_1216403" data-name="Group 1216403" transform="translate(2.656 39.56)">
            <circle id="Ellipse_14371" data-name="Ellipse 14371" cx="22.5" cy="22.5" r="22.5" transform="translate(0.186 0.309)" fill="#ffeaa7"/>
          </g>
          <g id="Group_1216404" data-name="Group 1216404" transform="translate(38.953 13.886)">
            <circle id="Ellipse_14372" data-name="Ellipse 14372" cx="23" cy="23" r="23" transform="translate(-0.112 -0.017)" fill="#ffeaa7"/>
          </g>
          <g id="Group_1216405" data-name="Group 1216405" transform="translate(0 5.918)">
            <circle id="Ellipse_14373" data-name="Ellipse 14373" cx="22.5" cy="22.5" r="22.5" transform="translate(-0.158 -0.05)" fill="#ffeaa7"/>
          </g>
          <g id="Group_1216406" data-name="Group 1216406" transform="translate(61.999 45.367)">
            <path id="Path_1086548" data-name="Path 1086548" d="M49.262,33A10.676,10.676,0,0,1,53.6,35.311c.085.071.17.156.241.227a10.129,10.129,0,0,1,2.694,4.494l.978,3.388a22.512,22.512,0,0,1-12.5,3.757H44.98l.028-1.418a23.752,23.752,0,0,0,3.672-9.3l.1-.624Z" transform="translate(-44.98 -33)" fill="#ff826e"/>
          </g>
          <g id="Group_1216407" data-name="Group 1216407" transform="translate(49.523 45.367)">
            <path id="Path_1086549" data-name="Path 1086549" d="M44.913,35.835l.1.624a23.752,23.752,0,0,0,3.672,9.3l-.028,1.418A22.5,22.5,0,0,1,36.18,43.42l.978-3.388a10.129,10.129,0,0,1,2.694-4.494c.071-.071.156-.156.241-.227A10.676,10.676,0,0,1,44.431,33Z" transform="translate(-36.18 -33)" fill="#ff826e"/>
          </g>
          <g id="Group_1216408" data-name="Group 1216408" transform="translate(58.256 48.203)">
            <path id="Path_1086550" data-name="Path 1086550" d="M49.882,35l-.1.624a23.752,23.752,0,0,1-3.672,9.3,23.752,23.752,0,0,1-3.672-9.3L42.34,35Z" transform="translate(-42.34 -35)" fill="#b4dd7f"/>
          </g>
          <g id="Group_1216409" data-name="Group 1216409" transform="translate(45.014 8.506)">
            <path id="Path_1086551" data-name="Path 1086551" d="M41.988,37.708l4.863,2.864L45.76,43.861a10.676,10.676,0,0,0-4.338,2.311A13.689,13.689,0,0,1,33,33.54V24.013a16.811,16.811,0,0,1,.539-4.253,17.01,17.01,0,0,1,32.948,0,16.811,16.811,0,0,1,.539,4.253V33.54A13.689,13.689,0,0,1,58.6,46.172a10.676,10.676,0,0,0-4.338-2.311l-1.092-3.289a11.329,11.329,0,0,0,8.18-10.888V23.772a2.849,2.849,0,0,0-2.58-2.835l-6.706-.61a11.335,11.335,0,0,1-4.849-1.588L40.727,20.6a2.824,2.824,0,0,0-2.056,2.722v6.366a11.362,11.362,0,0,0,3.317,8.024Z" transform="translate(-33 -7)" fill="#656d78"/>
          </g>
          <g id="Group_1216410" data-name="Group 1216410" transform="translate(8.153)">
            <path id="Path_1086552" data-name="Path 1086552" d="M18.384,12.739,11.891,14.6a2.824,2.824,0,0,0-2.056,2.722v3.53H7V13.76a13.235,13.235,0,0,1,.2-2.268A12.773,12.773,0,0,1,19.76,1h2.835A12.773,12.773,0,0,1,35.156,11.491a13.234,13.234,0,0,1,.2,2.268v7.089H32.519V17.772a2.849,2.849,0,0,0-2.58-2.835l-6.706-.61a11.335,11.335,0,0,1-4.849-1.588Z" transform="translate(-7 -1)" fill="#656d78"/>
          </g>
          <g id="Group_1216411" data-name="Group 1216411" transform="translate(8.153 31.19)">
            <path id="Path_1086553" data-name="Path 1086553" d="M21.22,37.574l-6.493,1.857a2.824,2.824,0,0,0-2.056,2.722v3.53H9.835l-1.63-3.247a11.612,11.612,0,0,1-1.077-3.4,10.5,10.5,0,0,1-.113-1.148C7,37.688,7,37.5,7,37.3A11.466,11.466,0,0,1,18.469,25.835H28.819A16.932,16.932,0,0,0,38.19,23l.3.6c.057.128.128.255.184.383a24.4,24.4,0,0,1,2.353,10.364,24.031,24.031,0,0,1-.411,4.395,23.61,23.61,0,0,1-2.127,6.351l-.3.6H35.354V42.607a2.849,2.849,0,0,0-2.58-2.835l-6.706-.61a11.335,11.335,0,0,1-4.849-1.588Z" transform="translate(-7 -23)" fill="#b27946"/>
          </g>
          <g id="Group_1216412" data-name="Group 1216412" transform="translate(25.138 70.886)">
            <path id="Path_1086554" data-name="Path 1086554" d="M23.262,51a10.1,10.1,0,0,1,7.273,7.032l.978,3.388a22.512,22.512,0,0,1-12.5,3.757H18.98l.028-1.418,2.835-4.253-1.418-5.671Z" transform="translate(-18.98 -51)" fill="#e6e9ed"/>
          </g>
          <g id="Group_1216413" data-name="Group 1216413" transform="translate(12.662 70.886)">
            <path id="Path_1086555" data-name="Path 1086555" d="M19.849,59.506l2.835,4.253-.028,1.418A22.532,22.532,0,0,1,10.18,61.42l.978-3.388A10.1,10.1,0,0,1,18.431,51l2.835,2.835Z" transform="translate(-10.18 -51)" fill="#e6e9ed"/>
          </g>
          <g id="Group_1216414" data-name="Group 1216414" transform="translate(22.331 73.722)">
            <path id="Path_1086556" data-name="Path 1086556" d="M21.253,53l1.418,5.671-2.835,4.253L17,58.671,18.418,53Z" transform="translate(-17 -53)" fill="#ff826e"/>
          </g>
          <g id="Group_1216415" data-name="Group 1216415" transform="translate(36.153 53.874)">
            <path id="Path_1086557" data-name="Path 1086557" d="M29.94,39a2.844,2.844,0,0,1,2.835,2.835,2.856,2.856,0,0,1-2.835,2.835H26.75a11.68,11.68,0,0,0,.354-2.835V39Z" transform="translate(-26.75 -39)" fill="#f0d0b4"/>
          </g>
          <g id="Group_1216416" data-name="Group 1216416" transform="translate(20.913 67.597)">
            <path id="Path_1086558" data-name="Path 1086558" d="M23.415,48.68l1.092,3.289L21.671,54.8H18.835L16,51.969l1.092-3.289a11.243,11.243,0,0,0,6.323,0Z" transform="translate(-16 -48.68)" fill="#f0d0b4"/>
          </g>
          <g id="Group_1216417" data-name="Group 1216417" transform="translate(13.824 45.764)">
            <path id="Path_1086559" data-name="Path 1086559" d="M33.684,41.389v2.835a11.68,11.68,0,0,1-.354,2.835A11.381,11.381,0,0,1,25.5,55.113a11.243,11.243,0,0,1-6.323,0l-4.863-2.864a11.514,11.514,0,0,1-2.963-5.189A11.68,11.68,0,0,1,11,44.225V37.859a2.824,2.824,0,0,1,2.056-2.722l6.493-1.857A11.335,11.335,0,0,0,24.4,34.868l6.706.61a2.849,2.849,0,0,1,2.58,2.835Z" transform="translate(-11 -33.28)" fill="#f0d0b4"/>
          </g>
          <g id="Group_1216418" data-name="Group 1216418" transform="translate(8.153 53.874)">
            <path id="Path_1086560" data-name="Path 1086560" d="M12.671,39v2.835a11.68,11.68,0,0,0,.354,2.835H9.835A2.856,2.856,0,0,1,7,41.835,2.844,2.844,0,0,1,9.835,39Z" transform="translate(-7 -39)" fill="#f0d0b4"/>
          </g>
          <g id="Group_1216419" data-name="Group 1216419" transform="translate(57.774 42.078)">
            <path id="Path_1086561" data-name="Path 1086561" d="M49.415,30.68l1.092,3.289L50.024,36.8H42.482L42,33.969l1.092-3.289a11.243,11.243,0,0,0,6.323,0Z" transform="translate(-42 -30.68)" fill="#f0d0b4"/>
          </g>
          <g id="Group_1216420" data-name="Group 1216420" transform="translate(50.685 20.245)">
            <path id="Path_1086562" data-name="Path 1086562" d="M59.684,20.313v5.912A11.329,11.329,0,0,1,51.5,37.113a11.243,11.243,0,0,1-6.323,0l-4.863-2.864A11.362,11.362,0,0,1,37,26.225V19.859a2.824,2.824,0,0,1,2.056-2.722l6.493-1.857A11.335,11.335,0,0,0,50.4,16.868l6.706.61a2.849,2.849,0,0,1,2.58,2.835Z" transform="translate(-37 -15.28)" fill="#f0d0b4"/>
          </g>
          <g id="Group_1216421" data-name="Group 1216421" transform="translate(33.318 19.848)">
            <path id="Path_1086563" data-name="Path 1086563" d="M27.94,15a2.844,2.844,0,0,1,2.835,2.835,2.856,2.856,0,0,1-2.835,2.835H24.75a11.68,11.68,0,0,0,.354-2.835V15Z" transform="translate(-24.75 -15)" fill="#f0d0b4"/>
          </g>
          <g id="Group_1216422" data-name="Group 1216422" transform="translate(10.989 11.739)">
            <path id="Path_1086564" data-name="Path 1086564" d="M31.684,17.389v2.835a11.68,11.68,0,0,1-.354,2.835,11.354,11.354,0,0,1-19.012,5.189A11.514,11.514,0,0,1,9.354,23.06,11.68,11.68,0,0,1,9,20.225V13.859a2.824,2.824,0,0,1,2.056-2.722L17.549,9.28A11.335,11.335,0,0,0,22.4,10.868l6.706.61a2.849,2.849,0,0,1,2.58,2.835Z" transform="translate(-9 -9.28)" fill="#f0d0b4"/>
          </g>
          <g id="Group_1216423" data-name="Group 1216423" transform="translate(5.318 19.848)">
            <path id="Path_1086565" data-name="Path 1086565" d="M11.025,20.671H7.835A2.856,2.856,0,0,1,5,17.835,2.844,2.844,0,0,1,7.835,15h2.835v2.835A11.68,11.68,0,0,0,11.025,20.671Z" transform="translate(-5 -15)" fill="#f0d0b4"/>
          </g>
        </g>
        <g id="Group_1216425" data-name="Group 1216425" transform="translate(0)">
          <circle id="Ellipse_14374" data-name="Ellipse 14374" cx="1.5" cy="1.5" r="1.5" transform="translate(19.612 54.287)"/>
          <circle id="Ellipse_14375" data-name="Ellipse 14375" cx="1.5" cy="1.5" r="1.5" transform="translate(30.612 54.287)"/>
          <path id="Path_1086566" data-name="Path 1086566" d="M23.462,42.853a3.17,3.17,0,0,1-5.671,0l-.149-.3-2.536,1.269.149.3A6.006,6.006,0,0,0,26,44.12l.149-.3-2.536-1.269Z" transform="translate(6.31 17.775)"/>
          <circle id="Ellipse_14376" data-name="Ellipse 14376" cx="1.5" cy="1.5" r="1.5" transform="translate(16.612 19.287)"/>
          <ellipse id="Ellipse_14377" data-name="Ellipse 14377" cx="1" cy="1.5" rx="1" ry="1.5" transform="translate(28.612 19.287)"/>
          <path id="Path_1086567" data-name="Path 1086567" d="M21.462,18.853a3.17,3.17,0,0,1-5.671,0l-.149-.3-2.536,1.269.149.3A6.006,6.006,0,0,0,24,20.12l.149-.3-2.536-1.269Z" transform="translate(5.475 7.75)"/>
          <circle id="Ellipse_14378" data-name="Ellipse 14378" cx="1.5" cy="1.5" r="1.5" transform="translate(56.612 28.287)"/>
          <ellipse id="Ellipse_14379" data-name="Ellipse 14379" cx="1" cy="1.5" rx="1" ry="1.5" transform="translate(68.612 28.287)"/>
          <path id="Path_1086568" data-name="Path 1086568" d="M49.462,24.853a3.17,3.17,0,0,1-5.671,0l-.149-.3-2.536,1.269.149.3A6.006,6.006,0,0,0,52,26.12l.149-.3-2.536-1.269Z" transform="translate(17.171 10.256)"/>
          <path id="Path_1086569" data-name="Path 1086569" d="M81.531,21.978a18.4,18.4,0,0,0-35.084-1.194,24.256,24.256,0,0,0-7.086-9.646A14.2,14.2,0,0,0,25.519,0H22.684A14.2,14.2,0,0,0,8.84,11.149,24.032,24.032,0,0,0,8.58,48.176a.273.273,0,0,1,0,.034,24.126,24.126,0,1,0,41.8,10.083A23.864,23.864,0,0,0,63.8,62.38a24.086,24.086,0,0,0,17.733-40.4ZM63.8,11.342A15.613,15.613,0,0,1,79.393,26.937v9.527a12.2,12.2,0,0,1-6.838,10.963,11.517,11.517,0,0,0-3.394-1.8l-.42-1.259a12.783,12.783,0,0,0,7.816-11.763V26.69a4.231,4.231,0,0,0-3.869-4.235l-6.7-.61a9.9,9.9,0,0,1-8.01-5.467L55.44,17.648a12.885,12.885,0,0,0,2.478,3.42l-3.8,1.085a4.268,4.268,0,0,0-3.085,4.089v6.367a12.779,12.779,0,0,0,7.816,11.761l-.42,1.259a11.517,11.517,0,0,0-3.394,1.8A12.2,12.2,0,0,1,48.2,36.464V26.937A15.613,15.613,0,0,1,63.8,11.342ZM48.507,53.047a24.145,24.145,0,0,0-3.464-5.121,25.137,25.137,0,0,0-1.952-14.469,21.121,21.121,0,0,1,2.275-5.772v8.779A15.042,15.042,0,0,0,52.9,49.527a11.486,11.486,0,0,0-2,3.907l-.4,1.415A21.472,21.472,0,0,1,48.507,53.047Zm-21.26,23.51,1,3.988-1.307,1.962L25.63,80.545l1-3.988Zm-4.956-2.641,1.657,1.657-1.375,5.5,2.6,3.9A21.086,21.086,0,0,1,16.1,82.062l.666-2.332a8.728,8.728,0,0,1,5.522-5.814Zm9.01,7.16-1.375-5.5,1.657-1.657A8.724,8.724,0,0,1,37.1,79.733l.666,2.332A21.072,21.072,0,0,1,28.7,84.974Zm-1.732-9.154-1.8,1.8H26.106l-1.8-1.8.414-1.241a12.061,12.061,0,0,0,4.435,0Zm-2.631-3.87a9.936,9.936,0,0,1-9.924-9.924V51.76A1.421,1.421,0,0,1,18.042,50.4l5.9-1.686a12.824,12.824,0,0,0,4.932,1.479l6.7.61a1.41,1.41,0,0,1,1.29,1.411v5.916A9.938,9.938,0,0,1,26.937,68.051Zm8.891-20.076-6.7-.61a9.9,9.9,0,0,1-8.01-5.467l-2.536,1.269a12.885,12.885,0,0,0,2.478,3.42l-3.8,1.085a4.268,4.268,0,0,0-3.085,4.089v2.114h-.542L12.4,51.408a10.053,10.053,0,0,1,8.991-14.547H31.749a18.237,18.237,0,0,0,8.769-2.237,22.539,22.539,0,0,1-.293,19.25H39.7V52.209A4.232,4.232,0,0,0,35.827,47.974ZM12.76,56.709h1.418v1.418a12.667,12.667,0,0,0,.084,1.418h-1.5a1.418,1.418,0,1,1,0-2.835ZM24.1,34.025A9.936,9.936,0,0,1,14.177,24.1V17.734a1.421,1.421,0,0,1,1.029-1.362l5.9-1.686a12.824,12.824,0,0,0,4.932,1.479l6.7.61a1.41,1.41,0,0,1,1.29,1.411V24.1A9.938,9.938,0,0,1,24.1,34.025ZM39.7,58.127V56.709h1.418a1.418,1.418,0,1,1,0,2.835h-1.5A12.666,12.666,0,0,0,39.7,58.127Zm13.935-3.914a8.723,8.723,0,0,1,4.793-5.525l.3,1.793A25.057,25.057,0,0,0,62.1,59.459a20.967,20.967,0,0,1-9.141-2.895ZM63.8,42.532a9.936,9.936,0,0,1-9.924-9.924V26.241A1.421,1.421,0,0,1,54.9,24.878l5.9-1.686a12.824,12.824,0,0,0,4.932,1.479l6.7.61a1.41,1.41,0,0,1,1.29,1.411v5.916A9.938,9.938,0,0,1,63.8,42.532Zm0,2.835a12.845,12.845,0,0,0,2.217-.206l.58,1.74-.217,1.3H61.217L61,46.9l.58-1.74A12.707,12.707,0,0,0,63.8,45.367Zm2.066,5.671a22.139,22.139,0,0,1-2.066,5.74,22.19,22.19,0,0,1-2.066-5.74Zm3.008-.557.3-1.793a8.723,8.723,0,0,1,4.793,5.525l.666,2.332a21.087,21.087,0,0,1-9.136,2.913A25.03,25.03,0,0,0,68.872,50.481ZM44.512,23.842a24.017,24.017,0,0,0-3.72,7.277l-.464.309a15.416,15.416,0,0,1-8.206,2.583,12.813,12.813,0,0,0,4-5.657h2.161A4.243,4.243,0,0,0,39.7,20.109V15.323A21.363,21.363,0,0,1,44.512,23.842Zm-7.651.259V22.684h1.418a1.418,1.418,0,0,1,0,2.835h-1.5A12.666,12.666,0,0,0,36.861,24.1ZM11.342,14.177A11.355,11.355,0,0,1,22.684,2.835h2.835A11.355,11.355,0,0,1,36.861,14.177v4.006a4.231,4.231,0,0,0-3.869-4.235l-6.7-.61a9.9,9.9,0,0,1-8.01-5.467L15.744,9.141a12.885,12.885,0,0,0,2.478,3.42l-3.8,1.085a4.268,4.268,0,0,0-3.085,4.089ZM9.924,22.684h1.418V24.1a12.667,12.667,0,0,0,.084,1.418h-1.5a1.418,1.418,0,0,1,0-2.835ZM2.835,29.772A21.1,21.1,0,0,1,8.506,15.355v4.754a4.243,4.243,0,0,0,1.418,8.245h2.162A12.806,12.806,0,0,0,17.12,34.77a12.918,12.918,0,0,0-8.373,9.692A21.138,21.138,0,0,1,2.835,29.772ZM5.671,63.8A21.212,21.212,0,0,1,9.456,51.72c.129.322.255.646.41.957l.868,1.734A4.238,4.238,0,0,0,12.76,62.38h2.162a12.821,12.821,0,0,0,7.073,7.51l-.42,1.259a11.577,11.577,0,0,0-7.531,7.806l-.4,1.413A21.226,21.226,0,0,1,5.671,63.8Zm34.563,16.57-.4-1.413A11.58,11.58,0,0,0,32.3,71.149l-.42-1.259a12.817,12.817,0,0,0,7.073-7.51h2.162a4.239,4.239,0,0,0,2-7.985,25.414,25.414,0,0,0,1.113-2.945,21.19,21.19,0,0,1-3.992,28.917ZM77.094,54.849l-.4-1.413a11.473,11.473,0,0,0-2-3.907,15.048,15.048,0,0,0,7.535-13.064V27.707a21.182,21.182,0,0,1-5.134,27.142Z" transform="translate(0)"/>
        </g>
      </g>
    </g>
  </g>
</svg>
