<svg xmlns="http://www.w3.org/2000/svg" xmlns:xlink="http://www.w3.org/1999/xlink" width="108" height="121.53" viewBox="0 0 108 121.53">
  <defs>
    <filter id="Path_904820" x="0" y="9.765" width="108" height="108" filterUnits="userSpaceOnUse">
      <feOffset dy="3" input="SourceAlpha"/>
      <feGaussianBlur stdDeviation="3" result="blur"/>
      <feFlood flood-opacity="0.161"/>
      <feComposite operator="in" in2="blur"/>
      <feComposite in="SourceGraphic"/>
    </filter>
  </defs>
  <g id="Group_1217690" data-name="Group 1217690" transform="translate(-197 -326.367)">
    <g id="Group_1216701" data-name="Group 1216701">
      <g id="Group_1215839" data-name="Group 1215839" transform="translate(0 -3696)">
        <g id="Group_1209015" data-name="Group 1209015" transform="translate(0 1366.077)">
          <g id="Group_1207774" data-name="Group 1207774" transform="translate(206 2670.713)">
            <g id="Group_1206630" data-name="Group 1206630" transform="translate(0 1.342)">
              <g id="Group_1185091" data-name="Group 1185091" transform="translate(0 0)">
                <g id="Group_1179560" data-name="Group 1179560">
                  <g id="Group_1173787" data-name="Group 1173787" transform="translate(0)">
                    <g id="Group_1171910" data-name="Group 1171910">
                      <g id="Group_1167341" data-name="Group 1167341">
                        <g id="Group_1166792" data-name="Group 1166792">
                          <g transform="matrix(1, 0, 0, 1, -9, -15.76)" filter="url(#Path_904820)">
                            <g id="Path_904820-2" data-name="Path 904820" transform="translate(9 15.76)" fill="#fff4e6">
                              <path d="M 44.99999618530273 88.50006866455078 C 39.12687301635742 88.50006866455078 33.43022155761719 87.35014343261719 28.06829643249512 85.08222961425781 C 22.88852119445801 82.89136505126953 18.23629570007324 79.75465393066406 14.24084663391113 75.75919342041016 C 10.24540901184082 71.76374053955078 7.108683586120605 67.11151885986328 4.917821407318115 61.93174362182617 C 2.649921178817749 56.56980514526367 1.499996185302734 50.87315368652344 1.499996185302734 45.00003051757812 C 1.499996185302734 39.12690734863281 2.649921178817749 33.43025588989258 4.917821407318115 28.06831741333008 C 7.108683586120605 22.88854217529297 10.24540901184082 18.23631858825684 14.24084663391113 14.24086761474609 C 18.23629570007324 10.24541759490967 22.88852119445801 7.10869312286377 28.06829643249512 4.917842864990234 C 33.43022155761719 2.649930477142334 39.12687301635742 1.500005483627319 44.99999618530273 1.500005483627319 C 50.87311935424805 1.500005483627319 56.56977081298828 2.649930477142334 61.93169784545898 4.917842864990234 C 67.11147308349609 7.10869312286377 71.76369476318359 10.24541759490967 75.75914764404297 14.24086761474609 C 79.75458526611328 18.23631858825684 82.89131164550781 22.88854217529297 85.08216857910156 28.06831741333008 C 87.35007476806641 33.43025588989258 88.5 39.12690734863281 88.5 45.00003051757812 C 88.5 50.87315368652344 87.35007476806641 56.56980514526367 85.08216857910156 61.93174362182617 C 82.89131164550781 67.11151885986328 79.75458526611328 71.76374053955078 75.75914764404297 75.75919342041016 C 71.76369476318359 79.75465393066406 67.11147308349609 82.89136505126953 61.93169784545898 85.08222961425781 C 56.56977081298828 87.35014343261719 50.87311935424805 88.50006866455078 44.99999618530273 88.50006866455078 Z" stroke="none"/>
                              <path d="M 44.99999618530273 3 C 39.32870864868164 3 33.82865142822266 4.110061645507812 28.65262603759766 6.299346923828125 C 23.65165710449219 8.414573669433594 19.15968322753906 11.44334411621094 15.301513671875 15.30152893066406 C 11.44333648681641 19.15969848632812 8.414566040039062 23.65167236328125 6.299339294433594 28.65264511108398 C 4.110054016113281 33.82868576049805 2.999992370605469 39.32874298095703 2.999992370605469 45.00003051757812 C 2.999992370605469 50.67131805419922 4.110054016113281 56.1713752746582 6.299339294433594 61.34741592407227 C 8.414566040039062 66.348388671875 11.44333648681641 70.84036254882812 15.301513671875 74.69853210449219 C 19.15968322753906 78.55671691894531 23.65165710449219 81.58548736572266 28.65262603759766 83.70071411132812 C 33.82865142822266 85.88999938964844 39.32870864868164 87.00006103515625 44.99999618530273 87.00006103515625 C 50.67128372192383 87.00006103515625 56.17134094238281 85.88999938964844 61.34736633300781 83.70071411132812 C 66.34834289550781 81.58548736572266 70.84030914306641 78.55671691894531 74.69847869873047 74.69853210449219 C 78.55665588378906 70.84036254882812 81.58542633056641 66.348388671875 83.70065307617188 61.34741592407227 C 85.88993835449219 56.1713752746582 87 50.67131805419922 87 45.00003051757812 C 87 39.32874298095703 85.88993835449219 33.82868576049805 83.70065307617188 28.65264511108398 C 81.58542633056641 23.65167236328125 78.55665588378906 19.15969848632812 74.69847869873047 15.30152893066406 C 70.84030914306641 11.44334411621094 66.34834289550781 8.414573669433594 61.34736633300781 6.299346923828125 C 56.17134094238281 4.110061645507812 50.67128372192383 3 44.99999618530273 3 M 44.99999618530273 0 C 69.85281372070312 0 90 20.14720153808594 90 45.00003051757812 C 90 69.85285949707031 69.85281372070312 90.00006103515625 44.99999618530273 90.00006103515625 C 20.14717864990234 90.00006103515625 -7.62939453125e-06 69.85285949707031 -7.62939453125e-06 45.00003051757812 C -7.62939453125e-06 20.14720153808594 20.14717864990234 0 44.99999618530273 0 Z" stroke="none" fill="#ff9d1c"/>
                            </g>
                          </g>
                        </g>
                      </g>
                    </g>
                  </g>
                </g>
              </g>
            </g>
          </g>
        </g>
      </g>
      <g id="industrial_1_" data-name="industrial (1)" transform="translate(106.269 320.359)">
        <path id="Path_1087080" data-name="Path 1087080" d="M318.3,132.859l-1.722,22.56H336.02l-1.722-22.56Z" transform="translate(-157.123 -96.018)" fill="#dea368" fill-rule="evenodd"/>
        <path id="Path_1087081" data-name="Path 1087081" d="M318.3,132.859l-1.722,22.56h13.636l-1.722-22.56Z" transform="translate(-157.123 -96.018)" fill="#e6b17c" fill-rule="evenodd"/>
        <path id="Path_1087082" data-name="Path 1087082" d="M315.294,212.158H335.36v25.573H315.294Z" transform="translate(-156.151 -156.042)" fill="#f2c496"/>
        <path id="Path_1087083" data-name="Path 1087083" d="M315.294,212.158h14.261v25.573H315.294Z" transform="translate(-156.151 -156.042)" fill="#fdd7ad"/>
        <rect id="Rectangle_420357" data-name="Rectangle 420357" width="20.138" height="5.105" rx="2.553" transform="translate(159.107 33.46)" fill="#c45b00"/>
        <path id="Path_1087084" data-name="Path 1087084" d="M315.893,118.951h13.27a.747.747,0,0,1,.746.746v3.612a.747.747,0,0,1-.746.746h-13.27a.747.747,0,0,1-.746-.746V119.7a.747.747,0,0,1,.746-.746Z" transform="translate(-156.04 -85.491)" fill="#e37500"/>
        <g id="Group_1216700" data-name="Group 1216700" transform="translate(110.201 30.799)">
          <path id="Path_1087085" data-name="Path 1087085" d="M185.156,108l-3.329,50.89h18.036L196.534,108Z" transform="translate(-165.326 -108.001)" fill="#dea368" fill-rule="evenodd"/>
          <path id="Path_1087086" data-name="Path 1087086" d="M185.156,108l-3.329,50.89H195.9L192.57,108Z" transform="translate(-165.326 -108.001)" fill="#e6b17c" fill-rule="evenodd"/>
          <path id="Path_1087087" data-name="Path 1087087" d="M249.738,211.982V186.409l-14.321-8.268-13.163,7.6v26.241Z" transform="translate(-195.926 -161.092)" fill="#7986bf" fill-rule="evenodd"/>
          <path id="Path_1087088" data-name="Path 1087088" d="M235.416,211.982V178.141l-13.163,7.6v26.241Z" transform="translate(-195.926 -161.092)" fill="#5d689e" fill-rule="evenodd"/>
          <path id="Path_1087089" data-name="Path 1087089" d="M126.93,183.219V169.193l23.17-13.377v21.626Z" transform="translate(-123.773 -144.194)" fill="#525d91" fill-rule="evenodd"/>
          <path id="Path_1087090" data-name="Path 1087090" d="M194.311,159.737l6.792-3.921v19.162h-6.792Z" transform="translate(-174.776 -144.194)" fill="#323e66" fill-rule="evenodd"/>
          <path id="Path_1087091" data-name="Path 1087091" d="M153.431,247.211V231.146l-13.163-6.463H126.684l-12.743,6.257v16.272Z" transform="translate(-113.941 -196.322)" fill="#a3a3cc" fill-rule="evenodd"/>
          <path id="Path_1087092" data-name="Path 1087092" d="M214.266,247.211V231.146L201.1,224.683h-6.792v22.528Z" transform="translate(-174.776 -196.322)" fill="#bcbee2" fill-rule="evenodd"/>
        </g>
        <path id="Path_1087093" data-name="Path 1087093" d="M168.1,270.947H181.26V282.23H168.1Z" transform="translate(-44.733 -200.542)" fill="#f0f0ff"/>
        <path id="Path_1087094" data-name="Path 1087094" d="M169.019,18.712h2.728a4.218,4.218,0,0,1-.54-2.067c0-6.282,11.39-7.544,12.642-.551,4.071-3.442,9.183.81,6.751,5.171h3.343a3.1,3.1,0,0,1,0,6.2h-9.525a2.756,2.756,0,0,0-2.75,2.75v2.569h-7.66V30.216a2.755,2.755,0,0,0-2.75-2.75h-2.238a4.377,4.377,0,1,1,0-8.754Z" transform="translate(-42.117 -4.058)" fill="#d1d1f0" fill-rule="evenodd"/>
        <path id="Path_1087095" data-name="Path 1087095" d="M187.537,11.851a5.6,5.6,0,0,1,4.821,4.608c4.071-3.442,9.183.81,6.751,5.171h3.343a3.1,3.1,0,0,1,0,6.2h-9.525a2.756,2.756,0,0,0-2.75,2.75V33.15h-4.928V30.581a2.755,2.755,0,0,0-2.75-2.75H180.26a4.377,4.377,0,1,1,0-8.754h2.728a4.219,4.219,0,0,1-.54-2.067c0-2.873,2.383-4.7,5.089-5.159Z" transform="translate(-50.626 -4.423)" fill="#e9e9ff" fill-rule="evenodd"/>
        <rect id="Rectangle_420358" data-name="Rectangle 420358" width="13.845" height="5.041" rx="2.521" transform="translate(128.797 28.727)" fill="#d76a00"/>
        <rect id="Rectangle_420359" data-name="Rectangle 420359" width="9.827" height="5.041" rx="2.521" transform="translate(128.797 28.727)" fill="#e37500"/>
        <path id="Path_1087096" data-name="Path 1087096" d="M312.376,52.083h2.481a3.1,3.1,0,0,1,0,6.2h-2.481a3.1,3.1,0,0,1,0-6.2Z" transform="translate(-151.596 -34.876)" fill="#d1d1f0"/>
        <rect id="Rectangle_420360" data-name="Rectangle 420360" width="6.214" height="6.2" rx="3.1" transform="translate(160.148 17.207)" fill="#e9e9ff"/>
        <path id="Path_1087097" data-name="Path 1087097" d="M253.271,43.186h-4.4a1.428,1.428,0,1,1,0-2.857h5a4.538,4.538,0,0,1-.591,2.857Z" transform="translate(-104.789 -25.979)" fill="#d1d1f0" fill-rule="evenodd"/>
        <path id="Path_1087098" data-name="Path 1087098" d="M182.881,339.457v10.549l-6.94,1.368-3.048,7.348,3.943,5.879-8.127,8.127-5.88-3.943-7.348,3.048-1.368,6.94H142.619l-1.368-6.94-7.348-3.048-5.88,3.943L119.9,364.6l3.943-5.879-3.048-7.348-6.941-1.368V339.457h17.507a17.669,17.669,0,1,0,34.016,0H182.88Z" transform="translate(-3.671 -252.399)" fill="#f9ac00" fill-rule="evenodd"/>
        <path id="Path_1087099" data-name="Path 1087099" d="M190.744,339.457v10.549l-6.94,1.368-3.048,7.348L184.7,364.6l-7.114,7.114-5.328-3.574-1.561.646,0,0-7.348,3.048-1.368,6.94h-9.7l-1.433-7.269-8.115-3.366-.964.647-4.368,2.929-7.114-7.114,3.943-5.879-3.665-8.86-6.323-1.247v-9.159h14.983a17.669,17.669,0,1,0,34.016,0h17.507Z" transform="translate(-11.534 -252.399)" fill="#fdc72e" fill-rule="evenodd"/>
        <path id="Path_1087100" data-name="Path 1087100" d="M278.555,339.457a17.682,17.682,0,0,1-17.008,22.472c-.374,0-.745-.013-1.113-.036a17.68,17.68,0,0,0,15.894-22.436h2.228Z" transform="translate(-114.625 -252.399)" fill="#f9ac00" fill-rule="evenodd"/>
        <path id="Path_1087101" data-name="Path 1087101" d="M168.1,270.947h6.372V282.23H168.1Z" transform="translate(-44.733 -200.542)" fill="#d1d1f0"/>
        <path id="Path_1087102" data-name="Path 1087102" d="M178,96.569l-5.958,1.173a1.222,1.222,0,0,0-.887.727l-3.048,7.345a1.223,1.223,0,0,0,.114,1.143L171.6,112l-6.708,6.711-5.049-3.386a1.209,1.209,0,0,0-1.142-.112l-7.343,3.046a1.217,1.217,0,0,0-.727.887l-1.173,5.958h-9.489l-1.177-5.958a1.21,1.21,0,0,0-.727-.887l-7.342-3.046a1.219,1.219,0,0,0-1.143.112l-5.045,3.386L117.823,112l3.383-5.046a1.217,1.217,0,0,0,.114-1.143l-3.048-7.345a1.22,1.22,0,0,0-.887-.727l-5.955-1.173v-8.3h14.71a18.908,18.908,0,1,0,37.479,3.551,19.124,19.124,0,0,0-.334-3.551H178v8.3Zm1.215-10.727H161.756a1.212,1.212,0,0,0-1.172,1.541,16.476,16.476,0,1,1-31.742,0,1.214,1.214,0,0,0-1.169-1.541H110.215A1.212,1.212,0,0,0,109,87.057V97.568a1.218,1.218,0,0,0,.98,1.193l6.3,1.241,2.548,6.141-3.578,5.335a1.22,1.22,0,0,0,.15,1.539l8.123,8.121a1.216,1.216,0,0,0,1.537.151l5.335-3.579,6.143,2.548,1.241,6.3a1.218,1.218,0,0,0,1.194.979h11.488a1.213,1.213,0,0,0,1.191-.979l1.242-6.3,6.142-2.548,5.335,3.579a1.216,1.216,0,0,0,1.537-.151l8.123-8.121a1.219,1.219,0,0,0,.151-1.539l-3.579-5.335L173.148,100l6.3-1.241a1.217,1.217,0,0,0,.981-1.193V87.057A1.214,1.214,0,0,0,179.212,85.842Zm-18.441-67.5h2.484a1.888,1.888,0,1,1,0,3.777h-2.484a1.888,1.888,0,0,1,0-3.777Zm0,6.207h2.484a4.319,4.319,0,1,0,0-8.638h-2.484a4.319,4.319,0,0,0,0,8.638ZM178,80.473H165.3V57.292H178ZM150.282,64.5l-12.5-6.136V56.109L149.747,49.2l13.121,7.575V80.473h-11.9V65.594a1.216,1.216,0,0,0-.681-1.091Zm-1.75,15.97V66.352L136.287,60.34H123.253l-11.822,5.8V80.473h10.746V70.405a1.216,1.216,0,0,1,1.215-1.216h13.177a1.217,1.217,0,0,1,1.216,1.216V80.473h10.748Zm-13.179,0H124.607V71.62h10.746ZM114.59,56.461l20.763-11.988V57.909H122.972a1.226,1.226,0,0,0-.535.124l-7.847,3.852V56.461Zm16.419-21.547-.63,9.624,5.58-3.222a1.216,1.216,0,0,1,1.824,1.052V53.3l3.786-2.186-1.059-16.2h-9.5Zm-.962-5.04h11.426v2.61H130.047Zm-.95-7.755h-2.239a3.166,3.166,0,1,1,0-6.332h2.73a1.214,1.214,0,0,0,1.059-1.81,3.052,3.052,0,0,1-.384-1.475c0-2.493,2.407-3.841,4.643-4.04,2.42-.215,5.089.848,5.6,3.7a1.215,1.215,0,0,0,1.981.714,3.256,3.256,0,0,1,4.321-.284,2.927,2.927,0,0,1,.875,3.317h-2.936a1.215,1.215,0,0,0,0,2.43h7.059a1.888,1.888,0,1,1,0,3.777h-9.385a3.971,3.971,0,0,0-3.966,3.969v1.355h-5.39V26.088A3.972,3.972,0,0,0,129.1,22.12ZM162.217,39.9l-1,13.119,3.194,1.843h12.919L176.189,39.9Zm-1.845-5.093H178.03v2.663H160.372Zm20.09,3.133v-3.6a1.96,1.96,0,0,0-1.959-1.96H159.9a1.963,1.963,0,0,0-1.96,1.96v3.6a1.961,1.961,0,0,0,1.838,1.954l-.9,11.777-8.524-4.922a1.217,1.217,0,0,0-1.216,0l-5.22,3.014-.992-15.148a2.2,2.2,0,0,0,.978-1.854V29.6a2.08,2.08,0,0,0-1.989-2.156h-1.031V26.088a1.54,1.54,0,0,1,1.537-1.538h9.385a4.319,4.319,0,1,0,0-8.638h-1.6a5.333,5.333,0,0,0-1.849-5.193,5.525,5.525,0,0,0-5.968-.66c-1.388-3.093-4.768-4.277-7.7-4.016-3.3.293-6.857,2.439-6.857,6.46a5.361,5.361,0,0,0,.068.854h-1.042a5.6,5.6,0,1,0,0,11.194H129.1a1.539,1.539,0,0,1,1.538,1.538v1.355h-1.03a2.08,2.08,0,0,0-1.989,2.156v3.159a2.194,2.194,0,0,0,.978,1.853L127.848,46l-15.08,8.707a1.214,1.214,0,0,0-.607,1.054v7.318L109.679,64.3A1.213,1.213,0,0,0,109,65.388v16.3a1.214,1.214,0,0,0,1.215,1.216h69a1.215,1.215,0,0,0,1.215-1.216V56.077a1.212,1.212,0,0,0-.648-1.069l-1.154-15.115a1.959,1.959,0,0,0,1.837-1.954Z" transform="translate(0 0)" fill-rule="evenodd"/>
      </g>
    </g>
  </g>
</svg>
