<svg xmlns="http://www.w3.org/2000/svg" xmlns:xlink="http://www.w3.org/1999/xlink" width="113" height="113" viewBox="0 0 113 113">
  <defs>
    <filter id="Path_982547" x="0" y="0" width="113" height="113" filterUnits="userSpaceOnUse">
      <feOffset dy="3" input="SourceAlpha"/>
      <feGaussianBlur stdDeviation="3" result="blur"/>
      <feFlood flood-opacity="0.161"/>
      <feComposite operator="in" in2="blur"/>
      <feComposite in="SourceGraphic"/>
    </filter>
  </defs>
  <g id="Group_1217638" data-name="Group 1217638" transform="translate(-610 -304)">
    <g id="Group_1216241" data-name="Group 1216241">
      <g id="Group_1215694" data-name="Group 1215694" transform="translate(-5 -196)">
        <g id="Group_1215521" data-name="Group 1215521" transform="translate(624 506)">
          <g id="Group_1214144" data-name="Group 1214144">
            <g id="Group_1200897" data-name="Group 1200897">
              <g id="Group_1200342" data-name="Group 1200342">
                <g id="Group_1185978" data-name="Group 1185978">
                  <g id="Group_1180760" data-name="Group 1180760">
                    <g id="Group_1174888" data-name="Group 1174888">
                      <g id="Group_1166845" data-name="Group 1166845">
                        <g id="Group_1166720" data-name="Group 1166720">
                          <g id="Group_1164305" data-name="Group 1164305">
                            <g id="Group_1163948" data-name="Group 1163948">
                              <g id="Group_1158168" data-name="Group 1158168">
                                <g id="Group_1152576" data-name="Group 1152576">
                                  <g id="Group_1148633" data-name="Group 1148633">
                                    <g id="Group_1148525" data-name="Group 1148525">
                                      <g transform="matrix(1, 0, 0, 1, -9, -6)" filter="url(#Path_982547)">
                                        <g id="Path_982547-2" data-name="Path 982547" transform="translate(9 6)" fill="#fff4e6">
                                          <path d="M 47.5 93.5 C 41.28937149047852 93.5 35.26533508300781 92.28397369384766 29.59518623352051 89.88570404052734 C 24.11771965026855 87.56893157958984 19.19813346862793 84.25196075439453 14.97309303283691 80.02691650390625 C 10.74804019927979 75.80186462402344 7.431066513061523 70.88229370117188 5.114293098449707 65.40481567382812 C 2.716026782989502 59.73468017578125 1.5 53.71062850952148 1.5 47.5 C 1.5 41.28937149047852 2.716026782989502 35.26533508300781 5.114293098449707 29.59518623352051 C 7.431066513061523 24.11771965026855 10.74804019927979 19.19813346862793 14.97309303283691 14.97309303283691 C 19.19813346862793 10.74804019927979 24.11771965026855 7.431066513061523 29.59518623352051 5.114293098449707 C 35.26533508300781 2.716026782989502 41.28937149047852 1.5 47.5 1.5 C 53.71062850952148 1.5 59.73468017578125 2.716026782989502 65.40481567382812 5.114293098449707 C 70.88229370117188 7.431066513061523 75.80186462402344 10.74804019927979 80.02691650390625 14.97309303283691 C 84.25196075439453 19.19813346862793 87.56893157958984 24.11771965026855 89.88570404052734 29.59518623352051 C 92.28397369384766 35.26533508300781 93.5 41.28937149047852 93.5 47.5 C 93.5 53.71062850952148 92.28397369384766 59.73468017578125 89.88570404052734 65.40481567382812 C 87.56893157958984 70.88229370117188 84.25196075439453 75.80186462402344 80.02691650390625 80.02691650390625 C 75.80186462402344 84.25196075439453 70.88229370117188 87.56893157958984 65.40481567382812 89.88570404052734 C 59.73468017578125 92.28397369384766 53.71062850952148 93.5 47.5 93.5 Z" stroke="none"/>
                                          <path d="M 47.5 3 C 41.49121475219727 3 35.66376876831055 4.176155090332031 30.17950439453125 6.495796203613281 C 24.88084411621094 8.736953735351562 20.12152099609375 11.94598388671875 16.03375244140625 16.03375244140625 C 11.94598388671875 20.12152099609375 8.736953735351562 24.88084411621094 6.495796203613281 30.17950439453125 C 4.176155090332031 35.66376876831055 3 41.49121475219727 3 47.5 C 3 53.50878524780273 4.176155090332031 59.33623123168945 6.495796203613281 64.82049560546875 C 8.736953735351562 70.11915588378906 11.94598388671875 74.87847900390625 16.03375244140625 78.96624755859375 C 20.12152099609375 83.05401611328125 24.88084411621094 86.26304626464844 30.17950439453125 88.50419616699219 C 35.66376876831055 90.82384490966797 41.49121475219727 92 47.5 92 C 53.50878524780273 92 59.33623123168945 90.82384490966797 64.82049560546875 88.50419616699219 C 70.11915588378906 86.26304626464844 74.87847900390625 83.05401611328125 78.96624755859375 78.96624755859375 C 83.05401611328125 74.87847900390625 86.26304626464844 70.11915588378906 88.50419616699219 64.82049560546875 C 90.82384490966797 59.33623123168945 92 53.50878524780273 92 47.5 C 92 41.49121475219727 90.82384490966797 35.66376876831055 88.50419616699219 30.17950439453125 C 86.26304626464844 24.88084411621094 83.05401611328125 20.12152099609375 78.96624755859375 16.03375244140625 C 74.87847900390625 11.94598388671875 70.11915588378906 8.736953735351562 64.82049560546875 6.495796203613281 C 59.33623123168945 4.176155090332031 53.50878524780273 3 47.5 3 M 47.5 0 C 73.7335205078125 0 95 21.2664794921875 95 47.5 C 95 73.7335205078125 73.7335205078125 95 47.5 95 C 21.2664794921875 95 0 73.7335205078125 0 47.5 C 0 21.2664794921875 21.2664794921875 0 47.5 0 Z" stroke="none" fill="#ff9d1c"/>
                                        </g>
                                      </g>
                                    </g>
                                  </g>
                                </g>
                              </g>
                            </g>
                          </g>
                        </g>
                      </g>
                    </g>
                  </g>
                </g>
              </g>
            </g>
          </g>
        </g>
      </g>
      <g id="Layer_1" transform="translate(620.701 313.16)">
        <g id="Group_1216240" data-name="Group 1216240" transform="translate(5.26 3.49)">
          <path id="Path_1085987" data-name="Path 1085987" d="M42.535,32.115a5.164,5.164,0,0,0,5.158,5.165h1.663V47.6H39.037v1.663a5.163,5.163,0,0,1-10.327,0V47.6H18.39V38.525H32.007a3.521,3.521,0,0,0,3.518-3.518V29.223A3.513,3.513,0,0,0,32.007,25.7H25.722l.652-1.393a1.992,1.992,0,1,0-3.61-1.683L21.328,25.7H18.39V16.63H49.357V26.953H47.693A5.159,5.159,0,0,0,42.535,32.115Z" transform="translate(-14.065 -12.302)" fill="#f2bf22"/>
          <path id="Path_1085988" data-name="Path 1085988" d="M28.4,39.091v5.784a3.521,3.521,0,0,1-3.518,3.518H7.76V35.573H14.2L15.636,32.5a1.992,1.992,0,1,1,3.61,1.683l-.652,1.393h6.285A3.513,3.513,0,0,1,28.4,39.091Z" transform="translate(-6.937 -22.169)" fill="#ffb69f"/>
          <path id="Path_1085989" data-name="Path 1085989" d="M38.9,98.7a2.694,2.694,0,0,1-2.692-2.689V91.874H30.788a.823.823,0,0,1,0-1.647H37.03a.823.823,0,0,1,.824.824v4.956a1.045,1.045,0,0,0,2.09,0V91.05a.823.823,0,0,1,.823-.824h9.5V87.159a.823.823,0,1,1,1.647,0V91.05a.823.823,0,0,1-.824.823h-9.5v4.133A2.693,2.693,0,0,1,38.9,98.7Zm-11.4-6.822h-.786a.823.823,0,1,1,0-1.647h.786a.823.823,0,0,1,0,1.647Z" transform="translate(-19.09 -59.046)" fill="#f8e5b0"/>
          <path id="Path_1085990" data-name="Path 1085990" d="M37.976,34.1v5.784a5.977,5.977,0,0,1-5.969,5.972H18.39V43.4H32.007a3.521,3.521,0,0,0,3.518-3.518V34.1a3.513,3.513,0,0,0-3.518-3.518H25.722l.652-1.393a1.992,1.992,0,1,0-3.61-1.683l-1.436,3.077H18.39V28.134h1.377l.777-1.663a4.442,4.442,0,0,1,8.462,1.663h3A5.976,5.976,0,0,1,37.976,34.1Z" transform="translate(-14.065 -17.181)" fill="#e8a61e"/>
          <path id="Path_1085991" data-name="Path 1085991" d="M161.332,16.62V47.587H151.009V45.923a5.163,5.163,0,0,0-10.327,0v1.663h-10.32V37.267H128.7a5.163,5.163,0,0,1,0-10.327h1.663V16.62h9.075V30.237a3.517,3.517,0,0,0,3.518,3.518h5.784a3.515,3.515,0,0,0,3.518-3.518V23.952l1.393.652a1.992,1.992,0,1,0,1.683-3.61l-3.077-1.436V16.62Z" transform="translate(-84.579 -12.295)" fill="#fc5d3d"/>
          <path id="Path_1085992" data-name="Path 1085992" d="M188.662,16.511a2,2,0,0,1-2.648.965l-1.393-.652v6.285a3.515,3.515,0,0,1-3.518,3.518h-5.784a3.517,3.517,0,0,1-3.518-3.518V5.99h12.82v6.44l3.077,1.436a1.992,1.992,0,0,1,.965,2.645Z" transform="translate(-116.942 -5.167)" fill="#ffb69f"/>
          <path id="Path_1085993" data-name="Path 1085993" d="M142.573,50.142h-3.892a.823.823,0,0,1-.823-.823v-9.5h-4.133a2.692,2.692,0,0,1,0-5.384h4.133V29.018a.824.824,0,0,1,1.647,0V35.26a.823.823,0,0,1-.824.823h-4.956a1.045,1.045,0,0,0,0,2.09h4.956A.823.823,0,0,1,139.5,39v9.5h3.068a.823.823,0,0,1,0,1.647Zm-3.892-23.595a.823.823,0,0,1-.823-.823v-.786a.824.824,0,0,1,1.647,0v.786A.824.824,0,0,1,138.681,26.547Z" transform="translate(-89.606 -17.32)" fill="#ffcbc3"/>
          <path id="Path_1085994" data-name="Path 1085994" d="M182.075,27.237v3a5.976,5.976,0,0,1-5.969,5.969h-5.784a5.977,5.977,0,0,1-5.972-5.969V16.62H166.8V30.237a3.517,3.517,0,0,0,3.518,3.518h5.784a3.515,3.515,0,0,0,3.518-3.518V23.952l1.393.652a1.992,1.992,0,1,0,1.683-3.61l-3.077-1.436V16.62h2.451V18l1.663.777A4.447,4.447,0,0,1,182.075,27.237Z" transform="translate(-111.946 -12.295)" fill="#b34f33"/>
          <path id="Path_1085995" data-name="Path 1085995" d="M175.227,130.512v9.075H161.609a3.521,3.521,0,0,0-3.518,3.518v5.784a3.517,3.517,0,0,0,3.518,3.518h6.285l-.652,1.393a1.992,1.992,0,1,0,3.61,1.683l1.436-3.077h2.938v9.075H144.26V151.159h1.663a5.163,5.163,0,0,0,0-10.327H144.26v-10.32h10.32v-1.663a5.163,5.163,0,0,1,10.327,0v1.663Z" transform="translate(-98.474 -84.096)" fill="#72c2e9"/>
          <path id="Path_1085996" data-name="Path 1085996" d="M206.887,171.95v12.82h-6.44l-1.436,3.077a1.992,1.992,0,1,1-3.61-1.683l.652-1.393h-6.285a3.517,3.517,0,0,1-3.518-3.518v-5.784a3.521,3.521,0,0,1,3.518-3.518Z" transform="translate(-126.632 -116.459)" fill="#ffb69f"/>
          <path id="Path_1085997" data-name="Path 1085997" d="M152.583,143.552a.823.823,0,0,1-.824-.824v-3.892a.823.823,0,0,1,.824-.824h9.5V133.88a2.692,2.692,0,0,1,5.384,0v4.133h5.418a.823.823,0,0,1,0,1.647h-6.241a.823.823,0,0,1-.824-.823V133.88a1.045,1.045,0,0,0-2.09,0v4.956a.823.823,0,0,1-.824.823h-9.5v3.068a.823.823,0,0,1-.824.824Zm24.38-3.892h-.786a.823.823,0,1,1,0-1.647h.786a.823.823,0,0,1,0,1.647Z" transform="translate(-103.503 -89.126)" fill="#c5e5fe"/>
          <path id="Path_1085998" data-name="Path 1085998" d="M181.261,170.472v5.784a3.517,3.517,0,0,0,3.518,3.518h6.285l-.652,1.393a1.992,1.992,0,1,0,3.61,1.683l1.436-3.077H198.4v2.451h-1.377l-.777,1.663a4.447,4.447,0,0,1-8.462-1.663h-3a5.976,5.976,0,0,1-5.969-5.969v-5.784a5.977,5.977,0,0,1,5.969-5.972H198.4v2.454H184.779A3.521,3.521,0,0,0,181.261,170.472Z" transform="translate(-121.643 -111.463)" fill="#48a6c8"/>
          <path id="Path_1085999" data-name="Path 1085999" d="M56.172,159.865a5.161,5.161,0,0,1-5.158,5.162H49.35v10.32H40.275V161.729a3.522,3.522,0,0,0-3.518-3.518H30.973a3.519,3.519,0,0,0-3.518,3.518v6.285l-1.393-.652a1.992,1.992,0,1,0-1.683,3.61l3.077,1.436v2.938H18.38V144.38H28.7v1.663a5.163,5.163,0,0,0,10.327,0V144.38H49.35V154.7h1.663A5.161,5.161,0,0,1,56.172,159.865Z" transform="translate(-14.058 -97.971)" fill="#13bf6d"/>
          <path id="Path_1086000" data-name="Path 1086000" d="M50.143,189.888v17.119H37.323v-6.44l-3.077-1.436a1.992,1.992,0,1,1,1.683-3.61l1.393.652v-6.285a3.519,3.519,0,0,1,3.518-3.518h5.784A3.521,3.521,0,0,1,50.143,189.888Z" transform="translate(-23.926 -126.13)" fill="#ffb69f"/>
          <path id="Path_1086001" data-name="Path 1086001" d="M92.8,177.911a.823.823,0,0,1-.823-.824V176.3a.823.823,0,0,1,1.647,0v.786A.823.823,0,0,1,92.8,177.911Zm0-4.08a.823.823,0,0,1-.823-.824v-6.241a.823.823,0,0,1,.823-.824H97.76a1.045,1.045,0,0,0,0-2.09H92.8a.823.823,0,0,1-.823-.824v-9.5H88.911a.823.823,0,1,1,0-1.647H92.8a.823.823,0,0,1,.823.824v9.5H97.76a2.692,2.692,0,0,1,0,5.384H93.627v5.418A.823.823,0,0,1,92.8,173.831Z" transform="translate(-60.805 -103.003)" fill="#76ffbb"/>
          <path id="Path_1086002" data-name="Path 1086002" d="M47.609,184.9v13.617H45.155V184.9a3.521,3.521,0,0,0-3.518-3.518H35.853a3.519,3.519,0,0,0-3.518,3.518v6.285l-1.393-.652a1.992,1.992,0,1,0-1.683,3.61l3.077,1.436v2.938H29.884v-1.377l-1.663-.777a4.442,4.442,0,0,1,1.663-8.462v-3a5.976,5.976,0,0,1,5.969-5.969h5.784A5.977,5.977,0,0,1,47.609,184.9Z" transform="translate(-18.938 -121.14)" fill="#139d6d"/>
          <circle id="Ellipse_14356" data-name="Ellipse 14356" cx="0.823" cy="0.823" r="0.823" transform="translate(11.76 25.4)"/>
          <path id="Path_1086003" data-name="Path 1086003" d="M14.549,37.672a.823.823,0,0,0,0-1.647H6.083a.823.823,0,0,0,0,1.647H8.762v8.251a.823.823,0,0,0,.823.823h9.5v.84a5.987,5.987,0,0,0,11.974,0v-.84h9.5a.823.823,0,0,0,.823-.823V35.6a.823.823,0,0,0-.823-.823H38.888a4.34,4.34,0,0,1,0-8.68h1.663a.823.823,0,0,0,.823-.823V14.953a.823.823,0,0,0-.823-.823H9.585a.823.823,0,0,0-.823.823V23.2H6.083a.823.823,0,1,0,0,1.647h6.44a.831.831,0,0,0,.748-.474L14.707,21.3a1.168,1.168,0,0,1,2.118.985l-.652,1.393a.823.823,0,0,0,.744,1.173H23.2A2.694,2.694,0,0,1,25.9,27.565H19.622a.823.823,0,1,0,0,1.647H25.9v2.456H19.622a.823.823,0,0,0,0,1.647H25.9A2.693,2.693,0,0,1,23.2,36.025H21.137a.823.823,0,0,0,0,1.647H23.2a4.35,4.35,0,0,0,4.341-4.322v-5.8A4.343,4.343,0,0,0,23.2,23.2h-4.99l.1-.221a2.815,2.815,0,1,0-5.1-2.382L12,23.2H10.409V15.777h29.32v8.676h-.84a5.987,5.987,0,0,0,0,11.974h.84V45.1h-9.5a.823.823,0,0,0-.823.823v1.663a4.34,4.34,0,0,1-8.68,0V45.924a.823.823,0,0,0-.823-.824h-9.5V37.672Z" transform="translate(-5.26 -10.625)"/>
          <circle id="Ellipse_14357" data-name="Ellipse 14357" cx="0.823" cy="0.823" r="0.823" transform="translate(54.035 11.756)"/>
          <path id="Path_1086004" data-name="Path 1086004" d="M127.859,29.285v9.5a.823.823,0,0,0,.824.824H139a.823.823,0,0,0,.824-.824V37.118a4.34,4.34,0,0,1,8.68,0v1.663a.823.823,0,0,0,.823.824h10.323a.823.823,0,0,0,.824-.824V7.815a.823.823,0,0,0-.824-.823H151.4V4.313a.823.823,0,1,0-1.647,0v6.44a.817.817,0,0,0,.474.744l3.077,1.439a1.168,1.168,0,1,1-.985,2.118l-1.393-.652a.822.822,0,0,0-1.173.744v6.285a2.694,2.694,0,0,1-2.714,2.694V17.852a.823.823,0,1,0-1.647,0v6.275h-2.455V17.852a.823.823,0,1,0-1.647,0v6.275a2.7,2.7,0,0,1-2.71-2.694V19.364a.824.824,0,0,0-1.647,0v2.069a4.343,4.343,0,0,0,4.3,4.341h5.83a4.346,4.346,0,0,0,4.341-4.341v-4.99l.221.1a2.813,2.813,0,1,0,2.378-5.1l-2.6-1.215V8.639h7.427v29.32h-8.676v-.84a5.987,5.987,0,0,0-11.974,0v.84h-8.673v-9.5a.823.823,0,0,0-.824-.823h-1.663a4.34,4.34,0,0,1,0-8.68h1.663a.823.823,0,0,0,.824-.823v-9.5h7.429v4.137a.823.823,0,1,0,1.647,0V4.314a.823.823,0,1,0-1.647,0V6.992h-8.252a.823.823,0,0,0-.823.823v9.5h-.84a5.987,5.987,0,0,0,0,11.974Z" transform="translate(-82.9 -3.49)"/>
          <path id="Path_1086005" data-name="Path 1086005" d="M168.586,137.089a.824.824,0,0,0,0,1.647h8.466a.824.824,0,0,0,0-1.647h-2.678v-8.25a.823.823,0,0,0-.824-.823h-9.5v-.84a5.987,5.987,0,0,0-11.974,0v.84h-9.5a.823.823,0,0,0-.824.823v10.32a.823.823,0,0,0,.824.823h1.663a4.34,4.34,0,0,1,0,8.68h-1.663a.823.823,0,0,0-.824.823v10.323a.823.823,0,0,0,.824.823H173.55a.823.823,0,0,0,.824-.823v-8.252h2.678a.823.823,0,1,0,0-1.647h-6.44a.828.828,0,0,0-.748.478l-1.436,3.073a1.167,1.167,0,1,1-2.118-.982l.652-1.4a.825.825,0,0,0-.744-1.173h-6.285a2.691,2.691,0,0,1-2.694-2.712h6.275a.823.823,0,1,0,0-1.647h-6.275v-2.455h6.275a.824.824,0,1,0,0-1.647h-6.275v-.017a2.692,2.692,0,0,1,2.694-2.694H162a.824.824,0,0,0,0-1.647h-2.069a4.36,4.36,0,0,0-4.341,4.3v5.824a4.345,4.345,0,0,0,4.341,4.341h4.99l-.1.221a2.814,2.814,0,1,0,5.1,2.382l1.215-2.6h1.591v7.429h-29.32v-8.676h.84a5.987,5.987,0,0,0,0-11.974h-.84v-8.673h9.5a.823.823,0,0,0,.823-.824v-1.663a4.34,4.34,0,0,1,8.68,0v1.663a.823.823,0,0,0,.823.824h9.5v7.427Z" transform="translate(-96.797 -82.422)"/>
          <path id="Path_1086006" data-name="Path 1086006" d="M210.7,170.273a.825.825,0,1,0,.827-.823A.827.827,0,0,0,210.7,170.273Z" transform="translate(-143.028 -114.783)"/>
          <circle id="Ellipse_14358" data-name="Ellipse 14358" cx="0.823" cy="0.823" r="0.823" transform="translate(25.393 68.298)"/>
          <path id="Path_1086007" data-name="Path 1086007" d="M37.776,177.174a.823.823,0,1,0,1.647,0V174.5h8.252a.823.823,0,0,0,.823-.824v-9.5h.84a5.987,5.987,0,0,0,0-11.974H48.5v-9.5a.823.823,0,0,0-.824-.823H37.356a.823.823,0,0,0-.824.823v1.663a4.34,4.34,0,0,1-8.68,0v-1.663a.823.823,0,0,0-.823-.823H16.705a.823.823,0,0,0-.823.823v30.967a.823.823,0,0,0,.823.824h8.251v2.677a.823.823,0,0,0,1.647,0v-6.44a.824.824,0,0,0-.474-.744l-3.077-1.436a1.169,1.169,0,0,1,.982-2.121l1.4.656a.826.826,0,0,0,1.173-.748v-6.285a2.694,2.694,0,0,1,2.713-2.694v6.276a.823.823,0,1,0,1.647,0v-6.276h2.456v6.276a.823.823,0,1,0,1.647,0v-6.276a2.7,2.7,0,0,1,2.71,2.694v2.069a.823.823,0,1,0,1.647,0v-2.069a4.348,4.348,0,0,0-4.3-4.341H29.3a4.342,4.342,0,0,0-4.341,4.341v4.99l-.221-.1a2.815,2.815,0,0,0-2.382,5.1l2.6,1.212v1.592H17.529v-29.32h8.676v.84a5.987,5.987,0,0,0,11.974,0v-.84h8.673v9.5a.823.823,0,0,0,.824.824h1.663a4.34,4.34,0,0,1,0,8.68H47.676a.823.823,0,0,0-.823.824v9.5H39.423v-4.138a.823.823,0,1,0-1.647,0Z" transform="translate(-12.383 -96.297)"/>
        </g>
      </g>
    </g>
  </g>
</svg>
