<svg xmlns="http://www.w3.org/2000/svg" xmlns:xlink="http://www.w3.org/1999/xlink" width="93.934" height="93.934" viewBox="0 0 93.934 93.934">
  <defs>
    <filter id="Path_982547" x="0" y="0" width="93.934" height="93.934" filterUnits="userSpaceOnUse">
      <feOffset dy="3" input="SourceAlpha"/>
      <feGaussianBlur stdDeviation="3" result="blur"/>
      <feFlood flood-opacity="0.161"/>
      <feComposite operator="in" in2="blur"/>
      <feComposite in="SourceGraphic"/>
    </filter>
  </defs>
  <g id="Group_1217674" data-name="Group 1217674" transform="translate(-1035.066 -3255.533)">
    <g id="Group_1216648" data-name="Group 1216648">
      <g id="Group_1215801" data-name="Group 1215801" transform="translate(0 -2743)">
        <g id="Group_1214402" data-name="Group 1214402" transform="translate(7 5101.669)">
          <g id="Group_1206327" data-name="Group 1206327" transform="translate(839.066 -3717.169)">
            <g id="Group_1183815" data-name="Group 1183815" transform="translate(0 4267.973)">
              <g id="Group_1181939" data-name="Group 1181939" transform="translate(0 -388.939)">
                <g id="Group_1175133" data-name="Group 1175133" transform="translate(-0.033 -1251)">
                  <g id="Group_1167337" data-name="Group 1167337" transform="translate(198.033 1992)">
                    <g id="Group_1166720" data-name="Group 1166720">
                      <g id="Group_1164305" data-name="Group 1164305">
                        <g id="Group_1163948" data-name="Group 1163948">
                          <g id="Group_1158168" data-name="Group 1158168">
                            <g id="Group_1152576" data-name="Group 1152576">
                              <g id="Group_1148633" data-name="Group 1148633">
                                <g id="Group_1148525" data-name="Group 1148525">
                                  <g transform="matrix(1, 0, 0, 1, -9, -6)" filter="url(#Path_982547)">
                                    <g id="Path_982547-2" data-name="Path 982547" transform="translate(9 6)" fill="#f2f7e5">
                                      <path d="M 37.966796875 74.43359375 C 33.04315185546875 74.43359375 28.26757431030273 73.46962738037109 23.77274131774902 71.56847381591797 C 19.43047523498535 69.73184967041016 15.53040790557861 67.10224914550781 12.18087482452393 63.75271987915039 C 8.831341743469238 60.4031867980957 6.201741218566895 56.50312042236328 4.365118980407715 52.16086196899414 C 2.463963508605957 47.66601943969727 1.499996900558472 42.89044189453125 1.499996900558472 37.966796875 C 1.499996900558472 33.04315185546875 2.463963508605957 28.26757431030273 4.365118980407715 23.77274131774902 C 6.201741218566895 19.43047523498535 8.831341743469238 15.53040790557861 12.18087482452393 12.18087482452393 C 15.53040790557861 8.831341743469238 19.43047523498535 6.201741218566895 23.77274131774902 4.365118980407715 C 28.26757431030273 2.463963508605957 33.04315185546875 1.499996900558472 37.966796875 1.499996900558472 C 42.89044189453125 1.499996900558472 47.66601943969727 2.463963508605957 52.16086196899414 4.365118980407715 C 56.50312042236328 6.201741218566895 60.4031867980957 8.831341743469238 63.75271987915039 12.18087482452393 C 67.10224914550781 15.53040790557861 69.73184967041016 19.43047523498535 71.56847381591797 23.77274131774902 C 73.46962738037109 28.26757431030273 74.43359375 33.04315185546875 74.43359375 37.966796875 C 74.43359375 42.89044189453125 73.46962738037109 47.66601943969727 71.56847381591797 52.16086196899414 C 69.73184967041016 56.50313186645508 67.10224914550781 60.4031867980957 63.75271987915039 63.75271987915039 C 60.4031867980957 67.10224914550781 56.50313186645508 69.73184967041016 52.16086196899414 71.56847381591797 C 47.66601943969727 73.46962738037109 42.89044189453125 74.43359375 37.966796875 74.43359375 Z" stroke="none"/>
                                      <path d="M 37.966796875 3 C 33.2449836730957 3 28.66600799560547 3.924095153808594 24.35705947875977 5.746635437011719 C 20.19359588623047 7.507637023925781 16.45379638671875 10.02928161621094 13.24153518676758 13.24153518676758 C 10.02927398681641 16.45379638671875 7.507621765136719 20.19359588623047 5.746635437011719 24.35705947875977 C 3.924095153808594 28.66600799560547 3 33.2449836730957 3 37.966796875 C 3 42.6886100769043 3.924095153808594 47.26758575439453 5.746635437011719 51.57653427124023 C 7.507621765136719 55.73999786376953 10.02927398681641 59.47979736328125 13.24153518676758 62.69205856323242 C 16.45379638671875 65.90431976318359 20.19359588623047 68.42597198486328 24.35705947875977 70.18695831298828 C 28.66600799560547 72.00949859619141 33.2449836730957 72.93359375 37.966796875 72.93359375 C 42.6886100769043 72.93359375 47.26758575439453 72.00949859619141 51.57653427124023 70.18695831298828 C 55.73999786376953 68.42597198486328 59.47979736328125 65.90431976318359 62.69205856323242 62.69205856323242 C 65.90431976318359 59.47979736328125 68.42597198486328 55.73999786376953 70.18695831298828 51.57653427124023 C 72.00949859619141 47.26758575439453 72.93359375 42.6886100769043 72.93359375 37.966796875 C 72.93359375 33.2449836730957 72.00949859619141 28.66600799560547 70.18695831298828 24.35705947875977 C 68.42597198486328 20.19359588623047 65.90431976318359 16.45379638671875 62.69205856323242 13.24153518676758 C 59.47979736328125 10.02928161621094 55.73999786376953 7.507637023925781 51.57653427124023 5.746635437011719 C 47.26758575439453 3.924095153808594 42.6886100769043 3 37.966796875 3 M 37.966796875 0 C 58.93528366088867 0 75.93359375 16.99832153320312 75.93359375 37.966796875 C 75.93359375 58.93528366088867 58.93528366088867 75.93359375 37.966796875 75.93359375 C 16.99831008911133 75.93359375 0 58.93528366088867 0 37.966796875 C 0 16.99832153320312 16.99831008911133 0 37.966796875 0 Z" stroke="none" fill="#86b60c"/>
                                    </g>
                                  </g>
                                </g>
                              </g>
                            </g>
                          </g>
                        </g>
                      </g>
                    </g>
                  </g>
                </g>
              </g>
            </g>
          </g>
        </g>
      </g>
      <g id="el-respeto" transform="translate(1048.135 3269.201)">
        <path id="Path_1086760" data-name="Path 1086760" d="M234.224,12.765l1.454,7.271,5.448-5.448a4.635,4.635,0,0,0,0-6.554l-.149-.149a1.324,1.324,0,0,0-1.873,0Z" transform="translate(-203.209 -6.501)" fill="#d78878"/>
        <path id="Path_1086761" data-name="Path 1086761" d="M236.42,25.152l-2.859,5.867-5.448-5.448a4.635,4.635,0,0,1,0-6.554l.149-.149a1.324,1.324,0,0,1,1.873,0Z" transform="translate(-196.73 -16.03)" fill="#fed2a4"/>
        <path id="Path_1086762" data-name="Path 1086762" d="M234.823,214.531a3.356,3.356,0,0,1,2.228.967l5.611,5.611,7.15-4.2,4.484-7.431-5.611-5.611a3.356,3.356,0,0,1-.967-2.228,12.379,12.379,0,0,0-.385-2.549l-15.058,15.058A12.39,12.39,0,0,0,234.823,214.531Z" transform="translate(-201.516 -172.723)" fill="#fff3de"/>
        <path id="Path_1086763" data-name="Path 1086763" d="M303.732,203.865a3.356,3.356,0,0,1-.967-2.228,12.387,12.387,0,0,0-.385-2.549l-3.432,3.432a3.3,3.3,0,0,0,.812,1.345l3.546,3.546a2.92,2.92,0,0,1,0,4.13l-7.583,7.583,1.986,1.986,7.15-4.2,4.484-7.431Z" transform="translate(-256.564 -172.723)" fill="#ffe5c2"/>
        <path id="Path_1086764" data-name="Path 1086764" d="M139.645,66.613l-1.554-1.554a1.986,1.986,0,0,0-2.809,0L123.6,76.743A12.3,12.3,0,0,0,120,84.9a3.356,3.356,0,0,1-.967,2.228l-5.611,5.611,2.427,7.381,9.207,4.253,5.611-5.611a3.356,3.356,0,0,1,2.228-.967,12.3,12.3,0,0,0,8.159-3.6l7.221-7.221h0l2.958-2.958a1.986,1.986,0,0,0,0-2.809l-1.554-1.554a1.986,1.986,0,0,0-2.809,0l1.5-1.5a1.986,1.986,0,0,0,0-2.809l-1.554-1.554a1.986,1.986,0,0,0-2.809,0,1.986,1.986,0,0,0,0-2.809l-1.554-1.554a1.986,1.986,0,0,0-2.809,0A1.986,1.986,0,0,0,139.645,66.613Z" transform="translate(-98.4 -55.937)" fill="#f1b0a2"/>
        <path id="Path_1086765" data-name="Path 1086765" d="M166.621,81.2l-1.554-1.554a1.986,1.986,0,0,0-2.809,0l1.5-1.5a1.986,1.986,0,0,0,0-2.809l-1.554-1.554a1.986,1.986,0,0,0-2.809,0,1.986,1.986,0,0,0,0-2.809l-1.554-1.554a1.986,1.986,0,0,0-2.809,0,1.986,1.986,0,0,0,0-2.809l-1.554-1.554a1.986,1.986,0,0,0-2.809,0l-1.424,1.424,6.441,6.441a9.953,9.953,0,0,1,0,14.075l-4.547,4.547a12.284,12.284,0,0,1-6.629,3.436,9.985,9.985,0,0,0-5.386,2.761l-3.982,3.982-3.988-1.842.078.238,9.207,4.253,5.611-5.611a3.356,3.356,0,0,1,2.228-.967,12.3,12.3,0,0,0,8.159-3.6l10.179-10.18A1.986,1.986,0,0,0,166.621,81.2Z" transform="translate(-113.792 -55.936)" fill="#eb9c8d"/>
        <path id="Path_1086766" data-name="Path 1086766" d="M118.733,184.384a3.085,3.085,0,0,1-4.363,0l-5.14-5.14a1.986,1.986,0,0,1,0-2.809l1.554-1.554a1.986,1.986,0,0,1,2.809,0l5.14,5.14A3.085,3.085,0,0,1,118.733,184.384Z" transform="translate(-94.262 -151.217)" fill="#ffe5c2"/>
        <path id="Path_1086767" data-name="Path 1086767" d="M140.7,140.455a3.085,3.085,0,0,1-4.363,0l-5.14-5.14a1.986,1.986,0,0,1,0-2.809l1.554-1.554a1.986,1.986,0,0,1,2.809,0l5.14,5.14A3.085,3.085,0,0,1,140.7,140.455Z" transform="translate(-113.318 -113.105)" fill="#fff3de"/>
        <path id="Path_1086768" data-name="Path 1086768" d="M173.645,107.509a3.085,3.085,0,0,1-4.363,0l-5.14-5.14a1.986,1.986,0,0,1,0-2.809l1.554-1.554a1.986,1.986,0,0,1,2.809,0l5.14,5.14A3.085,3.085,0,0,1,173.645,107.509Z" transform="translate(-141.902 -84.521)" fill="#ffe5c2"/>
        <path id="Path_1086769" data-name="Path 1086769" d="M206.591,74.562a3.085,3.085,0,0,1-4.363,0l-5.14-5.14a1.986,1.986,0,0,1,0-2.809l1.554-1.554a1.986,1.986,0,0,1,2.809,0l5.14,5.14A3.085,3.085,0,0,1,206.591,74.562Z" transform="translate(-170.486 -55.937)" fill="#fff3de"/>
        <path id="Path_1086770" data-name="Path 1086770" d="M21.525,277.91,7.694,291.741a.663.663,0,0,0-.194.468v15.042a.662.662,0,0,0,.662.662h12.17a.663.663,0,0,0,.468-.194l14.8-14.8a.662.662,0,0,0,0-.936Z" transform="translate(-6.507 -241.108)" fill="#c8effe"/>
        <path id="Path_1086771" data-name="Path 1086771" d="M318.929,291.366,305.1,277.535l-14.074,14.074a.662.662,0,0,0,0,.936l14.849,14.849a.662.662,0,0,0,.468.194h12.12a.662.662,0,0,0,.662-.662V291.835A.663.663,0,0,0,318.929,291.366Z" transform="translate(-252.319 -240.782)" fill="#ffc344"/>
        <path id="Path_1086772" data-name="Path 1086772" d="M67.313,49.882,49.871,32.44l3.66-3.661a2.983,2.983,0,0,0,0-4.213l-1.554-1.554a2.965,2.965,0,0,0-.892-.614,2.98,2.98,0,0,0-.413-3.7l-1.554-1.554a2.958,2.958,0,0,0-1.942-.868,2.967,2.967,0,0,0-.867-1.941l-1.554-1.554a2.967,2.967,0,0,0-1.941-.867,2.957,2.957,0,0,0-.868-1.942L40.393,8.42l-.005-.005-.842-.842A5.621,5.621,0,0,0,38.62.83L38.471.68a2.32,2.32,0,0,0-3.277,0l-1.28,1.28a2.321,2.321,0,0,0-3.083.174l-.149.149a5.629,5.629,0,0,0-1.493,5.288,2.965,2.965,0,0,0-1.735.848L25.9,9.974a2.957,2.957,0,0,0-.868,1.942,2.968,2.968,0,0,0-1.941.867l-1.554,1.554a2.957,2.957,0,0,0-.868,1.942,2.968,2.968,0,0,0-1.941.867L17.175,18.7a2.984,2.984,0,0,0-.447,3.642,2.965,2.965,0,0,0-.908.621l-1.554,1.554a2.983,2.983,0,0,0,0,4.213l3.71,3.71L.485,49.932A1.644,1.644,0,0,0,0,51.1V66.144A1.657,1.657,0,0,0,1.655,67.8h12.17A1.644,1.644,0,0,0,15,67.314l4.028-4.028a.993.993,0,0,0-1.4-1.4l-3.931,3.931H1.986V51.239L15.019,38.207,28.156,51.345l-7.191,7.191a.993.993,0,0,0,1.4,1.4l7.425-7.425a1.657,1.657,0,0,0,0-2.341l-1.738-1.738,4.908-4.908a2.312,2.312,0,0,1,1.011-.588,2.3,2.3,0,0,1,.856.538l4.909,4.909L38,50.125a1.657,1.657,0,0,0,0,2.341L52.851,67.314a1.645,1.645,0,0,0,1.17.485h12.12A1.657,1.657,0,0,0,67.8,66.144V51.052a1.645,1.645,0,0,0-.485-1.17Zm-26.77-37.1-2.665,2.665a4.052,4.052,0,0,0-1.07-1.888L35.328,12.08l2.256-2.256a.993.993,0,0,1,1.4,0l1.554,1.554A.993.993,0,0,1,40.542,12.783Zm-3.476-10.7.149.149a3.639,3.639,0,0,1,.84,3.848L35.328,3.355l1.27-1.27a.332.332,0,0,1,.468,0Zm-4.98,1.6.149-.149a.332.332,0,0,1,.468,0l4.3,4.3a2.98,2.98,0,0,0-.822.583l-2.256,2.256L32.086,8.838a3.646,3.646,0,0,1,0-5.15ZM22.942,15.741,24.5,14.187a.994.994,0,0,1,1.4,0l0,0,0,0L27.015,15.3a.993.993,0,0,0,1.4-1.4L27.3,12.783a.993.993,0,0,1,0-1.4l1.554-1.554a.994.994,0,0,1,1.4,0l5.14,5.14a2.092,2.092,0,0,1-2.958,2.958l-.727-.727a.993.993,0,0,0-1.4,1.4l.727.727a2.092,2.092,0,1,1-2.958,2.958l-5.139-5.14A.993.993,0,0,1,22.942,15.741ZM18.579,20.1l1.554-1.554a.994.994,0,0,1,1.4,0l5.139,5.14a2.092,2.092,0,0,1-2.958,2.958l-5.139-5.14A.994.994,0,0,1,18.579,20.1ZM15.671,25.92l1.554-1.554a.994.994,0,0,1,1.4,0l5.139,5.139a2.092,2.092,0,0,1-2.958,2.958l-5.139-5.139A.994.994,0,0,1,15.671,25.92ZM36.73,42.567a13.3,13.3,0,0,0,6.622-3.608l.124-.124a.993.993,0,1,0-1.4-1.4l-.124.124a11.317,11.317,0,0,1-7.5,3.311,4.344,4.344,0,0,0-2.885,1.257l-4.908,4.909L16.423,36.8l2.958-2.958.025.025a4.08,4.08,0,0,0,6.542-4.691,4.081,4.081,0,0,0,3.329-4.01q0-.15-.011-.3.147.011.3.011a4.072,4.072,0,0,0,4.065-4.373q.148.011.3.011a4.066,4.066,0,0,0,2.884-1.193l5.139-5.14a.994.994,0,0,1,1.4,0L44.9,15.741a.994.994,0,0,1,0,1.4l-4.462,4.462a.993.993,0,1,0,1.4,1.4l4.462-4.462a.993.993,0,0,1,1.4,0L49.267,20.1a.993.993,0,0,1,0,1.4L44.805,25.97a.993.993,0,1,0,1.4,1.4l2.958-2.958a.994.994,0,0,1,1.4,0l1.554,1.554a.994.994,0,0,1,0,1.4L45.511,33.99a.993.993,0,0,0,1.4,1.4l1.55-1.55,2.908,2.908L41.145,46.982ZM65.811,65.813H54.159L39.641,51.295,52.779,38.157,65.811,51.189Z"/>
        <path id="Path_1086773" data-name="Path 1086773" d="M116.34,324.76a.993.993,0,0,0,0-1.4l-8.725-8.725a.993.993,0,1,0-1.4,1.4l8.725,8.725A.993.993,0,0,0,116.34,324.76Z" transform="translate(-91.894 -272.713)"/>
        <path id="Path_1086774" data-name="Path 1086774" d="M334.2,314.255l-8.725,8.725a.993.993,0,0,0,1.4,1.4l8.725-8.725a.993.993,0,0,0-1.4-1.4Z" transform="translate(-282.128 -272.388)"/>
      </g>
    </g>
  </g>
</svg>
