<svg xmlns="http://www.w3.org/2000/svg" xmlns:xlink="http://www.w3.org/1999/xlink" width="103" height="103" viewBox="0 0 103 103">
  <defs>
    <filter id="Path_978624" x="0" y="0" width="103" height="103" filterUnits="userSpaceOnUse">
      <feOffset dy="3" input="SourceAlpha"/>
      <feGaussianBlur stdDeviation="3" result="blur"/>
      <feFlood flood-opacity="0.161"/>
      <feComposite operator="in" in2="blur"/>
      <feComposite in="SourceGraphic"/>
    </filter>
  </defs>
  <g id="Group_1217689" data-name="Group 1217689" transform="translate(-612 -7153)">
    <g id="Group_1216699" data-name="Group 1216699">
      <g id="Group_1215838" data-name="Group 1215838" transform="translate(621 7159)">
        <g id="Group_1208646" data-name="Group 1208646">
          <g id="Group_1180764" data-name="Group 1180764">
            <g id="Group_1179463" data-name="Group 1179463">
              <g id="Group_1144531" data-name="Group 1144531">
                <g transform="matrix(1, 0, 0, 1, -9, -6)" filter="url(#Path_978624)">
                  <g id="Path_978624-2" data-name="Path 978624" transform="translate(9 6)" fill="#fff4e6">
                    <path d="M 42.5 83.5 C 36.96437835693359 83.5 31.59512901306152 82.41617584228516 26.54141235351562 80.27863311767578 C 21.65934181213379 78.21369171142578 17.27447128295898 75.25723266601562 13.50862312316895 71.49137878417969 C 9.742764472961426 67.72553253173828 6.786305904388428 63.34066009521484 4.721364498138428 58.45858764648438 C 2.583823442459106 53.40486907958984 1.5 48.03562164306641 1.5 42.5 C 1.5 36.96437835693359 2.583823442459106 31.59512901306152 4.721364498138428 26.54141235351562 C 6.786305904388428 21.65934181213379 9.742764472961426 17.27447128295898 13.50862312316895 13.50862312316895 C 17.27447128295898 9.742764472961426 21.65934181213379 6.786305904388428 26.54141235351562 4.721364498138428 C 31.59512901306152 2.583823442459106 36.96437835693359 1.5 42.5 1.5 C 48.03562164306641 1.5 53.40486907958984 2.583823442459106 58.45858764648438 4.721364498138428 C 63.34066009521484 6.786305904388428 67.72553253173828 9.742764472961426 71.49137878417969 13.50862312316895 C 75.25723266601562 17.27447128295898 78.21369171142578 21.65934181213379 80.27863311767578 26.54141235351562 C 82.41617584228516 31.59512901306152 83.5 36.96437835693359 83.5 42.5 C 83.5 48.03562164306641 82.41617584228516 53.40486907958984 80.27863311767578 58.45858764648438 C 78.21369171142578 63.34066009521484 75.25723266601562 67.72553253173828 71.49137878417969 71.49137878417969 C 67.72553253173828 75.25723266601562 63.34066009521484 78.21369171142578 58.45858764648438 80.27863311767578 C 53.40486907958984 82.41617584228516 48.03562164306641 83.5 42.5 83.5 Z" stroke="none"/>
                    <path d="M 42.5 3 C 37.16621398925781 3 31.99356079101562 4.043960571289062 27.125732421875 6.102882385253906 C 22.42246627807617 8.092185974121094 18.19785308837891 10.94070434570312 14.56928253173828 14.56928253173828 C 10.94070434570312 18.19785308837891 8.092185974121094 22.42246627807617 6.102882385253906 27.125732421875 C 4.043960571289062 31.99356079101562 3 37.16621398925781 3 42.5 C 3 47.83378601074219 4.043960571289062 53.00643920898438 6.102882385253906 57.87425231933594 C 8.092185974121094 62.57753372192383 10.94070434570312 66.80213165283203 14.56928253173828 70.43071746826172 C 18.19786834716797 74.05929565429688 22.42246627807617 76.90781402587891 27.125732421875 78.89711761474609 C 31.99356079101562 80.95603942871094 37.16621398925781 82 42.5 82 C 47.83378601074219 82 53.00642395019531 80.95603942871094 57.87425231933594 78.89711761474609 C 62.57753372192383 76.90781402587891 66.80213165283203 74.05929565429688 70.43071746826172 70.43071746826172 C 74.05929565429688 66.80213165283203 76.90781402587891 62.57753372192383 78.89711761474609 57.87425231933594 C 80.95603942871094 53.00642395019531 82 47.83378601074219 82 42.5 C 82 37.16621398925781 80.95603942871094 31.99356079101562 78.89711761474609 27.125732421875 C 76.90781402587891 22.42246627807617 74.05929565429688 18.19786834716797 70.43071746826172 14.56928253173828 C 66.80213165283203 10.94070434570312 62.57753372192383 8.092185974121094 57.87425231933594 6.102882385253906 C 53.00643920898438 4.043960571289062 47.83378601074219 3 42.5 3 M 42.5 0 C 65.97209167480469 0 85 19.02789306640625 85 42.5 C 85 65.97209167480469 65.97209167480469 85 42.5 85 C 19.02789306640625 85 0 65.97209167480469 0 42.5 C 0 19.02789306640625 19.02789306640625 0 42.5 0 Z" stroke="none" fill="#ff9d1c"/>
                  </g>
                </g>
              </g>
            </g>
          </g>
        </g>
      </g>
      <g id="cultura-en-el-lugar-de-trabajo" transform="translate(609.686 7173.442)">
        <g id="Group_1216697" data-name="Group 1216697" transform="translate(21.239 1.07)">
          <g id="Group_1216696" data-name="Group 1216696" transform="translate(0)">
            <path id="Path_1087043" data-name="Path 1087043" d="M126.294,92.586H111.6a1.427,1.427,0,0,0-1.427,1.427v7.848a.713.713,0,0,1-.713.713H105.97A1.427,1.427,0,0,0,104.543,104v30.1h5.986a4.787,4.787,0,0,1,3.011,1.052l.131.1.082-.145a5.918,5.918,0,0,1,5.135-2.993h7.406Z" transform="translate(-93.575 -80.447)" fill="#a79ba7"/>
            <path id="Path_1087044" data-name="Path 1087044" d="M231.382,92.586h3.655v39.536h-3.655Z" transform="translate(-202.319 -80.447)" fill="#918291"/>
            <path id="Path_1087045" data-name="Path 1087045" d="M263.263,59.174a5.918,5.918,0,0,1,5.135,2.993l.082.145.131-.1a4.787,4.787,0,0,1,3.011-1.052h6.5V33.2a1.427,1.427,0,0,0-1.427-1.427h-3.665a.713.713,0,0,1-.713-.713V8.927A1.427,1.427,0,0,0,270.9,7.5H257.427A1.427,1.427,0,0,0,256,8.927V59.174Z" transform="translate(-223.425 -7.5)" fill="#e2dee2"/>
            <g id="Group_1216688" data-name="Group 1216688" transform="translate(45.175 0)">
              <path id="Path_1087046" data-name="Path 1087046" d="M345.738,31.778h3.009a.713.713,0,0,1-.713-.713V8.927A1.427,1.427,0,0,0,346.607,7.5h-2.3V30.351A1.427,1.427,0,0,0,345.738,31.778Z" transform="translate(-344.311 -7.5)" fill="#cbc4cc"/>
              <g id="Group_1216687" data-name="Group 1216687" transform="translate(5.805 24.278)">
                <path id="Path_1087047" data-name="Path 1087047" d="M388.2,194.559c.175,0,.348.009.519.023V179.1a1.427,1.427,0,0,0-1.427-1.427H385v17.783A6.145,6.145,0,0,1,388.2,194.559Z" transform="translate(-385 -177.672)" fill="#cbc4cc"/>
              </g>
            </g>
            <g id="Group_1216693" data-name="Group 1216693" transform="translate(0 41.165)">
              <g id="Group_1216690" data-name="Group 1216690" transform="translate(45.098)">
                <g id="Group_1216689" data-name="Group 1216689">
                  <path id="Path_1087048" data-name="Path 1087048" d="M358.844,382.6H346.872a4.959,4.959,0,0,0-3.1,1.084,6.015,6.015,0,0,1,.786,2.98v10.171H361.52a2.3,2.3,0,0,0,2.3-2.3v-6.948a4.982,4.982,0,0,0-4.982-4.982Z" transform="translate(-343.772 -370.246)" fill="#fdb97e"/>
                  <path id="Path_1087049" data-name="Path 1087049" d="M364.33,383v8.527a1.427,1.427,0,0,1-1.427,1.427h-13.62v4.222h16.962a2.3,2.3,0,0,0,2.3-2.3v-6.948A4.983,4.983,0,0,0,364.33,383Z" transform="translate(-348.497 -370.595)" fill="#fea95c"/>
                  <circle id="Ellipse_14397" data-name="Ellipse 14397" cx="6.174" cy="6.174" r="6.174" transform="translate(2.911)" fill="#bb5d4c"/>
                </g>
              </g>
              <g id="Group_1216692" data-name="Group 1216692">
                <g id="Group_1216691" data-name="Group 1216691">
                  <path id="Path_1087050" data-name="Path 1087050" d="M46.935,386.659a6.014,6.014,0,0,1,.786-2.98,4.959,4.959,0,0,0-3.1-1.084H32.65a4.982,4.982,0,0,0-4.982,4.982v6.947a2.3,2.3,0,0,0,2.3,2.3H46.935Z" transform="translate(-27.668 -370.247)" fill="#86e8d0"/>
                  <path id="Path_1087051" data-name="Path 1087051" d="M46.935,387.007a6.014,6.014,0,0,1,.786-2.98A4.957,4.957,0,0,0,45.383,383v8.527a1.427,1.427,0,0,1-1.427,1.427H27.668v1.917a2.3,2.3,0,0,0,2.3,2.3H46.935Z" transform="translate(-27.668 -370.595)" fill="#5de1c4"/>
                  <circle id="Ellipse_14398" data-name="Ellipse 14398" cx="6.174" cy="6.174" r="6.174" transform="translate(4.793)" fill="#ffdfcf"/>
                </g>
              </g>
            </g>
            <g id="Group_1216694" data-name="Group 1216694" transform="translate(19.267 33.874)">
              <path id="Path_1087052" data-name="Path 1087052" d="M217.221,288.574a3.936,3.936,0,0,1-3.215-1.671.54.54,0,0,0-.884,0,3.936,3.936,0,0,1-3.215,1.671h-5.929l-.195.135v2.217a7.449,7.449,0,1,0,14.9,0v-2.217l-.144-.135Z" transform="translate(-197.925 -280.718)" fill="#ffdfcf"/>
              <path id="Path_1087053" data-name="Path 1087053" d="M239.82,293.008H238.5a3.933,3.933,0,0,1-2.788-1.163v2.417a7.449,7.449,0,0,1-7.108,7.441,7.449,7.449,0,0,0,11.358-6.342v-2.217Z" transform="translate(-219.206 -285.152)" fill="#ffcebf"/>
              <path id="Path_1087054" data-name="Path 1087054" d="M187.03,388.077H165.023a2.3,2.3,0,0,1-2.3-2.3V374.748a6.045,6.045,0,0,1,6.045-6.045h14.526a6.045,6.045,0,0,1,6.045,6.045v11.024A2.3,2.3,0,0,1,187.03,388.077Z" transform="translate(-162.718 -351.045)" fill="#b3dafe"/>
              <path id="Path_1087055" data-name="Path 1087055" d="M185.095,370.627v12.557a2.3,2.3,0,0,1-2.3,2.3H162.718v1.933a2.3,2.3,0,0,0,2.3,2.3H187.03a2.3,2.3,0,0,0,2.3-2.3V376.4A6.048,6.048,0,0,0,185.095,370.627Z" transform="translate(-162.718 -352.695)" fill="#8ac9fe"/>
              <path id="Path_1087056" data-name="Path 1087056" d="M237.608,373.779h2.577l.2-.173,1.371-4.9h-5.689l1.365,4.9Z" transform="translate(-225.599 -351.045)" fill="#d9b1ee"/>
              <path id="Path_1087057" data-name="Path 1087057" d="M239.528,417.542l-1.815-14.47H234.76l-1.809,14.47Z" transform="translate(-222.931 -380.511)" fill="#cb97e7"/>
              <path id="Path_1087058" data-name="Path 1087058" d="M233.481,474.8l-.53,4.238h6.577L239,474.8Z" transform="translate(-222.931 -442.002)" fill="#bd80e1"/>
              <path id="Path_1087059" data-name="Path 1087059" d="M218.683,252.925h-1.461A4.059,4.059,0,0,1,213.9,251.2a.4.4,0,0,0-.663,0,4.058,4.058,0,0,1-3.326,1.729h-6.123v-.948a7.043,7.043,0,0,1,7.043-7.043h.813a7.043,7.043,0,0,1,7.043,7.043v.948Z" transform="translate(-197.925 -244.934)" fill="#685e68"/>
              <path id="Path_1087060" data-name="Path 1087060" d="M256,244.934h-.473a7.036,7.036,0,0,1,3.267,5.944v.937a4.047,4.047,0,0,0,2.788,1.11h1.461v-.948A7.043,7.043,0,0,0,256,244.934Z" transform="translate(-242.289 -244.934)" fill="#554e56"/>
            </g>
            <g id="Group_1216695" data-name="Group 1216695" transform="translate(21.982 7.529)">
              <path id="Path_1087061" data-name="Path 1087061" d="M202.934,70.868a10.594,10.594,0,1,0-13.056,10.3,1.836,1.836,0,0,1,1.086.726l.933,1.334a.54.54,0,0,0,.885,0l.934-1.335a1.823,1.823,0,0,1,1.079-.723A10.6,10.6,0,0,0,202.934,70.868Z" transform="translate(-181.747 -60.275)" fill="#fedf30"/>
            </g>
            <path id="Path_1087062" data-name="Path 1087062" d="M216.135,64.3a10.588,10.588,0,0,1-10.647,17.781,10.572,10.572,0,0,0,4.744,2.541,1.836,1.836,0,0,1,1.086.726l.933,1.334a.54.54,0,0,0,.885,0l.934-1.335a1.824,1.824,0,0,1,1.079-.723,10.593,10.593,0,0,0,.985-20.324Z" transform="translate(-180.119 -56.197)" fill="#fed402"/>
            <path id="Path_1087063" data-name="Path 1087063" d="M382.586,296.226a6.173,6.173,0,0,1-4.232,10.668c-.189,0-.376-.01-.561-.027a6.173,6.173,0,1,0,4.793-10.641Z" transform="translate(-327.842 -255.034)" fill="#a44f3e"/>
            <path id="Path_1087064" data-name="Path 1087064" d="M79.671,296.226a6.173,6.173,0,0,1-4.232,10.668c-.189,0-.376-.01-.561-.027a6.173,6.173,0,1,0,4.793-10.641Z" transform="translate(-68.143 -255.034)" fill="#ffcebf"/>
          </g>
        </g>
        <g id="Group_1216698" data-name="Group 1216698" transform="translate(20.169 0)">
          <path id="Path_1087065" data-name="Path 1087065" d="M289.822,220.793h2.14v2.993h-2.14Z" transform="translate(-251.351 -189.293)"/>
          <path id="Path_1087066" data-name="Path 1087066" d="M324.287,220.793h2.14v2.993h-2.14Z" transform="translate(-280.899 -189.293)"/>
          <path id="Path_1087067" data-name="Path 1087067" d="M358.752,220.793h2.14v2.993h-2.14Z" transform="translate(-310.447 -189.293)"/>
          <path id="Path_1087068" data-name="Path 1087068" d="M324.287,261.123h2.14v2.993h-2.14Z" transform="translate(-280.899 -223.869)"/>
          <path id="Path_1087069" data-name="Path 1087069" d="M358.752,261.123h2.14v2.993h-2.14Z" transform="translate(-310.447 -223.869)"/>
          <path id="Path_1087070" data-name="Path 1087070" d="M324.287,46.312h2.14v2.993h-2.14Z" transform="translate(-280.899 -39.705)"/>
          <path id="Path_1087071" data-name="Path 1087071" d="M137.229,220.793h2.14v2.993h-2.14Z" transform="translate(-120.528 -189.293)"/>
          <path id="Path_1087072" data-name="Path 1087072" d="M171.694,220.793h2.14v2.993h-2.14Z" transform="translate(-150.076 -189.293)"/>
          <path id="Path_1087073" data-name="Path 1087073" d="M206.16,220.793h2.14v2.993h-2.14Z" transform="translate(-179.625 -189.293)"/>
          <path id="Path_1087074" data-name="Path 1087074" d="M137.229,261.123h2.14v2.993h-2.14Z" transform="translate(-120.528 -223.869)"/>
          <path id="Path_1087075" data-name="Path 1087075" d="M171.694,261.123h2.14v2.993h-2.14Z" transform="translate(-150.076 -223.869)"/>
          <path id="Path_1087076" data-name="Path 1087076" d="M225.924,109.838a1.07,1.07,0,0,0,1.07-1.07v-.823a1.07,1.07,0,1,0-2.14,0v.823A1.07,1.07,0,0,0,225.924,109.838Z" transform="translate(-195.652 -91.627)"/>
          <path id="Path_1087077" data-name="Path 1087077" d="M273.216,109.838a1.07,1.07,0,0,0,1.07-1.07v-.823a1.07,1.07,0,1,0-2.14,0v.823A1.07,1.07,0,0,0,273.216,109.838Z" transform="translate(-236.197 -91.627)"/>
          <path id="Path_1087078" data-name="Path 1087078" d="M228.165,147.559a1.07,1.07,0,0,0,0,1.513,5.233,5.233,0,0,0,7.4,0,1.07,1.07,0,1,0-1.513-1.513,3.094,3.094,0,0,1-4.379,0A1.07,1.07,0,0,0,228.165,147.559Z" transform="translate(-198.222 -126.239)"/>
          <path id="Path_1087079" data-name="Path 1087079" d="M81.408,53.514h-.851a7.239,7.239,0,0,0-3.546-12.171V37.521a1.07,1.07,0,0,0-2.14,0v3.667a7.239,7.239,0,0,0-4.584,12.325h-.851a6.069,6.069,0,0,0-2.806.693,7.1,7.1,0,0,0-5.554-2.675H59.452a8.5,8.5,0,0,0,2.882-6.379V41.987A8.122,8.122,0,0,0,54.884,33.9V32.448a1.6,1.6,0,0,0,.25-.279l.934-1.335a.756.756,0,0,1,.449-.3,11.679,11.679,0,0,0,8.316-15.184H65.7V12.361h-2.14v.415a11.792,11.792,0,0,0-3.1-3.175h.325V6.607h-2.14V8.57a11.565,11.565,0,0,0-3.755-.991V2.5a.357.357,0,0,1,.357-.357H68.709a.357.357,0,0,1,.357.357V24.635a1.785,1.785,0,0,0,1.783,1.783h3.665a.357.357,0,0,1,.357.357v5.753a1.07,1.07,0,0,0,2.14,0V26.775a2.5,2.5,0,0,0-2.5-2.5H71.206V2.5a2.5,2.5,0,0,0-2.5-2.5H55.241a2.5,2.5,0,0,0-2.5,2.5V7.579a11.743,11.743,0,0,0-8.192,4.56H39.261a2.5,2.5,0,0,0-2.5,2.5v7.491H33.633a2.5,2.5,0,0,0-2.5,2.5V41.245a7.24,7.24,0,0,0-4.065,12.269h-.851a6.059,6.059,0,0,0-6.052,6.052v6.947a3.379,3.379,0,0,0,3.375,3.375h2.022a1.07,1.07,0,1,0,0-2.14H23.544a1.236,1.236,0,0,1-1.235-1.235V59.566a3.916,3.916,0,0,1,3.912-3.912H38.192a3.868,3.868,0,0,1,1.733.407,7.074,7.074,0,0,0-.488,2.586v9.1H30.56a1.07,1.07,0,1,0,0,2.14h8.884a3.379,3.379,0,0,0,3.367,3.158H64.818a3.379,3.379,0,0,0,3.367-3.158h15.9a3.379,3.379,0,0,0,3.375-3.375V59.566a6.059,6.059,0,0,0-6.052-6.052ZM60.194,45.152a6.379,6.379,0,0,1-12.759,0V44.005h5.053a5.143,5.143,0,0,0,3.657-1.531A5.142,5.142,0,0,0,59.8,44.005h.391Zm-4.945,8.519-.773,2.763H53.147l-.769-2.763Zm4.942-11.807H59.8a3,3,0,0,1-2.45-1.274,1.475,1.475,0,0,0-2.413,0,3,3,0,0,1-2.45,1.274h-5.05a5.979,5.979,0,0,1,5.97-5.851h.813A5.979,5.979,0,0,1,60.191,41.865ZM32.206,53.514a5.1,5.1,0,1,1,5.1-5.1,5.11,5.11,0,0,1-5.1,5.1ZM41,54.207a6.069,6.069,0,0,0-2.806-.693h-.851a7.24,7.24,0,0,0-4.065-12.269V24.624a.357.357,0,0,1,.357-.357H37.12A1.785,1.785,0,0,0,38.9,22.483V14.636a.357.357,0,0,1,.357-.357h3.986a11.44,11.44,0,0,0-.9,2.789,1.07,1.07,0,0,0,2.1.39A9.6,9.6,0,0,1,53.362,9.68a9.523,9.523,0,0,1,2.662,18.776,2.892,2.892,0,0,0-1.709,1.151l-.5.715-.5-.714A2.906,2.906,0,0,0,51.6,28.455a9.545,9.545,0,0,1-6.9-6.508,1.07,1.07,0,0,0-2.049.618A11.691,11.691,0,0,0,51.1,30.536a.77.77,0,0,1,.458.3l.933,1.335a1.6,1.6,0,0,0,.249.279V33.9A8.122,8.122,0,0,0,45.3,41.987v3.166a8.5,8.5,0,0,0,2.882,6.379H46.551A7.1,7.1,0,0,0,41,54.207Zm8.584,16.7H42.811a1.236,1.236,0,0,1-1.235-1.235V58.647a4.981,4.981,0,0,1,4.975-4.975h3.606l1.089,3.914Zm2.157,0,1.541-12.33h1.064l1.546,12.33Zm14.315-1.235a1.236,1.236,0,0,1-1.235,1.235H58.047l-1.67-13.32,1.094-3.914h3.607a4.981,4.981,0,0,1,4.975,4.975Zm9.37-26.366a5.1,5.1,0,1,1-5.1,5.1,5.11,5.11,0,0,1,5.1-5.1Zm9.9,23.208a1.236,1.236,0,0,1-1.235,1.235H68.193v-9.1a7.077,7.077,0,0,0-.488-2.586,3.868,3.868,0,0,1,1.733-.407H81.408a3.916,3.916,0,0,1,3.912,3.912Z" transform="translate(-20.169 0)"/>
        </g>
      </g>
    </g>
  </g>
</svg>
