<svg xmlns="http://www.w3.org/2000/svg" xmlns:xlink="http://www.w3.org/1999/xlink" width="93.934" height="93.934" viewBox="0 0 93.934 93.934">
  <defs>
    <filter id="Path_982547" x="0" y="0" width="93.934" height="93.934" filterUnits="userSpaceOnUse">
      <feOffset dy="3" input="SourceAlpha"/>
      <feGaussianBlur stdDeviation="3" result="blur"/>
      <feFlood flood-opacity="0.161"/>
      <feComposite operator="in" in2="blur"/>
      <feComposite in="SourceGraphic"/>
    </filter>
  </defs>
  <g id="Group_1217639" data-name="Group 1217639" transform="translate(-191.467 -893.502)">
    <g id="Group_1216246" data-name="Group 1216246">
      <g id="Group_1215745" data-name="Group 1215745" transform="translate(3 -3111.469)">
        <g id="Group_1214374" data-name="Group 1214374" transform="translate(197.467 4010.97)">
          <g id="Group_1207740" data-name="Group 1207740">
            <g id="Group_1185504" data-name="Group 1185504">
              <g id="Group_1183665" data-name="Group 1183665">
                <g id="Group_1181743" data-name="Group 1181743">
                  <g id="Group_1175133" data-name="Group 1175133">
                    <g id="Group_1167337" data-name="Group 1167337">
                      <g id="Group_1166720" data-name="Group 1166720">
                        <g id="Group_1164305" data-name="Group 1164305">
                          <g id="Group_1163948" data-name="Group 1163948">
                            <g id="Group_1158168" data-name="Group 1158168">
                              <g id="Group_1152576" data-name="Group 1152576">
                                <g id="Group_1148633" data-name="Group 1148633">
                                  <g id="Group_1148525" data-name="Group 1148525">
                                    <g transform="matrix(1, 0, 0, 1, -9, -6)" filter="url(#Path_982547)">
                                      <g id="Path_982547-2" data-name="Path 982547" transform="translate(9 6)" fill="#f2f7e5">
                                        <path d="M 37.966796875 74.43359375 C 33.04315185546875 74.43359375 28.26757431030273 73.46962738037109 23.77274131774902 71.56847381591797 C 19.43047523498535 69.73184967041016 15.53040790557861 67.10224914550781 12.18087482452393 63.75271987915039 C 8.831341743469238 60.4031867980957 6.201741218566895 56.50312042236328 4.365118980407715 52.16086196899414 C 2.463963508605957 47.66601943969727 1.499996900558472 42.89044189453125 1.499996900558472 37.966796875 C 1.499996900558472 33.04315185546875 2.463963508605957 28.26757431030273 4.365118980407715 23.77274131774902 C 6.201741218566895 19.43047523498535 8.831341743469238 15.53040790557861 12.18087482452393 12.18087482452393 C 15.53040790557861 8.831341743469238 19.43047523498535 6.201741218566895 23.77274131774902 4.365118980407715 C 28.26757431030273 2.463963508605957 33.04315185546875 1.499996900558472 37.966796875 1.499996900558472 C 42.89044189453125 1.499996900558472 47.66601943969727 2.463963508605957 52.16086196899414 4.365118980407715 C 56.50312042236328 6.201741218566895 60.4031867980957 8.831341743469238 63.75271987915039 12.18087482452393 C 67.10224914550781 15.53040790557861 69.73184967041016 19.43047523498535 71.56847381591797 23.77274131774902 C 73.46962738037109 28.26757431030273 74.43359375 33.04315185546875 74.43359375 37.966796875 C 74.43359375 42.89044189453125 73.46962738037109 47.66601943969727 71.56847381591797 52.16086196899414 C 69.73184967041016 56.50313186645508 67.10224914550781 60.4031867980957 63.75271987915039 63.75271987915039 C 60.4031867980957 67.10224914550781 56.50313186645508 69.73184967041016 52.16086196899414 71.56847381591797 C 47.66601943969727 73.46962738037109 42.89044189453125 74.43359375 37.966796875 74.43359375 Z" stroke="none"/>
                                        <path d="M 37.966796875 3 C 33.2449836730957 3 28.66600799560547 3.924095153808594 24.35705947875977 5.746635437011719 C 20.19359588623047 7.507637023925781 16.45379638671875 10.02928161621094 13.24153518676758 13.24153518676758 C 10.02927398681641 16.45379638671875 7.507621765136719 20.19359588623047 5.746635437011719 24.35705947875977 C 3.924095153808594 28.66600799560547 3 33.2449836730957 3 37.966796875 C 3 42.6886100769043 3.924095153808594 47.26758575439453 5.746635437011719 51.57653427124023 C 7.507621765136719 55.73999786376953 10.02927398681641 59.47979736328125 13.24153518676758 62.69205856323242 C 16.45379638671875 65.90431976318359 20.19359588623047 68.42597198486328 24.35705947875977 70.18695831298828 C 28.66600799560547 72.00949859619141 33.2449836730957 72.93359375 37.966796875 72.93359375 C 42.6886100769043 72.93359375 47.26758575439453 72.00949859619141 51.57653427124023 70.18695831298828 C 55.73999786376953 68.42597198486328 59.47979736328125 65.90431976318359 62.69205856323242 62.69205856323242 C 65.90431976318359 59.47979736328125 68.42597198486328 55.73999786376953 70.18695831298828 51.57653427124023 C 72.00949859619141 47.26758575439453 72.93359375 42.6886100769043 72.93359375 37.966796875 C 72.93359375 33.2449836730957 72.00949859619141 28.66600799560547 70.18695831298828 24.35705947875977 C 68.42597198486328 20.19359588623047 65.90431976318359 16.45379638671875 62.69205856323242 13.24153518676758 C 59.47979736328125 10.02928161621094 55.73999786376953 7.507637023925781 51.57653427124023 5.746635437011719 C 47.26758575439453 3.924095153808594 42.6886100769043 3 37.966796875 3 M 37.966796875 0 C 58.93528366088867 0 75.93359375 16.99832153320312 75.93359375 37.966796875 C 75.93359375 58.93528366088867 58.93528366088867 75.93359375 37.966796875 75.93359375 C 16.99831008911133 75.93359375 0 58.93528366088867 0 37.966796875 C 0 16.99832153320312 16.99831008911133 0 37.966796875 0 Z" stroke="none" fill="#86b60c"/>
                                      </g>
                                    </g>
                                  </g>
                                </g>
                              </g>
                            </g>
                          </g>
                        </g>
                      </g>
                    </g>
                  </g>
                </g>
              </g>
            </g>
          </g>
        </g>
      </g>
      <g id="lider_1_" data-name="lider (1)" transform="translate(203.738 895.148)">
        <g id="Group_1216243" data-name="Group 1216243" transform="translate(1.419 1.605)">
          <path id="Path_1086008" data-name="Path 1086008" d="M306.421,274.087v-6.678H288.184v25.849h18.237V274.087Z" transform="translate(-248.705 -230.904)" fill="#fff"/>
          <path id="Path_1086009" data-name="Path 1086009" d="M416.689,267.738v6.685l12.107-.114v-28.85l-12.107,3.115v19.164Z" transform="translate(-358.973 -212.069)" fill="#5c90ae"/>
          <path id="Path_1086010" data-name="Path 1086010" d="M49.479,233.337H47.333c-3.931,0-5.185-3.075-6.746-5.04l-1.09-1.372a8.229,8.229,0,0,0-6.444-3.11H23.8l.943,6.118H14.2a3.4,3.4,0,0,0,0,6.809h-.8a3.4,3.4,0,1,0,0,6.809h2.218a3.4,3.4,0,0,0,0,6.809H16.9a3.4,3.4,0,0,0,0,6.809H34.04a8.229,8.229,0,0,0,5.356-1.982l1.113-.954a8.229,8.229,0,0,1,5.356-1.982h3.614Z" transform="translate(-10 -193.497)" fill="#ffc6ae"/>
          <path id="Path_1086011" data-name="Path 1086011" d="M45.312,46.621,40.095,12.793a3.076,3.076,0,1,0-6.079.947l5.191,32.881Z" transform="translate(-30.575 -10.185)" fill="#f9f5f3"/>
          <path id="Path_1086012" data-name="Path 1086012" d="M109.083,458.832l.372,2.789a2.926,2.926,0,1,1-5.8.745l-.444-3.534Z" transform="translate(-89.979 -395.161)" fill="#f9f5f3"/>
          <g id="Group_1216242" data-name="Group 1216242" transform="translate(9.575 3.001)">
            <path id="Path_1086013" data-name="Path 1086013" d="M77.472,31.329H94.611L92.288,48.348H80.064Z" transform="translate(-77.472 -31.329)" fill="#ff7e96"/>
            <path id="Path_1086014" data-name="Path 1086014" d="M179.538,65.365h12.4l-3.632,8.793,6.224,8.226H177.215Z" transform="translate(-163.06 -60.535)" fill="#ff7e96"/>
          </g>
        </g>
        <g id="Group_1216245" data-name="Group 1216245" transform="translate(0 0.186)">
          <g id="Group_1216244" data-name="Group 1216244" transform="translate(0 0)">
            <path id="Path_1086015" data-name="Path 1086015" d="M409.441,349.369a1.418,1.418,0,1,0-.768,1.854A1.432,1.432,0,0,0,409.441,349.369Z" transform="translate(-348.995 -299.065)"/>
            <path id="Path_1086016" data-name="Path 1086016" d="M72.112,33.873a1.419,1.419,0,0,0-1.223-.253l-11.933,3.07H40.9a1.419,1.419,0,0,0-1.419,1.419v1.916h-.727c-2.469,0-3.52-1.513-4.736-3.266-.287-.414-1.989-2.61-1.989-2.61A9.6,9.6,0,0,0,24.473,30.5H16.43L15.28,23.044h8.9l-.439,3.219a1.437,1.437,0,0,0,1.406,1.611H42.467A1.432,1.432,0,0,0,43.6,25.6l-5.734-7.578,3.322-8.043a1.419,1.419,0,0,0-1.312-1.961H29.1L29.54,4.8a1.437,1.437,0,0,0-1.406-1.611H12.141A4.467,4.467,0,0,0,7.9.186a4.537,4.537,0,0,0-4.44,5.2L8.39,36.622H5.623a4.821,4.821,0,0,0-3.767,7.832A4.821,4.821,0,0,0,2.861,52.66a4.819,4.819,0,0,0,1.526,6.428A4.821,4.821,0,0,0,8.324,66.7h5.071l.288,2.289a4.346,4.346,0,1,0,8.62-1.107L22.145,66.7h3.315a9.654,9.654,0,0,0,6.28-2.323l1.113-.954a6.814,6.814,0,0,1,4.433-1.64h2.195v2.181A1.419,1.419,0,0,0,40.9,65.378H59.149l12.107-.114a1.419,1.419,0,0,0,1.406-1.419V34.995a1.42,1.42,0,0,0-.55-1.122ZM37.753,10.855l-2.822,6.833a1.419,1.419,0,0,0,.18,1.4l4.5,5.95H26.776l1.937-14.181h9.041ZM26.071,9.225c0,.006,0,.013,0,.019l-1.5,10.962H14.842L12.655,6.025H26.507ZM6.262,4.939A1.673,1.673,0,0,1,7.9,3.024c1.094,0,1.55.856,1.693,1.8l4.91,31.8H11.264ZM19.489,68.252a1.507,1.507,0,1,1-2.99.382L16.255,66.7h3.026Zm17.8-9.312A9.653,9.653,0,0,0,31,61.263l-1.113.954a6.814,6.814,0,0,1-4.433,1.64H8.324a1.985,1.985,0,0,1,0-3.97,1.419,1.419,0,0,0,0-2.838H7.042a1.985,1.985,0,0,1,0-3.97,1.419,1.419,0,0,0,0-2.838H4.824a1.985,1.985,0,1,1,0-3.97h.8a1.419,1.419,0,0,0,0-2.838,1.985,1.985,0,0,1,0-3.97H22.668a1.419,1.419,0,1,0,0-2.838H17.374l-.505-3.28h7.6a6.774,6.774,0,0,1,5.332,2.574s1.606,2.068,1.88,2.463C33,40.273,34.8,42.865,38.753,42.865h.727V58.94H37.285Zm32.539,3.5-9.269.087V57.274a1.419,1.419,0,0,0-2.838,0v5.266h-15.4V39.529h15.4v5.259a1.419,1.419,0,1,0,2.838,0V39.21l9.269-2.385Z" transform="translate(0 -0.186)"/>
          </g>
        </g>
      </g>
    </g>
  </g>
</svg>
