<svg xmlns="http://www.w3.org/2000/svg" xmlns:xlink="http://www.w3.org/1999/xlink" width="93.934" height="93.934" viewBox="0 0 93.934 93.934">
  <defs>
    <filter id="Path_982547" x="0" y="0" width="93.934" height="93.934" filterUnits="userSpaceOnUse">
      <feOffset dy="3" input="SourceAlpha"/>
      <feGaussianBlur stdDeviation="3" result="blur"/>
      <feFlood flood-opacity="0.161"/>
      <feComposite operator="in" in2="blur"/>
      <feComposite in="SourceGraphic"/>
    </filter>
  </defs>
  <g id="Group_1217672" data-name="Group 1217672" transform="translate(-189 -3253.533)">
    <g id="Group_1216645" data-name="Group 1216645">
      <g id="Group_1215799" data-name="Group 1215799" transform="translate(0 -2743)">
        <g id="Group_1214400" data-name="Group 1214400" transform="translate(0 5099.669)">
          <g id="Group_1200933" data-name="Group 1200933" transform="translate(0 -3717.169)">
            <g id="Group_1183815" data-name="Group 1183815" transform="translate(0 4267.973)">
              <g id="Group_1181939" data-name="Group 1181939" transform="translate(0 -388.939)">
                <g id="Group_1175133" data-name="Group 1175133" transform="translate(-0.033 -1251)">
                  <g id="Group_1167337" data-name="Group 1167337" transform="translate(198.033 1992)">
                    <g id="Group_1166720" data-name="Group 1166720">
                      <g id="Group_1164305" data-name="Group 1164305">
                        <g id="Group_1163948" data-name="Group 1163948">
                          <g id="Group_1158168" data-name="Group 1158168">
                            <g id="Group_1152576" data-name="Group 1152576">
                              <g id="Group_1148633" data-name="Group 1148633">
                                <g id="Group_1148525" data-name="Group 1148525">
                                  <g transform="matrix(1, 0, 0, 1, -9, -6)" filter="url(#Path_982547)">
                                    <g id="Path_982547-2" data-name="Path 982547" transform="translate(9 6)" fill="#f2f7e5">
                                      <path d="M 37.966796875 74.43359375 C 33.04315185546875 74.43359375 28.26757431030273 73.46962738037109 23.77274131774902 71.56847381591797 C 19.43047523498535 69.73184967041016 15.53040790557861 67.10224914550781 12.18087482452393 63.75271987915039 C 8.831341743469238 60.4031867980957 6.201741218566895 56.50312042236328 4.365118980407715 52.16086196899414 C 2.463963508605957 47.66601943969727 1.499996900558472 42.89044189453125 1.499996900558472 37.966796875 C 1.499996900558472 33.04315185546875 2.463963508605957 28.26757431030273 4.365118980407715 23.77274131774902 C 6.201741218566895 19.43047523498535 8.831341743469238 15.53040790557861 12.18087482452393 12.18087482452393 C 15.53040790557861 8.831341743469238 19.43047523498535 6.201741218566895 23.77274131774902 4.365118980407715 C 28.26757431030273 2.463963508605957 33.04315185546875 1.499996900558472 37.966796875 1.499996900558472 C 42.89044189453125 1.499996900558472 47.66601943969727 2.463963508605957 52.16086196899414 4.365118980407715 C 56.50312042236328 6.201741218566895 60.4031867980957 8.831341743469238 63.75271987915039 12.18087482452393 C 67.10224914550781 15.53040790557861 69.73184967041016 19.43047523498535 71.56847381591797 23.77274131774902 C 73.46962738037109 28.26757431030273 74.43359375 33.04315185546875 74.43359375 37.966796875 C 74.43359375 42.89044189453125 73.46962738037109 47.66601943969727 71.56847381591797 52.16086196899414 C 69.73184967041016 56.50313186645508 67.10224914550781 60.4031867980957 63.75271987915039 63.75271987915039 C 60.4031867980957 67.10224914550781 56.50313186645508 69.73184967041016 52.16086196899414 71.56847381591797 C 47.66601943969727 73.46962738037109 42.89044189453125 74.43359375 37.966796875 74.43359375 Z" stroke="none"/>
                                      <path d="M 37.966796875 3 C 33.2449836730957 3 28.66600799560547 3.924095153808594 24.35705947875977 5.746635437011719 C 20.19359588623047 7.507637023925781 16.45379638671875 10.02928161621094 13.24153518676758 13.24153518676758 C 10.02927398681641 16.45379638671875 7.507621765136719 20.19359588623047 5.746635437011719 24.35705947875977 C 3.924095153808594 28.66600799560547 3 33.2449836730957 3 37.966796875 C 3 42.6886100769043 3.924095153808594 47.26758575439453 5.746635437011719 51.57653427124023 C 7.507621765136719 55.73999786376953 10.02927398681641 59.47979736328125 13.24153518676758 62.69205856323242 C 16.45379638671875 65.90431976318359 20.19359588623047 68.42597198486328 24.35705947875977 70.18695831298828 C 28.66600799560547 72.00949859619141 33.2449836730957 72.93359375 37.966796875 72.93359375 C 42.6886100769043 72.93359375 47.26758575439453 72.00949859619141 51.57653427124023 70.18695831298828 C 55.73999786376953 68.42597198486328 59.47979736328125 65.90431976318359 62.69205856323242 62.69205856323242 C 65.90431976318359 59.47979736328125 68.42597198486328 55.73999786376953 70.18695831298828 51.57653427124023 C 72.00949859619141 47.26758575439453 72.93359375 42.6886100769043 72.93359375 37.966796875 C 72.93359375 33.2449836730957 72.00949859619141 28.66600799560547 70.18695831298828 24.35705947875977 C 68.42597198486328 20.19359588623047 65.90431976318359 16.45379638671875 62.69205856323242 13.24153518676758 C 59.47979736328125 10.02928161621094 55.73999786376953 7.507637023925781 51.57653427124023 5.746635437011719 C 47.26758575439453 3.924095153808594 42.6886100769043 3 37.966796875 3 M 37.966796875 0 C 58.93528366088867 0 75.93359375 16.99832153320312 75.93359375 37.966796875 C 75.93359375 58.93528366088867 58.93528366088867 75.93359375 37.966796875 75.93359375 C 16.99831008911133 75.93359375 0 58.93528366088867 0 37.966796875 C 0 16.99832153320312 16.99831008911133 0 37.966796875 0 Z" stroke="none" fill="#86b60c"/>
                                    </g>
                                  </g>
                                </g>
                              </g>
                            </g>
                          </g>
                        </g>
                      </g>
                    </g>
                  </g>
                </g>
              </g>
            </g>
          </g>
        </g>
      </g>
      <g id="liderazgo_1_" data-name="liderazgo (1)" transform="translate(203.757 3269.482)">
        <g id="Group_1216644" data-name="Group 1216644" transform="translate(1.007 3.65)">
          <path id="Path_1086732" data-name="Path 1086732" d="M116.41,14.526a16.015,16.015,0,0,0-4.029,1.668.968.968,0,0,1-.95.024l-2.343-1.192a.969.969,0,0,0-1.15.184l-2.377,2.377a.971.971,0,0,0-.184,1.15l1.193,2.347a.962.962,0,0,1-.028.95,16.117,16.117,0,0,0-1.668,4.025.963.963,0,0,1-.653.691l-2.5.812a.976.976,0,0,0-.684.944v3.362a.976.976,0,0,0,.684.944l2.5.812a.981.981,0,0,1,.653.691,16.017,16.017,0,0,0,1.666,4.025.962.962,0,0,1,.028.95l-1.192,2.345a.969.969,0,0,0,.184,1.15l2.377,2.377a.969.969,0,0,0,1.15.182l2.343-1.192a.969.969,0,0,1,.954.028,16.017,16.017,0,0,0,4.025,1.666.974.974,0,0,1,.691.653l.812,2.5a.976.976,0,0,0,.944.684h3.362a.976.976,0,0,0,.944-.684l.812-2.5a.974.974,0,0,1,.691-.653,16.017,16.017,0,0,0,4.025-1.666.962.962,0,0,1,.95-.028l2.345,1.192a.971.971,0,0,0,1.15-.182l2.377-2.377a.971.971,0,0,0,.184-1.15L134.5,39.289a.971.971,0,0,1,.024-.95,15.885,15.885,0,0,0,1.668-4.025.981.981,0,0,1,.653-.691l2.5-.812a.976.976,0,0,0,.684-.944V28.506a.976.976,0,0,0-.684-.944l-2.5-.812a.974.974,0,0,1-.653-.691,15.912,15.912,0,0,0-1.668-4.025.968.968,0,0,1-.024-.95L135.7,18.74a.969.969,0,0,0-.184-1.15l-2.377-2.377a.971.971,0,0,0-1.15-.184l-2.345,1.192a.972.972,0,0,1-.95-.024,15.885,15.885,0,0,0-4.025-1.668.974.974,0,0,1-.691-.653l-.812-2.5a.978.978,0,0,0-.944-.684h-3.362a.976.976,0,0,0-.944.684l-.812,2.5a.976.976,0,0,1-.691.651Z" transform="translate(-89.333 -10.687)" fill="#bec7cf" fill-rule="evenodd"/>
          <path id="Path_1086733" data-name="Path 1086733" d="M116.41,14.509a16.114,16.114,0,0,0-3.621,1.437l.5.255a.979.979,0,0,0,.954-.024,15.885,15.885,0,0,1,4.025-1.668.974.974,0,0,0,.691-.653l.812-2.5a.978.978,0,0,1,.944-.684h-1.862a.976.976,0,0,0-.944.684l-.812,2.5A.974.974,0,0,1,116.41,14.509Zm-6.73.8-.591-.3a.969.969,0,0,0-1.15.184l-2.377,2.377a.971.971,0,0,0-.184,1.15l1.193,2.345a.962.962,0,0,1-.028.95,16.117,16.117,0,0,0-1.668,4.025.963.963,0,0,1-.653.691l-2.5.812a.976.976,0,0,0-.684.944V31.85a.976.976,0,0,0,.684.944l2.5.812a.981.981,0,0,1,.653.691,16.017,16.017,0,0,0,1.666,4.025.962.962,0,0,1,.028.95l-1.192,2.345a.969.969,0,0,0,.184,1.15l2.377,2.377a.968.968,0,0,0,1.15.182l.591-.3-2.256-2.26a.971.971,0,0,1-.184-1.15l1.192-2.345a.971.971,0,0,0-.024-.95,15.885,15.885,0,0,1-1.668-4.025.981.981,0,0,0-.653-.691l-2.5-.812a.976.976,0,0,1-.684-.944V28.486a.976.976,0,0,1,.684-.944l2.5-.812a.974.974,0,0,0,.653-.691,15.912,15.912,0,0,1,1.668-4.025.968.968,0,0,0,.024-.95l-1.192-2.345a.969.969,0,0,1,.184-1.15Zm3.109,29.08a15.857,15.857,0,0,0,3.621,1.437.974.974,0,0,1,.691.653l.812,2.5a.976.976,0,0,0,.944.684h1.862a.976.976,0,0,1-.944-.684l-.812-2.5a.974.974,0,0,0-.691-.653,16.017,16.017,0,0,1-4.025-1.666.962.962,0,0,0-.95-.028Z" transform="translate(-89.333 -10.67)" fill="#abb3ba" fill-rule="evenodd"/>
          <path id="Path_1086734" data-name="Path 1086734" d="M211.48,113.646a7.485,7.485,0,1,1-7.486-7.486A7.486,7.486,0,0,1,211.48,113.646Z" transform="translate(-172.791 -94.145)" fill="#eaf6ff" fill-rule="evenodd"/>
          <path id="Path_1086735" data-name="Path 1086735" d="M204.653,121.1c-.218.018-.435.028-.659.028a7.485,7.485,0,0,1,0-14.97c.224,0,.442.01.659.028a7.487,7.487,0,0,0,0,14.915Z" transform="translate(-172.791 -94.145)" fill="#d3dde6" fill-rule="evenodd"/>
          <path id="Path_1086736" data-name="Path 1086736" d="M56.22,260.9A5.22,5.22,0,1,0,51,255.679,5.232,5.232,0,0,0,56.22,260.9Z" transform="translate(-45.59 -220.289)" fill="#fbbd80" fill-rule="evenodd"/>
          <path id="Path_1086737" data-name="Path 1086737" d="M56.22,250.45a5.328,5.328,0,0,1,.532.028,5.22,5.22,0,0,0,0,10.385,5.328,5.328,0,0,1-.532.028,5.22,5.22,0,0,1,0-10.441Z" transform="translate(-45.59 -220.28)" fill="#e2aa73" fill-rule="evenodd"/>
          <path id="Path_1086738" data-name="Path 1086738" d="M383.46,260.9a5.22,5.22,0,1,0-5.22-5.22A5.232,5.232,0,0,0,383.46,260.9Z" transform="translate(-331.656 -220.289)" fill="#fbbd80" fill-rule="evenodd"/>
          <path id="Path_1086739" data-name="Path 1086739" d="M383.46,250.45a5.328,5.328,0,0,1,.532.028,5.22,5.22,0,0,0,0,10.385,5.328,5.328,0,0,1-.532.028,5.22,5.22,0,0,1,0-10.441Z" transform="translate(-331.656 -220.28)" fill="#e2aa73" fill-rule="evenodd"/>
          <path id="Path_1086740" data-name="Path 1086740" d="M211.416,248.351A6.416,6.416,0,1,0,205,241.936,6.427,6.427,0,0,0,211.416,248.351Z" transform="translate(-180.213 -207.229)" fill="#fbbd80" fill-rule="evenodd"/>
          <path id="Path_1086741" data-name="Path 1086741" d="M211.416,235.52a5.989,5.989,0,0,1,.657.034,6.417,6.417,0,0,0,0,12.767c-.218.02-.435.031-.657.031a6.416,6.416,0,0,1,0-12.833Z" transform="translate(-180.213 -207.229)" fill="#e2aa73" fill-rule="evenodd"/>
          <path id="Path_1086742" data-name="Path 1086742" d="M9.134,364.567h19a1.139,1.139,0,0,0,1.134-1.134v-6.3a7.459,7.459,0,0,0-7.439-7.439H15.439A7.459,7.459,0,0,0,8,357.129v6.3A1.138,1.138,0,0,0,9.134,364.567Z" transform="translate(-8 -307.034)" fill="#ff4155" fill-rule="evenodd"/>
          <path id="Path_1086743" data-name="Path 1086743" d="M9.134,364.567h1.421a1.139,1.139,0,0,1-1.134-1.134v-6.3a7.459,7.459,0,0,1,7.439-7.439H15.439A7.459,7.459,0,0,0,8,357.129v6.3A1.138,1.138,0,0,0,9.134,364.567Z" transform="translate(-8 -307.034)" fill="#e63b4d" fill-rule="evenodd"/>
          <path id="Path_1086744" data-name="Path 1086744" d="M336.144,364.567h19a1.139,1.139,0,0,0,1.134-1.134v-6.3a7.459,7.459,0,0,0-7.439-7.439h-6.385a7.459,7.459,0,0,0-7.439,7.439v6.3A1.139,1.139,0,0,0,336.144,364.567Z" transform="translate(-293.865 -307.034)" fill="#ff4155" fill-rule="evenodd"/>
          <path id="Path_1086745" data-name="Path 1086745" d="M336.144,364.567h1.421a1.136,1.136,0,0,1-1.134-1.134v-6.3a7.459,7.459,0,0,1,7.439-7.439h-1.421a7.459,7.459,0,0,0-7.439,7.439v6.3A1.139,1.139,0,0,0,336.144,364.567Z" transform="translate(-293.865 -307.034)" fill="#e63b4d" fill-rule="evenodd"/>
          <path id="Path_1086746" data-name="Path 1086746" d="M154.393,375.325h23.151a1.385,1.385,0,0,0,1.382-1.382v-7.688a9.094,9.094,0,0,0-9.069-9.065h-7.781a9.093,9.093,0,0,0-9.066,9.065v7.688A1.387,1.387,0,0,0,154.393,375.325Z" transform="translate(-134.765 -313.59)" fill="#0593fc" fill-rule="evenodd"/>
          <path id="Path_1086747" data-name="Path 1086747" d="M154.393,375.325h1.728a1.386,1.386,0,0,1-1.379-1.382v-7.688a9.093,9.093,0,0,1,9.065-9.065h-1.731a9.093,9.093,0,0,0-9.065,9.065v7.688A1.386,1.386,0,0,0,154.393,375.325Z" transform="translate(-134.765 -313.59)" fill="#0584e3" fill-rule="evenodd"/>
          <path id="Path_1086748" data-name="Path 1086748" d="M241.417,369.517l2.1-3.724-.8-8.6h-2.594l-.8,8.6Z" transform="translate(-210.215 -313.59)" fill="#d1dcff" fill-rule="evenodd"/>
        </g>
        <path id="Path_1086749" data-name="Path 1086749" d="M11.634,45.28a6.252,6.252,0,0,0,6.1-7.656L18.909,38.8a1.98,1.98,0,0,0,2.323.371l2.335-1.189c.394.23.807.448,1.233.652a7.417,7.417,0,0,0,14.823,0c.424-.2.837-.42,1.232-.651l2.333,1.187a1.978,1.978,0,0,0,2.321-.366l1.178-1.178a6.27,6.27,0,1,0,1.729-3.076,1.934,1.934,0,0,0-.165-.442l-1.187-2.331a17.209,17.209,0,0,0,1.763-4.257l2.491-.812a2,2,0,0,0,1.379-1.9V21.45a2,2,0,0,0-1.38-1.9l-2.49-.812a17.232,17.232,0,0,0-1.763-4.257l1.185-2.326a1.992,1.992,0,0,0-.366-2.325L45.511,7.459a1.981,1.981,0,0,0-2.321-.371L40.852,8.276A17.24,17.24,0,0,0,36.6,6.509l-.807-2.49a2,2,0,0,0-1.9-1.379H30.528a2,2,0,0,0-1.9,1.382l-.805,2.488a17.11,17.11,0,0,0-4.257,1.767L21.235,7.088a1.981,1.981,0,0,0-2.32.365L16.532,9.833a2.006,2.006,0,0,0-.362,2.319l1.189,2.33A17.064,17.064,0,0,0,15.6,18.739l-2.489.81a1.992,1.992,0,0,0-1.382,1.9v3.359a1.993,1.993,0,0,0,1.38,1.9l2.49.812a17.207,17.207,0,0,0,1.763,4.257l-1.192,2.333a2.061,2.061,0,0,0-.161.44,6.255,6.255,0,1,0-4.372,10.73Zm41.151-10.5a4.243,4.243,0,1,1-4.243,4.243A4.248,4.248,0,0,1,52.785,34.78ZM32.209,43.744a5.4,5.4,0,1,1,5.405-5.4A5.408,5.408,0,0,1,32.209,43.744ZM25.7,23.13a6.508,6.508,0,1,1,6.508,6.508A6.515,6.515,0,0,1,25.7,23.13ZM27.841,6.505l.385.931-.4-.924ZM23.57,8.283a.035.035,0,0,1,.013,0l-.316.956ZM16.225,25.606l-2.486-.81V21.463l2.482-.809a1.964,1.964,0,0,0,1.317-1.392A15.022,15.022,0,0,1,19.1,15.491a1.968,1.968,0,0,0,.055-1.915l-1.189-2.329,2.36-2.358,2.323,1.183a1.965,1.965,0,0,0,1.925-.05,15.085,15.085,0,0,1,3.76-1.563,1.985,1.985,0,0,0,1.4-1.315l.807-2.488h3.337l.807,2.49a1.977,1.977,0,0,0,1.392,1.311,15.192,15.192,0,0,1,3.77,1.565,1.968,1.968,0,0,0,1.912.053l2.333-1.185,2.357,2.358-1.188,2.333a1.951,1.951,0,0,0,.057,1.91,15.191,15.191,0,0,1,1.563,3.776,1.966,1.966,0,0,0,1.315,1.388l2.486.81V24.8l-2.482.809A1.968,1.968,0,0,0,46.88,27a15.132,15.132,0,0,1-1.556,3.763,1.958,1.958,0,0,0-.06,1.921l1.187,2.33-2.358,2.358-2.321-1.18a1.975,1.975,0,0,0-1.925.049c-.147.086-.3.17-.45.252a7.453,7.453,0,0,0-4.811-5.178,8.523,8.523,0,1,0-4.747,0,7.448,7.448,0,0,0-4.809,5.176c-.154-.083-.3-.166-.452-.253a1.958,1.958,0,0,0-1.918-.053L20.33,37.371l-2.36-2.358,1.192-2.333a1.965,1.965,0,0,0-.057-1.91,15.191,15.191,0,0,1-1.563-3.776,1.972,1.972,0,0,0-1.317-1.388ZM11.634,34.78a4.243,4.243,0,1,1-4.239,4.243A4.248,4.248,0,0,1,11.634,34.78Zm44.344,10.5H49.6a8.406,8.406,0,0,0-6.81,3.464,10.045,10.045,0,0,0-6.68-2.535H28.314a10.047,10.047,0,0,0-6.68,2.535,8.408,8.408,0,0,0-6.808-3.463H8.444A8.454,8.454,0,0,0,0,53.729v6.306a2.141,2.141,0,0,0,2.138,2.141h16.08V64A2.4,2.4,0,0,0,20.61,66.4h23.2A2.393,2.393,0,0,0,46.2,64V62.177H62.282a2.142,2.142,0,0,0,2.138-2.141V53.729a8.453,8.453,0,0,0-8.443-8.445ZM31.828,48.227h.764l.688,7.392-1.072,1.9-1.072-1.9ZM18.219,56.3v3.858h-1.18V54.238a1.008,1.008,0,1,0-2.016,0v5.922H8.246V54.238a1.008,1.008,0,1,0-2.016,0v5.922H2.139a.127.127,0,0,1-.123-.127V53.728A6.436,6.436,0,0,1,8.444,47.3h6.38a6.409,6.409,0,0,1,5.407,2.963A10.041,10.041,0,0,0,18.219,56.3ZM44.184,64a.38.38,0,0,1-.372.376H38.588V56.927a1.008,1.008,0,0,0-2.016,0V64.38H27.848V56.927a1.008,1.008,0,0,0-2.016,0V64.38H20.61A.381.381,0,0,1,20.233,64V56.3a8.035,8.035,0,0,1,1.91-5.207.988.988,0,0,0,.131-.151,8.063,8.063,0,0,1,6.039-2.719H29.8l-.7,7.519a1.01,1.01,0,0,0,.126.589l2.1,3.731a1.008,1.008,0,0,0,1.755,0l2.1-3.731a1.01,1.01,0,0,0,.126-.589l-.7-7.519h1.491a8.058,8.058,0,0,1,6.057,2.743.988.988,0,0,0,.1.117A8.036,8.036,0,0,1,44.181,56.3V64Zm18.222-3.97a.13.13,0,0,1-.123.127H58.189V54.238a1.008,1.008,0,1,0-2.016,0v5.922H49.4V54.238a1.008,1.008,0,1,0-2.016,0v5.922H46.2V56.3a10.04,10.04,0,0,0-2.011-6.038A6.409,6.409,0,0,1,49.6,47.3h6.38A6.436,6.436,0,0,1,62.4,53.728v6.306Z" transform="translate(0)"/>
      </g>
    </g>
  </g>
</svg>
